<svg width="555" height="452" viewBox="0 0 555 452" fill="none" xmlns="http://www.w3.org/2000/svg">
<path d="M182.454 76.4588C183.457 76.4588 184.414 76.6411 185.326 77.0056C186.238 77.3702 187.059 77.9171 187.788 78.6462L195.311 86.1655C196.018 86.8719 196.554 87.6808 196.919 88.5922C197.283 89.5036 197.477 90.472 197.5 91.4974C197.5 92.5 197.318 93.457 196.953 94.3684C196.588 95.2798 196.041 96.1001 195.311 96.8293L194.833 97.3078C193.602 98.5382 192.473 99.6319 191.447 100.589C190.421 101.546 189.35 102.343 188.233 102.981C187.116 103.619 185.873 104.121 184.506 104.485C183.138 104.85 181.508 105.021 179.616 104.998C176.766 104.998 173.836 104.554 170.827 103.665C167.818 102.776 164.831 101.546 161.868 99.9737C158.904 98.4015 155.986 96.5331 153.114 94.3684C150.241 92.2038 147.54 89.8454 145.009 87.2934C142.479 84.7414 140.131 82.0299 137.965 79.1589C135.799 76.2879 133.952 73.3713 132.425 70.4091C130.898 67.447 129.689 64.4734 128.8 61.4885C127.911 58.5036 127.478 55.6325 127.501 52.8755C127.501 50.9842 127.66 49.3664 127.98 48.0221C128.299 46.6777 128.789 45.4473 129.45 44.3308C130.111 43.2143 130.909 42.1547 131.844 41.1522C132.778 40.1496 133.873 39.0217 135.127 37.7685L135.674 37.2216C136.38 36.5153 137.19 35.9684 138.102 35.581C139.013 35.1937 139.982 35 141.008 35C142.011 35 142.969 35.1937 143.881 35.581C144.793 35.9684 145.613 36.5153 146.343 37.2216L153.866 44.7409C154.573 45.4473 155.108 46.2562 155.473 47.1676C155.838 48.0791 156.032 49.0474 156.054 50.0728C156.054 51.0754 155.884 51.964 155.542 52.7387C155.2 53.5135 154.778 54.2312 154.276 54.892C153.775 55.5528 153.228 56.1338 152.635 56.6351C152.042 57.1364 151.484 57.6491 150.959 58.1732C150.435 58.6972 150.013 59.1985 149.694 59.677C149.375 60.1555 149.204 60.7138 149.181 61.3518C149.181 62.2176 149.489 62.9582 150.104 63.5734L168.946 82.4059C169.562 83.0211 170.303 83.3287 171.169 83.3287C171.762 83.3287 172.309 83.1578 172.811 82.816C173.312 82.4742 173.825 82.0527 174.349 81.5514C174.874 81.0501 175.387 80.5032 175.888 79.9108C176.39 79.3184 176.971 78.7601 177.632 78.2361C178.293 77.712 179 77.2905 179.752 76.9714C180.505 76.6524 181.405 76.4816 182.454 76.4588ZM179.616 100.623C181.257 100.623 182.625 100.475 183.719 100.179C184.813 99.8826 185.816 99.4382 186.728 98.8458C187.64 98.2534 188.506 97.5242 189.327 96.6584C190.148 95.7925 191.117 94.8127 192.234 93.719C192.849 93.1038 193.157 92.3633 193.157 91.4974C193.157 91.0873 192.998 90.6088 192.678 90.0619C192.359 89.515 191.926 88.9226 191.379 88.2846C190.832 87.6466 190.25 87.02 189.635 86.4048C189.019 85.7896 188.381 85.1743 187.72 84.5591C187.059 83.9439 186.478 83.4084 185.976 82.9527C185.474 82.497 185.053 82.0983 184.711 81.7565C184.095 81.1413 183.343 80.8336 182.454 80.8336C181.861 80.8336 181.314 81.0045 180.812 81.3463C180.311 81.6881 179.809 82.1096 179.308 82.6109C178.806 83.1122 178.293 83.6591 177.769 84.2515C177.245 84.8439 176.652 85.4022 175.991 85.9263C175.33 86.4503 174.623 86.8719 173.871 87.1909C173.118 87.5099 172.218 87.6808 171.169 87.7036C170.166 87.7036 169.209 87.5213 168.297 87.1567C167.385 86.7921 166.564 86.2453 165.835 85.5161L146.993 66.6837C146.286 65.9773 145.75 65.1684 145.385 64.257C145.021 63.3455 144.827 62.3771 144.804 61.3518C144.804 60.3492 144.975 59.4606 145.317 58.6858C145.659 57.9111 146.081 57.1934 146.582 56.5326C147.084 55.8718 147.631 55.2908 148.224 54.7895C148.816 54.2882 149.375 53.7641 149.899 53.2172C150.424 52.6704 150.845 52.1691 151.164 51.7134C151.484 51.2577 151.655 50.7108 151.677 50.0728C151.677 49.1842 151.37 48.4322 150.754 47.817C150.458 47.5208 150.07 47.1107 149.591 46.5866C149.113 46.0625 148.577 45.4815 147.984 44.8435C147.392 44.2055 146.776 43.5675 146.138 42.9295C145.499 42.2915 144.861 41.699 144.223 41.1522C143.584 40.6053 143.003 40.1838 142.479 39.8876C141.954 39.5913 141.464 39.4204 141.008 39.3749C140.142 39.3749 139.401 39.6825 138.786 40.2977L135.879 43.2029C135.035 44.046 134.306 44.9118 133.69 45.8005C133.075 46.6891 132.619 47.6803 132.322 48.774C132.026 49.8677 131.867 51.2349 131.844 52.8755C131.844 55.4275 132.254 58.0592 133.075 60.7707C133.896 63.4823 135.047 66.1938 136.529 68.9053C138.01 71.6168 139.754 74.2827 141.761 76.9031C143.767 79.5235 145.955 82.0185 148.326 84.3882C150.697 86.7579 153.193 88.9226 155.815 90.8822C158.437 92.8418 161.104 94.5507 163.817 96.009C166.53 97.4673 169.22 98.5952 171.887 99.3927C174.555 100.19 177.131 100.6 179.616 100.623Z" fill="#DEDEDE"/>
<path d="M140.6 142.12V138.52C140.6 138.28 140.56 138.127 140.48 138.06C140.414 137.98 140.254 137.94 140 137.94H136.68V136.48H140.54C141.194 136.48 141.667 136.633 141.96 136.94C142.267 137.233 142.42 137.667 142.42 138.24V142.4C142.42 142.973 142.267 143.413 141.96 143.72C141.667 144.013 141.194 144.16 140.54 144.16H137.32V142.72H140C140.254 142.72 140.414 142.68 140.48 142.6C140.56 142.52 140.6 142.36 140.6 142.12ZM136.44 136.48H138.24V149H136.44V136.48ZM149.419 149H147.619V141.28C147.619 141.04 147.579 140.887 147.499 140.82C147.419 140.74 147.259 140.7 147.019 140.7H146.319C146.092 140.7 145.925 140.753 145.819 140.86C145.712 140.967 145.659 141.147 145.659 141.4V142H145.579V140.6C145.579 140.12 145.699 139.773 145.939 139.56C146.179 139.347 146.499 139.24 146.899 139.24H147.619C148.232 139.24 148.685 139.393 148.979 139.7C149.272 139.993 149.419 140.433 149.419 141.02V149ZM145.659 149H143.859V135.62H145.659V149ZM155.123 145.8V141.26C155.123 141.007 155.083 140.847 155.003 140.78C154.937 140.7 154.777 140.66 154.523 140.66H153.923V139.24H155.043C155.697 139.24 156.17 139.393 156.463 139.7C156.757 139.993 156.903 140.433 156.903 141.02V145.8H155.123ZM155.123 146.98V144.96H156.903V147.24C156.903 147.813 156.757 148.253 156.463 148.56C156.17 148.853 155.697 149 155.043 149H153.823V147.58H154.523C154.777 147.58 154.937 147.54 155.003 147.46C155.083 147.38 155.123 147.22 155.123 146.98ZM152.843 141.26V145.82H151.063V141.02C151.063 140.433 151.21 139.993 151.503 139.7C151.797 139.393 152.263 139.24 152.903 139.24H154.043V140.66H153.443C153.203 140.66 153.043 140.7 152.963 140.78C152.883 140.847 152.843 141.007 152.843 141.26ZM152.843 144.84V146.98C152.843 147.22 152.883 147.38 152.963 147.46C153.043 147.54 153.203 147.58 153.443 147.58H153.983V149H152.903C152.263 149 151.797 148.853 151.503 148.56C151.21 148.253 151.063 147.813 151.063 147.24V144.84H152.843ZM160.366 149H158.566V139.24H160.366V140.46V140.58V149ZM164.126 149H162.326V141.28C162.326 141.04 162.286 140.887 162.206 140.82C162.126 140.74 161.966 140.7 161.726 140.7H161.026C160.799 140.7 160.632 140.753 160.526 140.86C160.419 140.967 160.366 141.147 160.366 141.4V142.04H160.286V140.6C160.286 140.12 160.406 139.773 160.646 139.56C160.886 139.347 161.206 139.24 161.606 139.24H162.326C162.939 139.24 163.392 139.393 163.686 139.7C163.979 139.993 164.126 140.433 164.126 141.02V149ZM167.59 141.24V147C167.59 147.227 167.63 147.38 167.71 147.46C167.79 147.54 167.95 147.58 168.19 147.58H168.69V149H167.69C167.05 149 166.577 148.853 166.27 148.56C165.977 148.253 165.83 147.813 165.83 147.24V141.02C165.83 140.433 165.977 139.993 166.27 139.7C166.577 139.393 167.05 139.24 167.69 139.24H168.79V140.66H168.19C167.95 140.66 167.79 140.7 167.71 140.78C167.63 140.847 167.59 141 167.59 141.24ZM169.75 144.42V141.24C169.75 141 169.71 140.847 169.63 140.78C169.564 140.7 169.41 140.66 169.17 140.66H168.53V139.24H169.65C170.304 139.24 170.777 139.393 171.07 139.7C171.377 139.993 171.53 140.433 171.53 141.02V144.42H169.75ZM169.71 146.98V146.18H171.47V147.24C171.47 147.813 171.324 148.253 171.03 148.56C170.737 148.853 170.264 149 169.61 149H168.53V147.58H169.11C169.364 147.58 169.524 147.54 169.59 147.46C169.67 147.38 169.71 147.22 169.71 146.98ZM171.53 143.36V144.68H166.47V143.36H171.53ZM180.228 146.96V136.48H182.048V147.24C182.048 147.813 181.895 148.253 181.588 148.56C181.295 148.853 180.821 149 180.168 149H178.848V147.54H179.648C179.888 147.54 180.041 147.5 180.108 147.42C180.188 147.34 180.228 147.187 180.228 146.96ZM177.888 136.48V146.96C177.888 147.187 177.928 147.34 178.008 147.42C178.088 147.5 178.248 147.54 178.488 147.54H179.108V149H177.948C177.295 149 176.815 148.853 176.508 148.56C176.215 148.253 176.068 147.813 176.068 147.24V136.48H177.888ZM187.177 147.04V145.42C187.177 145.18 187.137 145.027 187.057 144.96C186.99 144.88 186.83 144.84 186.577 144.84H185.557C184.904 144.84 184.43 144.693 184.137 144.4C183.844 144.093 183.697 143.653 183.697 143.08V141.02C183.697 140.433 183.844 139.993 184.137 139.7C184.444 139.393 184.917 139.24 185.557 139.24H187.017C187.67 139.24 188.144 139.393 188.437 139.7C188.744 139.993 188.897 140.433 188.897 141.02V141.96H187.137V141.2C187.137 140.96 187.097 140.807 187.017 140.74C186.95 140.66 186.79 140.62 186.537 140.62H186.057C185.817 140.62 185.657 140.66 185.577 140.74C185.497 140.807 185.457 140.96 185.457 141.2V142.88C185.457 143.12 185.497 143.28 185.577 143.36C185.657 143.427 185.817 143.46 186.057 143.46H187.097C187.737 143.46 188.204 143.613 188.497 143.92C188.79 144.213 188.937 144.653 188.937 145.24V147.24C188.937 147.813 188.784 148.253 188.477 148.56C188.184 148.853 187.717 149 187.077 149H185.597C184.957 149 184.484 148.853 184.177 148.56C183.884 148.253 183.737 147.813 183.737 147.24V146.28H185.517V147.04C185.517 147.267 185.557 147.42 185.637 147.5C185.717 147.58 185.87 147.62 186.097 147.62H186.577C186.83 147.62 186.99 147.58 187.057 147.5C187.137 147.42 187.177 147.267 187.177 147.04Z" fill="#DEDEDE"/>
<path d="M140.074 169.468V175.768C140.074 176.169 139.967 176.477 139.752 176.692C139.547 176.897 139.22 177 138.772 177H137.246C136.789 177 136.453 176.897 136.238 176.692C136.033 176.477 135.93 176.169 135.93 175.768V169.468C135.93 169.067 136.033 168.763 136.238 168.558C136.453 168.343 136.789 168.236 137.246 168.236H138.772C139.22 168.236 139.547 168.343 139.752 168.558C139.967 168.763 140.074 169.067 140.074 169.468ZM138.8 175.572V169.664C138.8 169.496 138.772 169.389 138.716 169.342C138.67 169.286 138.558 169.258 138.38 169.258H137.624C137.466 169.258 137.358 169.286 137.302 169.342C137.246 169.389 137.218 169.496 137.218 169.664V175.572C137.218 175.731 137.246 175.838 137.302 175.894C137.358 175.95 137.466 175.978 137.624 175.978H138.38C138.558 175.978 138.67 175.95 138.716 175.894C138.772 175.838 138.8 175.731 138.8 175.572ZM144.326 168.236V169.286H140.812V168.236H144.326ZM144.732 168.236V169.02L142.38 177H141.092L143.682 168.236H144.732ZM148.302 175.572V173.374C148.302 173.206 148.274 173.099 148.218 173.052C148.171 172.996 148.059 172.968 147.882 172.968H146.328V171.96H148.26C148.708 171.96 149.034 172.067 149.24 172.282C149.454 172.487 149.562 172.795 149.562 173.206V175.768C149.562 176.169 149.454 176.477 149.24 176.692C149.034 176.897 148.708 177 148.26 177H147.448V175.978H147.882C148.059 175.978 148.171 175.95 148.218 175.894C148.274 175.838 148.302 175.731 148.302 175.572ZM146.734 169.664V175.572C146.734 175.731 146.762 175.838 146.818 175.894C146.874 175.95 146.981 175.978 147.14 175.978H147.574V177H146.776C146.318 177 145.982 176.897 145.768 176.692C145.562 176.477 145.46 176.169 145.46 175.768V169.468C145.46 169.067 145.562 168.763 145.768 168.558C145.982 168.343 146.318 168.236 146.776 168.236H147.56V169.258H147.14C146.981 169.258 146.874 169.286 146.818 169.342C146.762 169.389 146.734 169.496 146.734 169.664ZM148.274 170.98V169.664C148.274 169.496 148.246 169.389 148.19 169.342C148.134 169.286 148.022 169.258 147.854 169.258H147.406V168.236H148.218C148.666 168.236 148.992 168.343 149.198 168.558C149.412 168.763 149.52 169.067 149.52 169.468V170.98H148.274ZM151.939 169.664V172.016C151.939 172.175 151.967 172.282 152.023 172.338C152.079 172.394 152.191 172.422 152.359 172.422H153.913V173.416H151.981C151.533 173.416 151.202 173.309 150.987 173.094C150.782 172.879 150.679 172.571 150.679 172.17V169.468C150.679 169.067 150.782 168.763 150.987 168.558C151.202 168.343 151.533 168.236 151.981 168.236H152.793V169.258H152.359C152.191 169.258 152.079 169.286 152.023 169.342C151.967 169.389 151.939 169.496 151.939 169.664ZM153.507 175.572V169.664C153.507 169.496 153.479 169.389 153.423 169.342C153.377 169.286 153.269 169.258 153.101 169.258H152.667V168.236H153.465C153.923 168.236 154.254 168.343 154.459 168.558C154.674 168.763 154.781 169.067 154.781 169.468V175.768C154.781 176.169 154.674 176.477 154.459 176.692C154.254 176.897 153.923 177 153.465 177H152.681V175.978H153.101C153.269 175.978 153.377 175.95 153.423 175.894C153.479 175.838 153.507 175.731 153.507 175.572ZM151.967 174.27V175.572C151.967 175.731 151.995 175.838 152.051 175.894C152.107 175.95 152.219 175.978 152.387 175.978H152.835V177H152.023C151.566 177 151.23 176.897 151.015 176.692C150.81 176.477 150.707 176.169 150.707 175.768V174.27H151.967ZM160.962 175.572V173.374C160.962 173.206 160.934 173.099 160.878 173.052C160.831 172.996 160.719 172.968 160.542 172.968H158.988V171.96H160.92C161.368 171.96 161.695 172.067 161.9 172.282C162.115 172.487 162.222 172.795 162.222 173.206V175.768C162.222 176.169 162.115 176.477 161.9 176.692C161.695 176.897 161.368 177 160.92 177H160.108V175.978H160.542C160.719 175.978 160.831 175.95 160.878 175.894C160.934 175.838 160.962 175.731 160.962 175.572ZM159.394 169.664V175.572C159.394 175.731 159.422 175.838 159.478 175.894C159.534 175.95 159.641 175.978 159.8 175.978H160.234V177H159.436C158.979 177 158.643 176.897 158.428 176.692C158.223 176.477 158.12 176.169 158.12 175.768V169.468C158.12 169.067 158.223 168.763 158.428 168.558C158.643 168.343 158.979 168.236 159.436 168.236H160.22V169.258H159.8C159.641 169.258 159.534 169.286 159.478 169.342C159.422 169.389 159.394 169.496 159.394 169.664ZM160.934 170.98V169.664C160.934 169.496 160.906 169.389 160.85 169.342C160.794 169.286 160.682 169.258 160.514 169.258H160.066V168.236H160.878C161.326 168.236 161.653 168.343 161.858 168.558C162.073 168.763 162.18 169.067 162.18 169.468V170.98H160.934ZM164.474 169.664V170.98H163.214V169.468C163.214 169.067 163.316 168.763 163.522 168.558C163.736 168.343 164.068 168.236 164.516 168.236H165.804C166.261 168.236 166.592 168.343 166.798 168.558C167.012 168.763 167.12 169.067 167.12 169.468V171.68C167.12 171.923 167.073 172.119 166.98 172.268C166.886 172.408 166.751 172.501 166.574 172.548C166.751 172.595 166.886 172.683 166.98 172.814C167.073 172.945 167.12 173.127 167.12 173.36V175.768C167.12 176.169 167.012 176.477 166.798 176.692C166.592 176.897 166.261 177 165.804 177H164.516C164.068 177 163.736 176.897 163.522 176.692C163.316 176.477 163.214 176.169 163.214 175.768V174.27H164.474V175.572C164.474 175.731 164.502 175.838 164.558 175.894C164.614 175.95 164.726 175.978 164.894 175.978H165.44C165.617 175.978 165.729 175.95 165.776 175.894C165.832 175.838 165.86 175.731 165.86 175.572V173.472C165.86 173.304 165.832 173.197 165.776 173.15C165.729 173.094 165.617 173.066 165.44 173.066H164.39V172.058H165.44C165.617 172.058 165.729 172.03 165.776 171.974C165.832 171.918 165.86 171.811 165.86 171.652V169.664C165.86 169.496 165.832 169.389 165.776 169.342C165.729 169.286 165.617 169.258 165.44 169.258H164.894C164.726 169.258 164.614 169.286 164.558 169.342C164.502 169.389 164.474 169.496 164.474 169.664ZM169.394 169.664V171.092H168.134V169.468C168.134 169.067 168.237 168.763 168.442 168.558C168.648 168.343 168.979 168.236 169.436 168.236H170.64C171.098 168.236 171.429 168.343 171.634 168.558C171.849 168.763 171.956 169.067 171.956 169.468V170.35C171.956 170.723 171.919 171.055 171.844 171.344C171.77 171.624 171.644 171.932 171.466 172.268L169.576 175.978H172.012V177H168.148V176.02L170.29 171.988C170.449 171.689 170.552 171.419 170.598 171.176C170.654 170.924 170.682 170.635 170.682 170.308V169.664C170.682 169.496 170.654 169.389 170.598 169.342C170.552 169.286 170.44 169.258 170.262 169.258H169.814C169.646 169.258 169.534 169.286 169.478 169.342C169.422 169.389 169.394 169.496 169.394 169.664ZM176.011 169.664V171.092H174.751V169.468C174.751 169.067 174.854 168.763 175.059 168.558C175.265 168.343 175.596 168.236 176.053 168.236H177.257C177.715 168.236 178.046 168.343 178.251 168.558C178.466 168.763 178.573 169.067 178.573 169.468V170.35C178.573 170.723 178.536 171.055 178.461 171.344C178.387 171.624 178.261 171.932 178.083 172.268L176.193 175.978H178.629V177H174.765V176.02L176.907 171.988C177.066 171.689 177.169 171.419 177.215 171.176C177.271 170.924 177.299 170.635 177.299 170.308V169.664C177.299 169.496 177.271 169.389 177.215 169.342C177.169 169.286 177.057 169.258 176.879 169.258H176.431C176.263 169.258 176.151 169.286 176.095 169.342C176.039 169.389 176.011 169.496 176.011 169.664ZM180.899 173.472V175.572C180.899 175.74 180.927 175.852 180.983 175.908C181.039 175.964 181.146 175.992 181.305 175.992H181.739V177H180.955C180.507 177 180.176 176.897 179.961 176.692C179.756 176.477 179.653 176.169 179.653 175.768V173.416C179.653 173.173 179.7 172.987 179.793 172.856C179.886 172.725 180.022 172.637 180.199 172.59C180.022 172.543 179.886 172.45 179.793 172.31C179.7 172.161 179.653 171.965 179.653 171.722V169.468C179.653 169.067 179.756 168.763 179.961 168.558C180.176 168.343 180.507 168.236 180.955 168.236H181.767V169.244H181.305C181.146 169.244 181.039 169.272 180.983 169.328C180.927 169.375 180.899 169.482 180.899 169.65V171.694C180.899 171.853 180.927 171.96 180.983 172.016C181.039 172.072 181.146 172.1 181.305 172.1H181.795V173.066H181.305C181.146 173.066 181.039 173.094 180.983 173.15C180.927 173.197 180.899 173.304 180.899 173.472ZM182.537 171.694V169.65C182.537 169.482 182.509 169.375 182.453 169.328C182.406 169.272 182.299 169.244 182.131 169.244H181.683V168.236H182.481C182.929 168.236 183.256 168.343 183.461 168.558C183.676 168.763 183.783 169.067 183.783 169.468V171.722C183.783 171.965 183.736 172.161 183.643 172.31C183.55 172.45 183.414 172.543 183.237 172.59C183.414 172.637 183.55 172.725 183.643 172.856C183.736 172.987 183.783 173.173 183.783 173.416V175.768C183.783 176.169 183.676 176.477 183.461 176.692C183.256 176.897 182.929 177 182.481 177H181.613V175.992H182.131C182.299 175.992 182.406 175.964 182.453 175.908C182.509 175.852 182.537 175.74 182.537 175.572V173.472C182.537 173.304 182.509 173.197 182.453 173.15C182.406 173.094 182.299 173.066 182.131 173.066H181.641V172.1H182.131C182.299 172.1 182.406 172.072 182.453 172.016C182.509 171.96 182.537 171.853 182.537 171.694ZM186.229 169.664V172.016C186.229 172.175 186.257 172.282 186.313 172.338C186.369 172.394 186.481 172.422 186.649 172.422H188.203V173.416H186.271C185.823 173.416 185.491 173.309 185.277 173.094C185.071 172.879 184.969 172.571 184.969 172.17V169.468C184.969 169.067 185.071 168.763 185.277 168.558C185.491 168.343 185.823 168.236 186.271 168.236H187.083V169.258H186.649C186.481 169.258 186.369 169.286 186.313 169.342C186.257 169.389 186.229 169.496 186.229 169.664ZM187.797 175.572V169.664C187.797 169.496 187.769 169.389 187.713 169.342C187.666 169.286 187.559 169.258 187.391 169.258H186.957V168.236H187.755C188.212 168.236 188.543 168.343 188.749 168.558C188.963 168.763 189.071 169.067 189.071 169.468V175.768C189.071 176.169 188.963 176.477 188.749 176.692C188.543 176.897 188.212 177 187.755 177H186.971V175.978H187.391C187.559 175.978 187.666 175.95 187.713 175.894C187.769 175.838 187.797 175.731 187.797 175.572ZM186.257 174.27V175.572C186.257 175.731 186.285 175.838 186.341 175.894C186.397 175.95 186.509 175.978 186.677 175.978H187.125V177H186.313C185.855 177 185.519 176.897 185.305 176.692C185.099 176.477 184.997 176.169 184.997 175.768V174.27H186.257Z" fill="#DEDEDE"/>
<path fill-rule="evenodd" clip-rule="evenodd" d="M373.227 34.5C369.852 34.5 366.615 35.8409 364.228 38.2277C361.841 40.6146 360.5 43.8518 360.5 47.2273V91.7727C360.5 95.1482 361.841 98.3854 364.228 100.772C366.615 103.159 369.852 104.5 373.227 104.5H417.773C421.148 104.5 424.385 103.159 426.772 100.772C429.159 98.3854 430.5 95.1482 430.5 91.7727V47.2273C430.5 43.8518 429.159 40.6146 426.772 38.2277C424.385 35.8409 421.148 34.5 417.773 34.5H373.227ZM395.258 43.3041C389.098 43.3041 383.409 45.5791 379.305 50.3677C375.232 55.1245 372.963 62.0545 372.963 70.9636C372.963 80.0764 376.123 86.3955 380.918 90.3886C385.617 94.3023 391.555 95.6959 396.722 95.6959C407.165 95.6959 415.673 89.2686 416.083 80.0286C416.29 75.3895 414.238 71.5332 410.83 68.9336C409.896 68.2243 408.889 67.6164 407.826 67.12L407.788 66.525C407.422 61.6727 405.348 58.6182 402.729 56.8777C400.832 55.648 398.62 54.9908 396.359 54.9845C392.719 54.9845 389.54 56.4959 386.976 59.4391C386.736 59.7149 386.552 60.0352 386.436 60.3819C386.32 60.7285 386.273 61.0947 386.298 61.4594C386.324 61.8242 386.421 62.1804 386.583 62.5077C386.746 62.835 386.972 63.127 387.248 63.367C387.524 63.6071 387.844 63.7905 388.191 63.9067C388.537 64.023 388.904 64.0698 389.268 64.0445C389.633 64.0193 389.989 63.9224 390.317 63.7595C390.644 63.5966 390.936 63.3708 391.176 63.095C392.767 61.2686 394.453 60.5527 396.362 60.5527C397.04 60.5527 398.437 60.7118 399.649 61.5168C400.53 62.1023 401.552 63.1777 402.02 65.3891C400.697 65.1845 399.361 65.0845 398.023 65.09C393.282 65.09 389.951 66.2959 387.883 68.5105C385.821 70.7155 385.522 73.3818 385.627 75.1827C385.696 76.3601 386.012 77.5097 386.555 78.5568C387.097 79.6039 387.855 80.5249 388.777 81.26C390.765 82.8636 393.486 83.64 396.722 83.4014C400.235 83.1436 403.299 81.3555 405.313 78.2977C406.261 76.8595 406.951 75.1795 407.375 73.3023L407.451 73.3595C409.525 74.9441 410.642 77.1045 410.521 79.7805C410.283 85.1736 405.144 90.1277 396.722 90.1277C392.455 90.1277 387.908 88.9632 384.478 86.1091C381.144 83.3314 378.531 78.6795 378.531 70.9636C378.531 62.955 380.571 57.4505 383.533 53.9918C386.46 50.5777 390.527 48.8723 395.258 48.8723C400.276 48.8723 404.253 50.075 407.101 52.1177C409.907 54.1286 411.81 57.0909 412.513 61.0459C412.643 61.7729 413.056 62.4187 413.661 62.8411C414.267 63.2636 415.016 63.4282 415.743 63.2986C416.47 63.1691 417.115 62.7561 417.538 62.1504C417.96 61.5448 418.125 60.7961 417.995 60.0691C417.05 54.7745 414.4 50.5014 410.346 47.5932C406.331 44.7136 401.132 43.3041 395.258 43.3041ZM398.023 70.6582C399.504 70.6624 400.872 70.7982 402.128 71.0655C401.867 72.8409 401.332 74.2218 400.664 75.2336C399.585 76.8691 398.077 77.7186 396.311 77.8491C394.192 78.005 392.948 77.4736 392.267 76.9264C391.952 76.6769 391.692 76.3638 391.506 76.0075C391.32 75.6512 391.21 75.2595 391.185 74.8582C391.128 73.8909 391.322 72.9841 391.952 72.3127C392.576 71.6445 394.135 70.6582 398.023 70.6582Z" fill="#DEDEDE"/>
<path d="M377.759 136.22H379.559V148.5H377.759V136.22ZM381.659 135.98V137.44H375.659V135.98H381.659ZM388.19 148.5H386.39V140.78C386.39 140.54 386.35 140.387 386.27 140.32C386.19 140.24 386.03 140.2 385.79 140.2H385.09C384.863 140.2 384.697 140.253 384.59 140.36C384.483 140.467 384.43 140.647 384.43 140.9V141.5H384.35V140.1C384.35 139.62 384.47 139.273 384.71 139.06C384.95 138.847 385.27 138.74 385.67 138.74H386.39C387.003 138.74 387.457 138.893 387.75 139.2C388.043 139.493 388.19 139.933 388.19 140.52V148.5ZM384.43 148.5H382.63V135.12H384.43V148.5ZM393.715 138.72V140.3H392.995C392.155 140.3 391.735 140.787 391.735 141.76V142.18H391.655V140.48C391.655 140.2 391.715 139.927 391.835 139.66C391.968 139.38 392.155 139.153 392.395 138.98C392.648 138.807 392.955 138.72 393.315 138.72H393.715ZM391.735 148.5H389.935V138.74H391.735V140.56V148.5ZM396.42 140.74V146.5C396.42 146.727 396.46 146.88 396.54 146.96C396.62 147.04 396.78 147.08 397.02 147.08H397.52V148.5H396.52C395.88 148.5 395.407 148.353 395.1 148.06C394.807 147.753 394.66 147.313 394.66 146.74V140.52C394.66 139.933 394.807 139.493 395.1 139.2C395.407 138.893 395.88 138.74 396.52 138.74H397.62V140.16H397.02C396.78 140.16 396.62 140.2 396.54 140.28C396.46 140.347 396.42 140.5 396.42 140.74ZM398.58 143.92V140.74C398.58 140.5 398.54 140.347 398.46 140.28C398.394 140.2 398.24 140.16 398 140.16H397.36V138.74H398.48C399.134 138.74 399.607 138.893 399.9 139.2C400.207 139.493 400.36 139.933 400.36 140.52V143.92H398.58ZM398.54 146.48V145.68H400.3V146.74C400.3 147.313 400.154 147.753 399.86 148.06C399.567 148.353 399.094 148.5 398.44 148.5H397.36V147.08H397.94C398.194 147.08 398.354 147.04 398.42 146.96C398.5 146.88 398.54 146.72 398.54 146.48ZM400.36 142.86V144.18H395.3V142.86H400.36ZM403.587 143.96H401.787V140.52C401.787 139.933 401.934 139.493 402.227 139.2C402.521 138.893 402.974 138.74 403.587 138.74H404.307C404.707 138.74 405.027 138.847 405.267 139.06C405.507 139.273 405.627 139.62 405.627 140.1V141.44H405.547V140.9C405.547 140.647 405.494 140.467 405.387 140.36C405.281 140.253 405.114 140.2 404.887 140.2H404.187C403.947 140.2 403.787 140.24 403.707 140.32C403.627 140.387 403.587 140.54 403.587 140.78V143.96ZM407.347 148.5H405.547V140.14V140V138.74H407.347V148.5ZM401.787 143.28H403.587V146.46C403.587 146.687 403.627 146.84 403.707 146.92C403.787 147 403.947 147.04 404.187 147.04H404.887C405.114 147.04 405.281 146.993 405.387 146.9C405.494 146.793 405.547 146.607 405.547 146.34V145.82H405.627V147.14C405.627 147.62 405.507 147.967 405.267 148.18C405.027 148.393 404.707 148.5 404.307 148.5H403.587C402.974 148.5 402.521 148.353 402.227 148.06C401.934 147.753 401.787 147.313 401.787 146.74V143.28ZM410.794 143.94H408.994V140.5C408.994 139.913 409.141 139.473 409.434 139.18C409.728 138.873 410.181 138.72 410.794 138.72H411.514C411.914 138.72 412.234 138.827 412.474 139.04C412.714 139.253 412.834 139.6 412.834 140.08V141.52H412.754V140.88C412.754 140.627 412.701 140.447 412.594 140.34C412.488 140.233 412.321 140.18 412.094 140.18H411.394C411.154 140.18 410.994 140.22 410.914 140.3C410.834 140.367 410.794 140.52 410.794 140.76V143.94ZM412.754 135.12H414.554V148.5H412.754V147.26V147.16V135.12ZM408.994 143.28H410.794V146.46C410.794 146.687 410.834 146.84 410.914 146.92C410.994 147 411.154 147.04 411.394 147.04H412.094C412.321 147.04 412.488 146.993 412.594 146.9C412.701 146.793 412.754 146.607 412.754 146.34V145.88H412.834V147.14C412.834 147.62 412.714 147.967 412.474 148.18C412.234 148.393 411.914 148.5 411.514 148.5H410.794C410.181 148.5 409.728 148.353 409.434 148.06C409.141 147.753 408.994 147.313 408.994 146.74V143.28Z" fill="#DEDEDE"/>
<path d="M322.652 167.736H323.912L322.512 176.5H320.776L319.782 169.92L318.816 176.5H317.066L315.666 167.736H316.968L317.948 175.352L319.082 167.736H320.496L321.616 175.352L322.652 167.736ZM325.878 171.068V175.1C325.878 175.259 325.906 175.366 325.962 175.422C326.018 175.478 326.13 175.506 326.298 175.506H326.648V176.5H325.948C325.5 176.5 325.168 176.397 324.954 176.192C324.748 175.977 324.646 175.669 324.646 175.268V170.914C324.646 170.503 324.748 170.195 324.954 169.99C325.168 169.775 325.5 169.668 325.948 169.668H326.718V170.662H326.298C326.13 170.662 326.018 170.69 325.962 170.746C325.906 170.793 325.878 170.9 325.878 171.068ZM327.39 173.294V171.068C327.39 170.9 327.362 170.793 327.306 170.746C327.259 170.69 327.152 170.662 326.984 170.662H326.536V169.668H327.32C327.777 169.668 328.108 169.775 328.314 169.99C328.528 170.195 328.636 170.503 328.636 170.914V173.294H327.39ZM327.362 175.086V174.526H328.594V175.268C328.594 175.669 328.491 175.977 328.286 176.192C328.08 176.397 327.749 176.5 327.292 176.5H326.536V175.506H326.942C327.119 175.506 327.231 175.478 327.278 175.422C327.334 175.366 327.362 175.254 327.362 175.086ZM328.636 172.552V173.476H325.094V172.552H328.636ZM332.918 173.322H331.658V170.914C331.658 170.503 331.761 170.195 331.966 169.99C332.171 169.775 332.489 169.668 332.918 169.668H333.422C333.702 169.668 333.926 169.743 334.094 169.892C334.262 170.041 334.346 170.284 334.346 170.62V171.558H334.29V171.18C334.29 171.003 334.253 170.877 334.178 170.802C334.103 170.727 333.987 170.69 333.828 170.69H333.338C333.17 170.69 333.058 170.718 333.002 170.774C332.946 170.821 332.918 170.928 332.918 171.096V173.322ZM335.55 176.5H334.29V170.648V170.55V169.668H335.55V176.5ZM331.658 172.846H332.918V175.072C332.918 175.231 332.946 175.338 333.002 175.394C333.058 175.45 333.17 175.478 333.338 175.478H333.828C333.987 175.478 334.103 175.445 334.178 175.38C334.253 175.305 334.29 175.175 334.29 174.988V174.624H334.346V175.548C334.346 175.884 334.262 176.127 334.094 176.276C333.926 176.425 333.702 176.5 333.422 176.5H332.918C332.489 176.5 332.171 176.397 331.966 176.192C331.761 175.977 331.658 175.669 331.658 175.268V172.846ZM339.433 169.654V170.76H338.929C338.341 170.76 338.047 171.101 338.047 171.782V172.076H337.991V170.886C337.991 170.69 338.033 170.499 338.117 170.312C338.21 170.116 338.341 169.957 338.509 169.836C338.686 169.715 338.901 169.654 339.153 169.654H339.433ZM338.047 176.5H336.787V169.668H338.047V170.942V176.5ZM341.327 171.068V175.1C341.327 175.259 341.355 175.366 341.411 175.422C341.467 175.478 341.579 175.506 341.747 175.506H342.097V176.5H341.397C340.949 176.5 340.618 176.397 340.403 176.192C340.198 175.977 340.095 175.669 340.095 175.268V170.914C340.095 170.503 340.198 170.195 340.403 169.99C340.618 169.775 340.949 169.668 341.397 169.668H342.167V170.662H341.747C341.579 170.662 341.467 170.69 341.411 170.746C341.355 170.793 341.327 170.9 341.327 171.068ZM342.839 173.294V171.068C342.839 170.9 342.811 170.793 342.755 170.746C342.708 170.69 342.601 170.662 342.433 170.662H341.985V169.668H342.769C343.226 169.668 343.558 169.775 343.763 169.99C343.978 170.195 344.085 170.503 344.085 170.914V173.294H342.839ZM342.811 175.086V174.526H344.043V175.268C344.043 175.669 343.94 175.977 343.735 176.192C343.53 176.397 343.198 176.5 342.741 176.5H341.985V175.506H342.391C342.568 175.506 342.68 175.478 342.727 175.422C342.783 175.366 342.811 175.254 342.811 175.086ZM344.085 172.552V173.476H340.543V172.552H344.085ZM348.367 173.322H347.107V170.914C347.107 170.503 347.21 170.195 347.415 169.99C347.621 169.775 347.938 169.668 348.367 169.668H348.871C349.151 169.668 349.375 169.743 349.543 169.892C349.711 170.041 349.795 170.284 349.795 170.62V171.558H349.739V171.18C349.739 171.003 349.702 170.877 349.627 170.802C349.553 170.727 349.436 170.69 349.277 170.69H348.787C348.619 170.69 348.507 170.718 348.451 170.774C348.395 170.821 348.367 170.928 348.367 171.096V173.322ZM350.999 176.5H349.739V170.648V170.55V169.668H350.999V176.5ZM347.107 172.846H348.367V175.072C348.367 175.231 348.395 175.338 348.451 175.394C348.507 175.45 348.619 175.478 348.787 175.478H349.277C349.436 175.478 349.553 175.445 349.627 175.38C349.702 175.305 349.739 175.175 349.739 174.988V174.624H349.795V175.548C349.795 175.884 349.711 176.127 349.543 176.276C349.375 176.425 349.151 176.5 348.871 176.5H348.367C347.938 176.5 347.621 176.397 347.415 176.192C347.21 175.977 347.107 175.669 347.107 175.268V172.846ZM353.496 176.5H352.236V167.134H353.496V176.5ZM360.45 169.668H361.64L360.38 176.5H358.714L357.902 171.334L357.09 176.5H355.424L354.178 169.668H355.368L356.278 175.422L357.16 169.668H358.658L359.512 175.422L360.45 169.668ZM363.502 173.322H362.242V170.914C362.242 170.503 362.345 170.195 362.55 169.99C362.755 169.775 363.073 169.668 363.502 169.668H364.006C364.286 169.668 364.51 169.743 364.678 169.892C364.846 170.041 364.93 170.284 364.93 170.62V171.558H364.874V171.18C364.874 171.003 364.837 170.877 364.762 170.802C364.687 170.727 364.571 170.69 364.412 170.69H363.922C363.754 170.69 363.642 170.718 363.586 170.774C363.53 170.821 363.502 170.928 363.502 171.096V173.322ZM366.134 176.5H364.874V170.648V170.55V169.668H366.134V176.5ZM362.242 172.846H363.502V175.072C363.502 175.231 363.53 175.338 363.586 175.394C363.642 175.45 363.754 175.478 363.922 175.478H364.412C364.571 175.478 364.687 175.445 364.762 175.38C364.837 175.305 364.874 175.175 364.874 174.988V174.624H364.93V175.548C364.93 175.884 364.846 176.127 364.678 176.276C364.51 176.425 364.286 176.5 364.006 176.5H363.502C363.073 176.5 362.755 176.397 362.55 176.192C362.345 175.977 362.242 175.669 362.242 175.268V172.846ZM366.867 169.668H368.155L369.191 175.394L370.157 169.668H371.431L369.989 177.158C369.896 177.569 369.718 177.881 369.457 178.096C369.205 178.32 368.846 178.432 368.379 178.432H367.539V177.424H368.113C368.309 177.424 368.468 177.391 368.589 177.326C368.72 177.27 368.804 177.149 368.841 176.962L368.981 176.388H368.295L366.867 169.668ZM374.438 175.128V173.994C374.438 173.826 374.41 173.719 374.354 173.672C374.307 173.616 374.195 173.588 374.018 173.588H373.304C372.847 173.588 372.515 173.485 372.31 173.28C372.105 173.065 372.002 172.757 372.002 172.356V170.914C372.002 170.503 372.105 170.195 372.31 169.99C372.525 169.775 372.856 169.668 373.304 169.668H374.326C374.783 169.668 375.115 169.775 375.32 169.99C375.535 170.195 375.642 170.503 375.642 170.914V171.572H374.41V171.04C374.41 170.872 374.382 170.765 374.326 170.718C374.279 170.662 374.167 170.634 373.99 170.634H373.654C373.486 170.634 373.374 170.662 373.318 170.718C373.262 170.765 373.234 170.872 373.234 171.04V172.216C373.234 172.384 373.262 172.496 373.318 172.552C373.374 172.599 373.486 172.622 373.654 172.622H374.382C374.83 172.622 375.157 172.729 375.362 172.944C375.567 173.149 375.67 173.457 375.67 173.868V175.268C375.67 175.669 375.563 175.977 375.348 176.192C375.143 176.397 374.816 176.5 374.368 176.5H373.332C372.884 176.5 372.553 176.397 372.338 176.192C372.133 175.977 372.03 175.669 372.03 175.268V174.596H373.276V175.128C373.276 175.287 373.304 175.394 373.36 175.45C373.416 175.506 373.523 175.534 373.682 175.534H374.018C374.195 175.534 374.307 175.506 374.354 175.45C374.41 175.394 374.438 175.287 374.438 175.128ZM381.419 169.654V170.76H380.915C380.327 170.76 380.033 171.101 380.033 171.782V172.076H379.977V170.886C379.977 170.69 380.019 170.499 380.103 170.312C380.197 170.116 380.327 169.957 380.495 169.836C380.673 169.715 380.887 169.654 381.139 169.654H381.419ZM380.033 176.5H378.773V169.668H380.033V170.942V176.5ZM383.313 171.068V175.1C383.313 175.259 383.341 175.366 383.397 175.422C383.453 175.478 383.565 175.506 383.733 175.506H384.083V176.5H383.383C382.935 176.5 382.604 176.397 382.389 176.192C382.184 175.977 382.081 175.669 382.081 175.268V170.914C382.081 170.503 382.184 170.195 382.389 169.99C382.604 169.775 382.935 169.668 383.383 169.668H384.153V170.662H383.733C383.565 170.662 383.453 170.69 383.397 170.746C383.341 170.793 383.313 170.9 383.313 171.068ZM384.825 173.294V171.068C384.825 170.9 384.797 170.793 384.741 170.746C384.694 170.69 384.587 170.662 384.419 170.662H383.971V169.668H384.755C385.212 169.668 385.544 169.775 385.749 169.99C385.964 170.195 386.071 170.503 386.071 170.914V173.294H384.825ZM384.797 175.086V174.526H386.029V175.268C386.029 175.669 385.926 175.977 385.721 176.192C385.516 176.397 385.184 176.5 384.727 176.5H383.971V175.506H384.377C384.554 175.506 384.666 175.478 384.713 175.422C384.769 175.366 384.797 175.254 384.797 175.086ZM386.071 172.552V173.476H382.529V172.552H386.071ZM388.33 173.322H387.07V170.914C387.07 170.503 387.173 170.195 387.378 169.99C387.583 169.775 387.901 169.668 388.33 169.668H388.834C389.114 169.668 389.338 169.743 389.506 169.892C389.674 170.041 389.758 170.284 389.758 170.62V171.558H389.702V171.18C389.702 171.003 389.665 170.877 389.59 170.802C389.515 170.727 389.399 170.69 389.24 170.69H388.75C388.582 170.69 388.47 170.718 388.414 170.774C388.358 170.821 388.33 170.928 388.33 171.096V173.322ZM390.962 176.5H389.702V170.648V170.55V169.668H390.962V176.5ZM387.07 172.846H388.33V175.072C388.33 175.231 388.358 175.338 388.414 175.394C388.47 175.45 388.582 175.478 388.75 175.478H389.24C389.399 175.478 389.515 175.445 389.59 175.38C389.665 175.305 389.702 175.175 389.702 174.988V174.624H389.758V175.548C389.758 175.884 389.674 176.127 389.506 176.276C389.338 176.425 389.114 176.5 388.834 176.5H388.33C387.901 176.5 387.583 176.397 387.378 176.192C387.173 175.977 387.07 175.669 387.07 175.268V172.846ZM393.375 173.308H392.115V170.9C392.115 170.489 392.218 170.181 392.423 169.976C392.628 169.761 392.946 169.654 393.375 169.654H393.879C394.159 169.654 394.383 169.729 394.551 169.878C394.719 170.027 394.803 170.27 394.803 170.606V171.614H394.747V171.166C394.747 170.989 394.71 170.863 394.635 170.788C394.56 170.713 394.444 170.676 394.285 170.676H393.795C393.627 170.676 393.515 170.704 393.459 170.76C393.403 170.807 393.375 170.914 393.375 171.082V173.308ZM394.747 167.134H396.007V176.5H394.747V175.632V175.562V167.134ZM392.115 172.846H393.375V175.072C393.375 175.231 393.403 175.338 393.459 175.394C393.515 175.45 393.627 175.478 393.795 175.478H394.285C394.444 175.478 394.56 175.445 394.635 175.38C394.71 175.305 394.747 175.175 394.747 174.988V174.666H394.803V175.548C394.803 175.884 394.719 176.127 394.551 176.276C394.383 176.425 394.159 176.5 393.879 176.5H393.375C392.946 176.5 392.628 176.397 392.423 176.192C392.218 175.977 392.115 175.669 392.115 175.268V172.846ZM396.74 169.668H398.028L399.064 175.394L400.03 169.668H401.304L399.862 177.158C399.769 177.569 399.591 177.881 399.33 178.096C399.078 178.32 398.719 178.432 398.252 178.432H397.412V177.424H397.986C398.182 177.424 398.341 177.391 398.462 177.326C398.593 177.27 398.677 177.149 398.714 176.962L398.854 176.388H398.168L396.74 169.668ZM405.467 168.604V176.5H404.207V168.366C404.207 167.965 404.309 167.661 404.515 167.456C404.729 167.241 405.061 167.134 405.509 167.134H406.475V168.198H405.887C405.719 168.198 405.607 168.226 405.551 168.282C405.495 168.329 405.467 168.436 405.467 168.604ZM406.475 169.668V170.69H403.521V169.668H406.475ZM409.928 174.26V171.082C409.928 170.905 409.9 170.793 409.844 170.746C409.797 170.69 409.685 170.662 409.508 170.662H409.088V169.668H409.872C410.329 169.668 410.661 169.775 410.866 169.99C411.071 170.195 411.174 170.503 411.174 170.914V174.26H409.928ZM409.928 175.086V173.672H411.174V175.268C411.174 175.669 411.071 175.977 410.866 176.192C410.661 176.397 410.329 176.5 409.872 176.5H409.018V175.506H409.508C409.685 175.506 409.797 175.478 409.844 175.422C409.9 175.366 409.928 175.254 409.928 175.086ZM408.332 171.082V174.274H407.086V170.914C407.086 170.503 407.189 170.195 407.394 169.99C407.599 169.775 407.926 169.668 408.374 169.668H409.172V170.662H408.752C408.584 170.662 408.472 170.69 408.416 170.746C408.36 170.793 408.332 170.905 408.332 171.082ZM408.332 173.588V175.086C408.332 175.254 408.36 175.366 408.416 175.422C408.472 175.478 408.584 175.506 408.752 175.506H409.13V176.5H408.374C407.926 176.5 407.599 176.397 407.394 176.192C407.189 175.977 407.086 175.669 407.086 175.268V173.588H408.332ZM414.984 169.654V170.76H414.48C413.892 170.76 413.598 171.101 413.598 171.782V172.076H413.542V170.886C413.542 170.69 413.584 170.499 413.668 170.312C413.761 170.116 413.892 169.957 414.06 169.836C414.237 169.715 414.452 169.654 414.704 169.654H414.984ZM413.598 176.5H412.338V169.668H413.598V170.942V176.5ZM417.193 169.668H418.481L419.517 175.394L420.483 169.668H421.757L420.315 177.158C420.222 177.569 420.044 177.881 419.783 178.096C419.531 178.32 419.172 178.432 418.705 178.432H417.865V177.424H418.439C418.635 177.424 418.794 177.391 418.915 177.326C419.046 177.27 419.13 177.149 419.167 176.962L419.307 176.388H418.621L417.193 169.668ZM425.254 174.26V171.082C425.254 170.905 425.226 170.793 425.17 170.746C425.124 170.69 425.012 170.662 424.834 170.662H424.414V169.668H425.198C425.656 169.668 425.987 169.775 426.192 169.99C426.398 170.195 426.5 170.503 426.5 170.914V174.26H425.254ZM425.254 175.086V173.672H426.5V175.268C426.5 175.669 426.398 175.977 426.192 176.192C425.987 176.397 425.656 176.5 425.198 176.5H424.344V175.506H424.834C425.012 175.506 425.124 175.478 425.17 175.422C425.226 175.366 425.254 175.254 425.254 175.086ZM423.658 171.082V174.274H422.412V170.914C422.412 170.503 422.515 170.195 422.72 169.99C422.926 169.775 423.252 169.668 423.7 169.668H424.498V170.662H424.078C423.91 170.662 423.798 170.69 423.742 170.746C423.686 170.793 423.658 170.905 423.658 171.082ZM423.658 173.588V175.086C423.658 175.254 423.686 175.366 423.742 175.422C423.798 175.478 423.91 175.506 424.078 175.506H424.456V176.5H423.7C423.252 176.5 422.926 176.397 422.72 176.192C422.515 175.977 422.412 175.669 422.412 175.268V173.588H423.658ZM427.65 169.668H428.91V175.072C428.91 175.231 428.938 175.338 428.994 175.394C429.05 175.45 429.162 175.478 429.33 175.478H429.82C429.979 175.478 430.095 175.445 430.17 175.38C430.245 175.305 430.282 175.175 430.282 174.988V174.54H430.338V175.548C430.338 175.884 430.254 176.127 430.086 176.276C429.918 176.425 429.694 176.5 429.414 176.5H428.91C428.481 176.5 428.163 176.397 427.958 176.192C427.753 175.977 427.65 175.669 427.65 175.268V169.668ZM430.282 169.668H431.542V176.5H430.282V175.646V175.562V169.668ZM435.423 169.654V170.76H434.919C434.331 170.76 434.037 171.101 434.037 171.782V172.076H433.981V170.886C433.981 170.69 434.023 170.499 434.107 170.312C434.2 170.116 434.331 169.957 434.499 169.836C434.676 169.715 434.891 169.654 435.143 169.654H435.423ZM434.037 176.5H432.777V169.668H434.037V170.942V176.5ZM440.783 169.654V170.76H440.279C439.691 170.76 439.397 171.101 439.397 171.782V172.076H439.341V170.886C439.341 170.69 439.383 170.499 439.467 170.312C439.56 170.116 439.691 169.957 439.859 169.836C440.036 169.715 440.251 169.654 440.503 169.654H440.783ZM439.397 176.5H438.137V169.668H439.397V170.942V176.5ZM442.676 171.068V175.1C442.676 175.259 442.704 175.366 442.76 175.422C442.816 175.478 442.928 175.506 443.096 175.506H443.446V176.5H442.746C442.298 176.5 441.967 176.397 441.752 176.192C441.547 175.977 441.444 175.669 441.444 175.268V170.914C441.444 170.503 441.547 170.195 441.752 169.99C441.967 169.775 442.298 169.668 442.746 169.668H443.516V170.662H443.096C442.928 170.662 442.816 170.69 442.76 170.746C442.704 170.793 442.676 170.9 442.676 171.068ZM444.188 173.294V171.068C444.188 170.9 444.16 170.793 444.104 170.746C444.058 170.69 443.95 170.662 443.782 170.662H443.334V169.668H444.118C444.576 169.668 444.907 169.775 445.112 169.99C445.327 170.195 445.434 170.503 445.434 170.914V173.294H444.188ZM444.16 175.086V174.526H445.392V175.268C445.392 175.669 445.29 175.977 445.084 176.192C444.879 176.397 444.548 176.5 444.09 176.5H443.334V175.506H443.74C443.918 175.506 444.03 175.478 444.076 175.422C444.132 175.366 444.16 175.254 444.16 175.086ZM445.434 172.552V173.476H441.892V172.552H445.434ZM448.799 175.128V173.994C448.799 173.826 448.771 173.719 448.715 173.672C448.669 173.616 448.557 173.588 448.379 173.588H447.665C447.208 173.588 446.877 173.485 446.671 173.28C446.466 173.065 446.363 172.757 446.363 172.356V170.914C446.363 170.503 446.466 170.195 446.671 169.99C446.886 169.775 447.217 169.668 447.665 169.668H448.687C449.145 169.668 449.476 169.775 449.681 169.99C449.896 170.195 450.003 170.503 450.003 170.914V171.572H448.771V171.04C448.771 170.872 448.743 170.765 448.687 170.718C448.641 170.662 448.529 170.634 448.351 170.634H448.015C447.847 170.634 447.735 170.662 447.679 170.718C447.623 170.765 447.595 170.872 447.595 171.04V172.216C447.595 172.384 447.623 172.496 447.679 172.552C447.735 172.599 447.847 172.622 448.015 172.622H448.743C449.191 172.622 449.518 172.729 449.723 172.944C449.929 173.149 450.031 173.457 450.031 173.868V175.268C450.031 175.669 449.924 175.977 449.709 176.192C449.504 176.397 449.177 176.5 448.729 176.5H447.693C447.245 176.5 446.914 176.397 446.699 176.192C446.494 175.977 446.391 175.669 446.391 175.268V174.596H447.637V175.128C447.637 175.287 447.665 175.394 447.721 175.45C447.777 175.506 447.885 175.534 448.043 175.534H448.379C448.557 175.534 448.669 175.506 448.715 175.45C448.771 175.394 448.799 175.287 448.799 175.128ZM455.003 173.322H453.743V171.096C453.743 170.928 453.715 170.821 453.659 170.774C453.603 170.718 453.491 170.69 453.323 170.69H452.833C452.674 170.69 452.558 170.727 452.483 170.802C452.408 170.877 452.371 171.003 452.371 171.18V171.628H452.315V170.62C452.315 170.284 452.399 170.041 452.567 169.892C452.735 169.743 452.959 169.668 453.239 169.668H453.743C454.172 169.668 454.49 169.775 454.695 169.99C454.9 170.195 455.003 170.503 455.003 170.914V173.322ZM452.371 178.432H451.111V169.668H452.371V170.48V170.62V178.432ZM453.743 172.846H455.003V175.268C455.003 175.669 454.9 175.977 454.695 176.192C454.49 176.397 454.172 176.5 453.743 176.5H453.239C452.959 176.5 452.735 176.425 452.567 176.276C452.399 176.127 452.315 175.884 452.315 175.548V174.666H452.371V174.988C452.371 175.175 452.408 175.305 452.483 175.38C452.558 175.445 452.674 175.478 452.833 175.478H453.323C453.491 175.478 453.603 175.45 453.659 175.394C453.715 175.338 453.743 175.231 453.743 175.072V172.846ZM458.928 174.26V171.082C458.928 170.905 458.9 170.793 458.844 170.746C458.797 170.69 458.685 170.662 458.508 170.662H458.088V169.668H458.872C459.329 169.668 459.661 169.775 459.866 169.99C460.071 170.195 460.174 170.503 460.174 170.914V174.26H458.928ZM458.928 175.086V173.672H460.174V175.268C460.174 175.669 460.071 175.977 459.866 176.192C459.661 176.397 459.329 176.5 458.872 176.5H458.018V175.506H458.508C458.685 175.506 458.797 175.478 458.844 175.422C458.9 175.366 458.928 175.254 458.928 175.086ZM457.332 171.082V174.274H456.086V170.914C456.086 170.503 456.189 170.195 456.394 169.99C456.599 169.775 456.926 169.668 457.374 169.668H458.172V170.662H457.752C457.584 170.662 457.472 170.69 457.416 170.746C457.36 170.793 457.332 170.905 457.332 171.082ZM457.332 173.588V175.086C457.332 175.254 457.36 175.366 457.416 175.422C457.472 175.478 457.584 175.506 457.752 175.506H458.13V176.5H457.374C456.926 176.5 456.599 176.397 456.394 176.192C456.189 175.977 456.086 175.669 456.086 175.268V173.588H457.332ZM462.598 176.5H461.338V169.668H462.598V170.522V170.606V176.5ZM465.23 176.5H463.97V171.096C463.97 170.928 463.942 170.821 463.886 170.774C463.83 170.718 463.718 170.69 463.55 170.69H463.06C462.901 170.69 462.784 170.727 462.71 170.802C462.635 170.877 462.598 171.003 462.598 171.18V171.628H462.542V170.62C462.542 170.284 462.626 170.041 462.794 169.892C462.962 169.743 463.186 169.668 463.466 169.668H463.97C464.399 169.668 464.716 169.775 464.922 169.99C465.127 170.195 465.23 170.503 465.23 170.914V176.5ZM468.733 175.128V173.994C468.733 173.826 468.705 173.719 468.649 173.672C468.602 173.616 468.49 173.588 468.313 173.588H467.599C467.142 173.588 466.81 173.485 466.605 173.28C466.4 173.065 466.297 172.757 466.297 172.356V170.914C466.297 170.503 466.4 170.195 466.605 169.99C466.82 169.775 467.151 169.668 467.599 169.668H468.621C469.078 169.668 469.41 169.775 469.615 169.99C469.83 170.195 469.937 170.503 469.937 170.914V171.572H468.705V171.04C468.705 170.872 468.677 170.765 468.621 170.718C468.574 170.662 468.462 170.634 468.285 170.634H467.949C467.781 170.634 467.669 170.662 467.613 170.718C467.557 170.765 467.529 170.872 467.529 171.04V172.216C467.529 172.384 467.557 172.496 467.613 172.552C467.669 172.599 467.781 172.622 467.949 172.622H468.677C469.125 172.622 469.452 172.729 469.657 172.944C469.862 173.149 469.965 173.457 469.965 173.868V175.268C469.965 175.669 469.858 175.977 469.643 176.192C469.438 176.397 469.111 176.5 468.663 176.5H467.627C467.179 176.5 466.848 176.397 466.633 176.192C466.428 175.977 466.325 175.669 466.325 175.268V174.596H467.571V175.128C467.571 175.287 467.599 175.394 467.655 175.45C467.711 175.506 467.818 175.534 467.977 175.534H468.313C468.49 175.534 468.602 175.506 468.649 175.45C468.705 175.394 468.733 175.287 468.733 175.128ZM472.249 171.068V175.1C472.249 175.259 472.277 175.366 472.333 175.422C472.389 175.478 472.501 175.506 472.669 175.506H473.019V176.5H472.319C471.871 176.5 471.539 176.397 471.325 176.192C471.119 175.977 471.017 175.669 471.017 175.268V170.914C471.017 170.503 471.119 170.195 471.325 169.99C471.539 169.775 471.871 169.668 472.319 169.668H473.089V170.662H472.669C472.501 170.662 472.389 170.69 472.333 170.746C472.277 170.793 472.249 170.9 472.249 171.068ZM473.761 173.294V171.068C473.761 170.9 473.733 170.793 473.677 170.746C473.63 170.69 473.523 170.662 473.355 170.662H472.907V169.668H473.691C474.148 169.668 474.479 169.775 474.685 169.99C474.899 170.195 475.007 170.503 475.007 170.914V173.294H473.761ZM473.733 175.086V174.526H474.965V175.268C474.965 175.669 474.862 175.977 474.657 176.192C474.451 176.397 474.12 176.5 473.663 176.5H472.907V175.506H473.313C473.49 175.506 473.602 175.478 473.649 175.422C473.705 175.366 473.733 175.254 473.733 175.086ZM475.007 172.552V173.476H471.465V172.552H475.007Z" fill="#DEDEDE"/>
<path d="M134.5 328C132.575 328 130.928 327.315 129.558 325.945C128.188 324.576 127.502 322.927 127.5 321V279C127.5 277.075 128.186 275.428 129.558 274.058C130.93 272.688 132.577 272.002 134.5 272H190.5C192.425 272 194.073 272.686 195.445 274.058C196.817 275.43 197.502 277.077 197.5 279V321C197.5 322.925 196.815 324.573 195.445 325.945C194.076 327.317 192.427 328.002 190.5 328H134.5ZM162.5 303.5L134.5 286V321H190.5V286L162.5 303.5ZM162.5 296.5L190.5 279H134.5L162.5 296.5ZM134.5 286V279V321V286Z" fill="#DEDEDE"/>
<path d="M147.464 369.28H145.824L144.104 362.86V372H142.524V359.48H144.504L146.644 367.24L148.784 359.48H150.764V372H149.184V362.84L147.464 369.28ZM154.357 367.46H152.557V364.02C152.557 363.433 152.704 362.993 152.997 362.7C153.29 362.393 153.744 362.24 154.357 362.24H155.077C155.477 362.24 155.797 362.347 156.037 362.56C156.277 362.773 156.397 363.12 156.397 363.6V364.94H156.317V364.4C156.317 364.147 156.264 363.967 156.157 363.86C156.05 363.753 155.884 363.7 155.657 363.7H154.957C154.717 363.7 154.557 363.74 154.477 363.82C154.397 363.887 154.357 364.04 154.357 364.28V367.46ZM158.117 372H156.317V363.64V363.5V362.24H158.117V372ZM152.557 366.78H154.357V369.96C154.357 370.187 154.397 370.34 154.477 370.42C154.557 370.5 154.717 370.54 154.957 370.54H155.657C155.884 370.54 156.05 370.493 156.157 370.4C156.264 370.293 156.317 370.107 156.317 369.84V369.32H156.397V370.64C156.397 371.12 156.277 371.467 156.037 371.68C155.797 371.893 155.477 372 155.077 372H154.357C153.744 372 153.29 371.853 152.997 371.56C152.704 371.253 152.557 370.813 152.557 370.24V366.78ZM161.684 372H159.884V362.24H161.684V372ZM159.844 360.38V358.6H161.724V360.38H159.844ZM165.239 372H163.439V358.62H165.239V372ZM174.144 369.96V359.48H175.964V370.24C175.964 370.813 175.811 371.253 175.504 371.56C175.211 371.853 174.737 372 174.084 372H172.764V370.54H173.564C173.804 370.54 173.957 370.5 174.024 370.42C174.104 370.34 174.144 370.187 174.144 369.96ZM171.804 359.48V369.96C171.804 370.187 171.844 370.34 171.924 370.42C172.004 370.5 172.164 370.54 172.404 370.54H173.024V372H171.864C171.211 372 170.731 371.853 170.424 371.56C170.131 371.253 169.984 370.813 169.984 370.24V359.48H171.804ZM181.093 370.04V368.42C181.093 368.18 181.053 368.027 180.973 367.96C180.906 367.88 180.746 367.84 180.493 367.84H179.473C178.82 367.84 178.346 367.693 178.053 367.4C177.76 367.093 177.613 366.653 177.613 366.08V364.02C177.613 363.433 177.76 362.993 178.053 362.7C178.36 362.393 178.833 362.24 179.473 362.24H180.933C181.586 362.24 182.06 362.393 182.353 362.7C182.66 362.993 182.813 363.433 182.813 364.02V364.96H181.053V364.2C181.053 363.96 181.013 363.807 180.933 363.74C180.866 363.66 180.706 363.62 180.453 363.62H179.973C179.733 363.62 179.573 363.66 179.493 363.74C179.413 363.807 179.373 363.96 179.373 364.2V365.88C179.373 366.12 179.413 366.28 179.493 366.36C179.573 366.427 179.733 366.46 179.973 366.46H181.013C181.653 366.46 182.12 366.613 182.413 366.92C182.706 367.213 182.853 367.653 182.853 368.24V370.24C182.853 370.813 182.7 371.253 182.393 371.56C182.1 371.853 181.633 372 180.993 372H179.513C178.873 372 178.4 371.853 178.093 371.56C177.8 371.253 177.653 370.813 177.653 370.24V369.28H179.433V370.04C179.433 370.267 179.473 370.42 179.553 370.5C179.633 370.58 179.786 370.62 180.013 370.62H180.493C180.746 370.62 180.906 370.58 180.973 370.5C181.053 370.42 181.093 370.267 181.093 370.04Z" fill="#DEDEDE"/>
<path d="M113.113 398.572V391.236H114.387V398.768C114.387 399.169 114.279 399.477 114.065 399.692C113.859 399.897 113.528 400 113.071 400H112.147V398.978H112.707C112.875 398.978 112.982 398.95 113.029 398.894C113.085 398.838 113.113 398.731 113.113 398.572ZM111.475 391.236V398.572C111.475 398.731 111.503 398.838 111.559 398.894C111.615 398.95 111.727 398.978 111.895 398.978H112.329V400H111.517C111.059 400 110.723 399.897 110.509 399.692C110.303 399.477 110.201 399.169 110.201 398.768V391.236H111.475ZM118.341 393.154V394.26H117.837C117.249 394.26 116.955 394.601 116.955 395.282V395.576H116.899V394.386C116.899 394.19 116.941 393.999 117.025 393.812C117.118 393.616 117.249 393.457 117.417 393.336C117.594 393.215 117.809 393.154 118.061 393.154H118.341ZM116.955 400H115.695V393.168H116.955V394.442V400ZM121.663 396.346H122.923V398.768C122.923 399.169 122.82 399.477 122.615 399.692C122.41 399.897 122.092 400 121.663 400H121.159C120.879 400 120.655 399.925 120.487 399.776C120.319 399.627 120.235 399.384 120.235 399.048V398.166H120.291V398.488C120.291 398.675 120.328 398.805 120.403 398.88C120.478 398.945 120.594 398.978 120.753 398.978H121.243C121.411 398.978 121.523 398.95 121.579 398.894C121.635 398.838 121.663 398.731 121.663 398.572V396.346ZM122.923 396.808H121.663V394.582C121.663 394.414 121.635 394.307 121.579 394.26C121.523 394.204 121.411 394.176 121.243 394.176H120.753C120.594 394.176 120.478 394.213 120.403 394.288C120.328 394.363 120.291 394.489 120.291 394.666V395.114H120.235V394.106C120.235 393.77 120.319 393.527 120.487 393.378C120.655 393.229 120.879 393.154 121.159 393.154H121.663C122.092 393.154 122.41 393.261 122.615 393.476C122.82 393.681 122.923 393.989 122.923 394.4V396.808ZM119.031 390.634H120.291V399.062V399.132V400H119.031V390.634ZM125.252 396.822H123.992V394.414C123.992 394.003 124.095 393.695 124.3 393.49C124.505 393.275 124.823 393.168 125.252 393.168H125.756C126.036 393.168 126.26 393.243 126.428 393.392C126.596 393.541 126.68 393.784 126.68 394.12V395.058H126.624V394.68C126.624 394.503 126.587 394.377 126.512 394.302C126.437 394.227 126.321 394.19 126.162 394.19H125.672C125.504 394.19 125.392 394.218 125.336 394.274C125.28 394.321 125.252 394.428 125.252 394.596V396.822ZM127.884 400H126.624V394.148V394.05V393.168H127.884V400ZM123.992 396.346H125.252V398.572C125.252 398.731 125.28 398.838 125.336 398.894C125.392 398.95 125.504 398.978 125.672 398.978H126.162C126.321 398.978 126.437 398.945 126.512 398.88C126.587 398.805 126.624 398.675 126.624 398.488V398.124H126.68V399.048C126.68 399.384 126.596 399.627 126.428 399.776C126.26 399.925 126.036 400 125.756 400H125.252C124.823 400 124.505 399.897 124.3 399.692C124.095 399.477 123.992 399.169 123.992 398.768V396.346ZM130.381 400H129.121V393.168H130.381V394.022V394.106V400ZM133.013 400H131.753V394.596C131.753 394.428 131.725 394.321 131.669 394.274C131.613 394.218 131.501 394.19 131.333 394.19H130.843C130.684 394.19 130.568 394.227 130.493 394.302C130.418 394.377 130.381 394.503 130.381 394.68V395.128H130.325V394.12C130.325 393.784 130.409 393.541 130.577 393.392C130.745 393.243 130.969 393.168 131.249 393.168H131.753C132.182 393.168 132.5 393.275 132.705 393.49C132.91 393.695 133.013 394.003 133.013 394.414V400ZM137.258 395.044V392.664C137.258 392.496 137.23 392.389 137.174 392.342C137.127 392.286 137.015 392.258 136.838 392.258H134.514V391.236H137.216C137.673 391.236 138.005 391.343 138.21 391.558C138.425 391.763 138.532 392.067 138.532 392.468V395.212C138.532 395.623 138.425 395.935 138.21 396.15C138.005 396.355 137.673 396.458 137.216 396.458H134.962V395.45H136.838C137.015 395.45 137.127 395.422 137.174 395.366C137.23 395.31 137.258 395.203 137.258 395.044ZM134.346 391.236H135.606V400H134.346V391.236ZM136.11 395.954H137.398L138.98 400H137.608L136.11 395.954ZM139.771 393.168H141.031V398.572C141.031 398.731 141.059 398.838 141.115 398.894C141.171 398.95 141.283 398.978 141.451 398.978H141.941C142.1 398.978 142.216 398.945 142.291 398.88C142.366 398.805 142.403 398.675 142.403 398.488V398.04H142.459V399.048C142.459 399.384 142.375 399.627 142.207 399.776C142.039 399.925 141.815 400 141.535 400H141.031C140.602 400 140.284 399.897 140.079 399.692C139.874 399.477 139.771 399.169 139.771 398.768V393.168ZM142.403 393.168H143.663V400H142.403V399.146V399.062V393.168ZM146.158 400H144.898V393.168H146.158V394.022V394.106V400ZM148.79 400H147.53V394.596C147.53 394.428 147.502 394.321 147.446 394.274C147.39 394.218 147.278 394.19 147.11 394.19H146.62C146.462 394.19 146.345 394.227 146.27 394.302C146.196 394.377 146.158 394.503 146.158 394.68V395.128H146.102V394.12C146.102 393.784 146.186 393.541 146.354 393.392C146.522 393.243 146.746 393.168 147.026 393.168H147.53C147.96 393.168 148.277 393.275 148.482 393.49C148.688 393.695 148.79 394.003 148.79 394.414V400ZM151.272 400H150.012V393.168H151.272V394.022V394.106V400ZM153.904 400H152.644V394.596C152.644 394.428 152.616 394.321 152.56 394.274C152.504 394.218 152.392 394.19 152.224 394.19H151.734C151.575 394.19 151.458 394.227 151.384 394.302C151.309 394.377 151.272 394.503 151.272 394.68V395.128H151.216V394.12C151.216 393.784 151.3 393.541 151.468 393.392C151.636 393.243 151.86 393.168 152.14 393.168H152.644C153.073 393.168 153.39 393.275 153.596 393.49C153.801 393.695 153.904 394.003 153.904 394.414V400ZM156.329 394.568V398.6C156.329 398.759 156.357 398.866 156.413 398.922C156.469 398.978 156.581 399.006 156.749 399.006H157.099V400H156.399C155.951 400 155.619 399.897 155.405 399.692C155.199 399.477 155.097 399.169 155.097 398.768V394.414C155.097 394.003 155.199 393.695 155.405 393.49C155.619 393.275 155.951 393.168 156.399 393.168H157.169V394.162H156.749C156.581 394.162 156.469 394.19 156.413 394.246C156.357 394.293 156.329 394.4 156.329 394.568ZM157.841 396.794V394.568C157.841 394.4 157.813 394.293 157.757 394.246C157.71 394.19 157.603 394.162 157.435 394.162H156.987V393.168H157.771C158.228 393.168 158.559 393.275 158.765 393.49C158.979 393.695 159.087 394.003 159.087 394.414V396.794H157.841ZM157.813 398.586V398.026H159.045V398.768C159.045 399.169 158.942 399.477 158.737 399.692C158.531 399.897 158.2 400 157.743 400H156.987V399.006H157.393C157.57 399.006 157.682 398.978 157.729 398.922C157.785 398.866 157.813 398.754 157.813 398.586ZM159.087 396.052V396.976H155.545V396.052H159.087ZM162.816 393.154V394.26H162.312C161.724 394.26 161.43 394.601 161.43 395.282V395.576H161.374V394.386C161.374 394.19 161.416 393.999 161.5 393.812C161.593 393.616 161.724 393.457 161.892 393.336C162.069 393.215 162.284 393.154 162.536 393.154H162.816ZM161.43 400H160.17V393.168H161.43V394.442V400ZM166.152 395.198C166.152 394.806 166.25 394.507 166.446 394.302C166.651 394.097 166.964 393.994 167.384 393.994H167.762C167.976 393.994 168.154 394.041 168.294 394.134C168.443 394.218 168.55 394.353 168.616 394.54V393.994H169.764V397.914H170.38C170.557 397.914 170.669 397.886 170.716 397.83C170.772 397.774 170.8 397.667 170.8 397.508V393.378C170.8 393.21 170.772 393.098 170.716 393.042C170.669 392.986 170.557 392.958 170.38 392.958H165.564C165.405 392.958 165.298 392.986 165.242 393.042C165.186 393.098 165.158 393.21 165.158 393.378V399.566C165.158 399.725 165.186 399.832 165.242 399.888C165.298 399.944 165.405 399.972 165.564 399.972H169.778V400.98H165.214C164.775 400.98 164.453 400.873 164.248 400.658C164.052 400.453 163.954 400.149 163.954 399.748V393.182C163.954 392.781 164.052 392.477 164.248 392.272C164.453 392.057 164.775 391.95 165.214 391.95H170.73C171.159 391.95 171.476 392.057 171.682 392.272C171.887 392.477 171.99 392.781 171.99 393.182V397.634C171.99 398.035 171.887 398.343 171.682 398.558C171.476 398.763 171.154 398.866 170.716 398.866H168.686V398.152C168.658 398.404 168.555 398.586 168.378 398.698C168.21 398.81 168.004 398.866 167.762 398.866H167.384C166.964 398.866 166.651 398.763 166.446 398.558C166.25 398.353 166.152 398.054 166.152 397.662V395.198ZM167.342 395.352V397.508C167.342 397.667 167.37 397.774 167.426 397.83C167.482 397.886 167.589 397.914 167.748 397.914H168.154C168.312 397.914 168.424 397.877 168.49 397.802C168.564 397.727 168.602 397.601 168.602 397.424V395.436C168.602 395.259 168.564 395.137 168.49 395.072C168.424 394.997 168.312 394.96 168.154 394.96H167.748C167.589 394.96 167.482 394.983 167.426 395.03C167.37 395.077 167.342 395.184 167.342 395.352ZM173.17 396.346H174.43V398.488C174.43 398.647 174.458 398.754 174.514 398.81C174.57 398.866 174.682 398.894 174.85 398.894H175.34C175.498 398.894 175.615 398.857 175.69 398.782C175.764 398.707 175.802 398.581 175.802 398.404V398.068L175.858 398.082V398.964C175.858 399.3 175.774 399.543 175.606 399.692C175.438 399.841 175.214 399.916 174.934 399.916H174.43C174 399.916 173.683 399.813 173.478 399.608C173.272 399.393 173.17 399.081 173.17 398.67V396.346ZM174.43 396.822H173.17V394.414C173.17 394.003 173.272 393.695 173.478 393.49C173.683 393.275 174 393.168 174.43 393.168H174.934C175.214 393.168 175.438 393.243 175.606 393.392C175.774 393.541 175.858 393.784 175.858 394.12V395.128H175.802V394.68C175.802 394.503 175.764 394.377 175.69 394.302C175.615 394.227 175.498 394.19 175.34 394.19H174.85C174.682 394.19 174.57 394.218 174.514 394.274C174.458 394.321 174.43 394.428 174.43 394.596V396.822ZM175.802 400.532V399.762H177.062V400.7C177.062 401.101 176.954 401.405 176.74 401.61C176.534 401.825 176.208 401.932 175.76 401.932H173.408V400.938H175.382C175.55 400.938 175.662 400.91 175.718 400.854C175.774 400.798 175.802 400.691 175.802 400.532ZM177.062 399.93H175.802V394.036V394.008V393.168H177.062V399.93ZM182.191 400H180.931V394.596C180.931 394.428 180.903 394.321 180.847 394.274C180.791 394.218 180.679 394.19 180.511 394.19H180.021C179.862 394.19 179.745 394.227 179.671 394.302C179.596 394.377 179.559 394.503 179.559 394.68V395.128H179.503V394.12C179.503 393.784 179.587 393.541 179.755 393.392C179.923 393.243 180.147 393.168 180.427 393.168H180.931C181.36 393.168 181.677 393.275 181.883 393.49C182.088 393.695 182.191 394.003 182.191 394.414V400ZM179.559 400H178.299V393.168H179.559V394.022V394.106V400ZM184.823 400H183.549V394.596C183.549 394.428 183.521 394.321 183.465 394.274C183.418 394.218 183.311 394.19 183.143 394.19H182.639C182.489 394.19 182.377 394.227 182.303 394.302C182.228 394.377 182.191 394.503 182.191 394.68V395.128H182.079L182.051 394.134C182.041 393.798 182.13 393.555 182.317 393.406C182.513 393.247 182.76 393.168 183.059 393.168H183.549C183.987 393.168 184.309 393.275 184.515 393.49C184.72 393.695 184.823 394.003 184.823 394.414V400ZM187.158 396.822H185.898V394.414C185.898 394.003 186.001 393.695 186.206 393.49C186.412 393.275 186.729 393.168 187.158 393.168H187.662C187.942 393.168 188.166 393.243 188.334 393.392C188.502 393.541 188.586 393.784 188.586 394.12V395.058H188.53V394.68C188.53 394.503 188.493 394.377 188.418 394.302C188.344 394.227 188.227 394.19 188.068 394.19H187.578C187.41 394.19 187.298 394.218 187.242 394.274C187.186 394.321 187.158 394.428 187.158 394.596V396.822ZM189.79 400H188.53V394.148V394.05V393.168H189.79V400ZM185.898 396.346H187.158V398.572C187.158 398.731 187.186 398.838 187.242 398.894C187.298 398.95 187.41 398.978 187.578 398.978H188.068C188.227 398.978 188.344 398.945 188.418 398.88C188.493 398.805 188.53 398.675 188.53 398.488V398.124H188.586V399.048C188.586 399.384 188.502 399.627 188.334 399.776C188.166 399.925 187.942 400 187.662 400H187.158C186.729 400 186.412 399.897 186.206 399.692C186.001 399.477 185.898 399.169 185.898 398.768V396.346ZM192.287 400H191.027V393.168H192.287V400ZM190.999 391.866V390.62H192.315V391.866H190.999ZM194.775 400H193.515V390.634H194.775V400ZM195.836 400V398.278H197.25V400H195.836ZM199.49 394.596V398.572C199.49 398.731 199.518 398.838 199.574 398.894C199.63 398.95 199.742 398.978 199.91 398.978H200.232V400H199.532C199.084 400 198.753 399.897 198.538 399.692C198.333 399.477 198.23 399.169 198.23 398.768V394.414C198.23 394.003 198.333 393.695 198.538 393.49C198.753 393.275 199.084 393.168 199.532 393.168H200.302V394.19H199.91C199.742 394.19 199.63 394.218 199.574 394.274C199.518 394.321 199.49 394.428 199.49 394.596ZM200.932 395.324V394.596C200.932 394.428 200.904 394.321 200.848 394.274C200.792 394.218 200.68 394.19 200.512 394.19H200.106V393.168H200.862C201.32 393.168 201.651 393.275 201.856 393.49C202.071 393.695 202.178 394.003 202.178 394.414V395.324H200.932ZM200.932 398.572V397.844H202.178V398.768C202.178 399.169 202.071 399.477 201.856 399.692C201.651 399.897 201.32 400 200.862 400H200.106V398.978H200.512C200.68 398.978 200.792 398.95 200.848 398.894C200.904 398.838 200.932 398.731 200.932 398.572ZM206.008 397.76V394.582C206.008 394.405 205.98 394.293 205.924 394.246C205.877 394.19 205.765 394.162 205.588 394.162H205.168V393.168H205.952C206.409 393.168 206.741 393.275 206.946 393.49C207.151 393.695 207.254 394.003 207.254 394.414V397.76H206.008ZM206.008 398.586V397.172H207.254V398.768C207.254 399.169 207.151 399.477 206.946 399.692C206.741 399.897 206.409 400 205.952 400H205.098V399.006H205.588C205.765 399.006 205.877 398.978 205.924 398.922C205.98 398.866 206.008 398.754 206.008 398.586ZM204.412 394.582V397.774H203.166V394.414C203.166 394.003 203.269 393.695 203.474 393.49C203.679 393.275 204.006 393.168 204.454 393.168H205.252V394.162H204.832C204.664 394.162 204.552 394.19 204.496 394.246C204.44 394.293 204.412 394.405 204.412 394.582ZM204.412 397.088V398.586C204.412 398.754 204.44 398.866 204.496 398.922C204.552 398.978 204.664 399.006 204.832 399.006H205.21V400H204.454C204.006 400 203.679 399.897 203.474 399.692C203.269 399.477 203.166 399.169 203.166 398.768V397.088H204.412ZM212.31 400H211.05V394.596C211.05 394.428 211.022 394.321 210.966 394.274C210.91 394.218 210.798 394.19 210.63 394.19H210.14C209.981 394.19 209.864 394.227 209.79 394.302C209.715 394.377 209.678 394.503 209.678 394.68V395.128H209.622V394.12C209.622 393.784 209.706 393.541 209.874 393.392C210.042 393.243 210.266 393.168 210.546 393.168H211.05C211.479 393.168 211.796 393.275 212.002 393.49C212.207 393.695 212.31 394.003 212.31 394.414V400ZM209.678 400H208.418V393.168H209.678V394.022V394.106V400ZM214.942 400H213.668V394.596C213.668 394.428 213.64 394.321 213.584 394.274C213.537 394.218 213.43 394.19 213.262 394.19H212.758C212.608 394.19 212.496 394.227 212.422 394.302C212.347 394.377 212.31 394.503 212.31 394.68V395.128H212.198L212.17 394.134C212.16 393.798 212.249 393.555 212.436 393.406C212.632 393.247 212.879 393.168 213.178 393.168H213.668C214.106 393.168 214.428 393.275 214.634 393.49C214.839 393.695 214.942 394.003 214.942 394.414V400Z" fill="#DEDEDE"/>
<path d="M395.5 260.5C404.783 260.5 413.685 264.187 420.249 270.751C426.813 277.315 430.5 286.217 430.5 295.5C430.5 307.454 423.982 317.239 417.114 324.258C413.683 327.727 409.939 330.873 405.93 333.654L404.273 334.782L403.496 335.299L402.029 336.232L400.723 337.029L399.105 337.971C398.007 338.597 396.764 338.927 395.5 338.927C394.236 338.927 392.993 338.597 391.895 337.971L390.277 337.029L388.255 335.785L387.508 335.299L385.914 334.237C381.589 331.311 377.56 327.969 373.886 324.258C367.018 317.235 360.5 307.454 360.5 295.5C360.5 286.217 364.187 277.315 370.751 270.751C377.315 264.187 386.217 260.5 395.5 260.5ZM395.5 283.833C393.968 283.833 392.451 284.135 391.035 284.721C389.62 285.308 388.334 286.167 387.25 287.25C386.167 288.334 385.308 289.62 384.721 291.035C384.135 292.451 383.833 293.968 383.833 295.5C383.833 297.032 384.135 298.549 384.721 299.965C385.308 301.38 386.167 302.666 387.25 303.75C388.334 304.833 389.62 305.692 391.035 306.279C392.451 306.865 393.968 307.167 395.5 307.167C398.594 307.167 401.562 305.938 403.75 303.75C405.938 301.562 407.167 298.594 407.167 295.5C407.167 292.406 405.938 289.438 403.75 287.25C401.562 285.062 398.594 283.833 395.5 283.833Z" fill="#DEDEDE"/>
<path d="M372.163 379.127V372.447C372.163 372.207 372.123 372.054 372.043 371.987C371.976 371.907 371.816 371.867 371.563 371.867H370.903V370.407H372.103C372.756 370.407 373.229 370.56 373.523 370.867C373.829 371.16 373.983 371.594 373.983 372.167V379.127H372.163ZM372.163 380.887V378.287H373.983V381.167C373.983 381.74 373.829 382.18 373.523 382.487C373.229 382.78 372.756 382.927 372.103 382.927H370.783V381.467H371.563C371.816 381.467 371.976 381.427 372.043 381.347C372.123 381.267 372.163 381.114 372.163 380.887ZM369.823 372.447V379.147H368.003V372.167C368.003 371.594 368.149 371.16 368.443 370.867C368.749 370.56 369.229 370.407 369.883 370.407H371.083V371.867H370.423C370.183 371.867 370.023 371.907 369.943 371.987C369.863 372.054 369.823 372.207 369.823 372.447ZM369.823 378.147V380.887C369.823 381.114 369.863 381.267 369.943 381.347C370.023 381.427 370.183 381.467 370.423 381.467H371.043V382.927H369.883C369.229 382.927 368.749 382.78 368.443 382.487C368.149 382.18 368.003 381.74 368.003 381.167V378.147H369.823ZM375.774 373.167H377.574V380.887C377.574 381.114 377.614 381.267 377.694 381.347C377.774 381.427 377.934 381.467 378.174 381.467H378.874C379.101 381.467 379.267 381.42 379.374 381.327C379.481 381.22 379.534 381.034 379.534 380.767V380.127H379.614V381.567C379.614 382.047 379.494 382.394 379.254 382.607C379.014 382.82 378.694 382.927 378.294 382.927H377.574C376.961 382.927 376.507 382.78 376.214 382.487C375.921 382.18 375.774 381.74 375.774 381.167V373.167ZM379.534 373.167H381.334V382.927H379.534V381.707V381.587V373.167ZM386.879 373.147V374.727H386.159C385.319 374.727 384.899 375.214 384.899 376.187V376.607H384.819V374.907C384.819 374.627 384.879 374.354 384.999 374.087C385.132 373.807 385.319 373.58 385.559 373.407C385.812 373.234 386.119 373.147 386.479 373.147H386.879ZM384.899 382.927H383.099V373.167H384.899V374.987V382.927ZM394.975 379.127V372.447C394.975 372.207 394.935 372.054 394.855 371.987C394.788 371.907 394.628 371.867 394.375 371.867H393.715V370.407H394.915C395.568 370.407 396.042 370.56 396.335 370.867C396.642 371.16 396.795 371.594 396.795 372.167V379.127H394.975ZM394.975 380.887V378.287H396.795V381.167C396.795 381.74 396.642 382.18 396.335 382.487C396.042 382.78 395.568 382.927 394.915 382.927H393.595V381.467H394.375C394.628 381.467 394.788 381.427 394.855 381.347C394.935 381.267 394.975 381.114 394.975 380.887ZM392.635 372.447V379.147H390.815V372.167C390.815 371.594 390.962 371.16 391.255 370.867C391.562 370.56 392.042 370.407 392.695 370.407H393.895V371.867H393.235C392.995 371.867 392.835 371.907 392.755 371.987C392.675 372.054 392.635 372.207 392.635 372.447ZM392.635 378.147V380.887C392.635 381.114 392.675 381.267 392.755 381.347C392.835 381.427 392.995 381.467 393.235 381.467H393.855V382.927H392.695C392.042 382.927 391.562 382.78 391.255 382.487C390.962 382.18 390.815 381.74 390.815 381.167V378.147H392.635ZM400.627 371.647V382.927H398.827V371.307C398.827 370.734 398.973 370.3 399.267 370.007C399.573 369.7 400.047 369.547 400.687 369.547H402.067V371.067H401.227C400.987 371.067 400.827 371.107 400.747 371.187C400.667 371.254 400.627 371.407 400.627 371.647ZM402.067 373.167V374.627H397.847V373.167H402.067ZM408.82 382.927H407.02V373.167H408.82V382.927ZM405.04 371.627V382.927H403.26V371.307C403.26 370.734 403.407 370.3 403.7 370.007C404.007 369.7 404.48 369.547 405.12 369.547H406.04V371.047H405.64C405.4 371.047 405.24 371.087 405.16 371.167C405.08 371.234 405.04 371.387 405.04 371.627ZM408.4 373.167V374.627H402.28V373.167H408.4ZM407.02 371.047V369.547H408.82V371.047H407.02ZM412.259 375.207V380.887C412.259 381.114 412.299 381.267 412.379 381.347C412.459 381.427 412.619 381.467 412.859 381.467H413.319V382.927H412.319C411.679 382.927 411.206 382.78 410.899 382.487C410.606 382.18 410.459 381.74 410.459 381.167V374.947C410.459 374.36 410.606 373.92 410.899 373.627C411.206 373.32 411.679 373.167 412.319 373.167H413.419V374.627H412.859C412.619 374.627 412.459 374.667 412.379 374.747C412.299 374.814 412.259 374.967 412.259 375.207ZM414.319 376.247V375.207C414.319 374.967 414.279 374.814 414.199 374.747C414.119 374.667 413.959 374.627 413.719 374.627H413.139V373.167H414.219C414.873 373.167 415.346 373.32 415.639 373.627C415.946 373.92 416.099 374.36 416.099 374.947V376.247H414.319ZM414.319 380.887V379.847H416.099V381.167C416.099 381.74 415.946 382.18 415.639 382.487C415.346 382.78 414.873 382.927 414.219 382.927H413.139V381.467H413.719C413.959 381.467 414.119 381.427 414.199 381.347C414.279 381.267 414.319 381.114 414.319 380.887ZM419.33 375.167V380.927C419.33 381.154 419.37 381.307 419.45 381.387C419.53 381.467 419.69 381.507 419.93 381.507H420.43V382.927H419.43C418.79 382.927 418.317 382.78 418.01 382.487C417.717 382.18 417.57 381.74 417.57 381.167V374.947C417.57 374.36 417.717 373.92 418.01 373.627C418.317 373.32 418.79 373.167 419.43 373.167H420.53V374.587H419.93C419.69 374.587 419.53 374.627 419.45 374.707C419.37 374.774 419.33 374.927 419.33 375.167ZM421.49 378.347V375.167C421.49 374.927 421.45 374.774 421.37 374.707C421.304 374.627 421.15 374.587 420.91 374.587H420.27V373.167H421.39C422.044 373.167 422.517 373.32 422.81 373.627C423.117 373.92 423.27 374.36 423.27 374.947V378.347H421.49ZM421.45 380.907V380.107H423.21V381.167C423.21 381.74 423.064 382.18 422.77 382.487C422.477 382.78 422.004 382.927 421.35 382.927H420.27V381.507H420.85C421.104 381.507 421.264 381.467 421.33 381.387C421.41 381.307 421.45 381.147 421.45 380.907ZM423.27 377.287V378.607H418.21V377.287H423.27Z" fill="#DEDEDE"/>
<path d="M322.204 402.163H323.464V410.927H322.204V402.163ZM327.902 409.499V402.163H329.176V409.695C329.176 410.096 329.068 410.404 328.854 410.619C328.648 410.824 328.317 410.927 327.86 410.927H326.936V409.905H327.496C327.664 409.905 327.771 409.877 327.818 409.821C327.874 409.765 327.902 409.658 327.902 409.499ZM326.264 402.163V409.499C326.264 409.658 326.292 409.765 326.348 409.821C326.404 409.877 326.516 409.905 326.684 409.905H327.118V410.927H326.306C325.848 410.927 325.512 410.824 325.298 410.619C325.092 410.404 324.99 410.096 324.99 409.695V402.163H326.264ZM334.11 406.055V407.077H331.492V406.055H334.11ZM330.596 402.163H331.87V410.927H330.596V402.163ZM333.718 402.163H334.992V410.927H333.718V402.163ZM336.154 409.205H337.568V410.115L336.602 412.887H336.154V409.205ZM343.89 402.163H345.052V410.927H343.778L341.93 404.613V410.927H340.768V402.163H342.098L343.89 408.309V402.163ZM346.314 407.273H347.574V409.415C347.574 409.574 347.602 409.681 347.658 409.737C347.714 409.793 347.826 409.821 347.994 409.821H348.484C348.643 409.821 348.76 409.784 348.834 409.709C348.909 409.634 348.946 409.508 348.946 409.331V408.995L349.002 409.009V409.891C349.002 410.227 348.918 410.47 348.75 410.619C348.582 410.768 348.358 410.843 348.078 410.843H347.574C347.145 410.843 346.828 410.74 346.622 410.535C346.417 410.32 346.314 410.008 346.314 409.597V407.273ZM347.574 407.749H346.314V405.341C346.314 404.93 346.417 404.622 346.622 404.417C346.828 404.202 347.145 404.095 347.574 404.095H348.078C348.358 404.095 348.582 404.17 348.75 404.319C348.918 404.468 349.002 404.711 349.002 405.047V406.055H348.946V405.607C348.946 405.43 348.909 405.304 348.834 405.229C348.76 405.154 348.643 405.117 348.484 405.117H347.994C347.826 405.117 347.714 405.145 347.658 405.201C347.602 405.248 347.574 405.355 347.574 405.523V407.749ZM348.946 411.459V410.689H350.206V411.627C350.206 412.028 350.099 412.332 349.884 412.537C349.679 412.752 349.352 412.859 348.904 412.859H346.552V411.865H348.526C348.694 411.865 348.806 411.837 348.862 411.781C348.918 411.725 348.946 411.618 348.946 411.459ZM350.206 410.857H348.946V404.963V404.935V404.095H350.206V410.857ZM351.429 404.095H352.689V409.499C352.689 409.658 352.717 409.765 352.773 409.821C352.829 409.877 352.941 409.905 353.109 409.905H353.599C353.758 409.905 353.874 409.872 353.949 409.807C354.024 409.732 354.061 409.602 354.061 409.415V408.967H354.117V409.975C354.117 410.311 354.033 410.554 353.865 410.703C353.697 410.852 353.473 410.927 353.193 410.927H352.689C352.26 410.927 351.942 410.824 351.737 410.619C351.532 410.404 351.429 410.096 351.429 409.695V404.095ZM354.061 404.095H355.321V410.927H354.061V410.073V409.989V404.095ZM356.052 404.095H357.34L358.376 409.821L359.342 404.095H360.616L359.174 411.585C359.081 411.996 358.904 412.308 358.642 412.523C358.39 412.747 358.031 412.859 357.564 412.859H356.724V411.851H357.298C357.494 411.851 357.653 411.818 357.774 411.753C357.905 411.697 357.989 411.576 358.026 411.389L358.166 410.815H357.48L356.052 404.095ZM362.546 405.495V409.527C362.546 409.686 362.574 409.793 362.63 409.849C362.686 409.905 362.798 409.933 362.966 409.933H363.316V410.927H362.616C362.168 410.927 361.836 410.824 361.622 410.619C361.416 410.404 361.314 410.096 361.314 409.695V405.341C361.314 404.93 361.416 404.622 361.622 404.417C361.836 404.202 362.168 404.095 362.616 404.095H363.386V405.089H362.966C362.798 405.089 362.686 405.117 362.63 405.173C362.574 405.22 362.546 405.327 362.546 405.495ZM364.058 407.721V405.495C364.058 405.327 364.03 405.22 363.974 405.173C363.927 405.117 363.82 405.089 363.652 405.089H363.204V404.095H363.988C364.445 404.095 364.776 404.202 364.982 404.417C365.196 404.622 365.304 404.93 365.304 405.341V407.721H364.058ZM364.03 409.513V408.953H365.262V409.695C365.262 410.096 365.159 410.404 364.954 410.619C364.748 410.824 364.417 410.927 363.96 410.927H363.204V409.933H363.61C363.787 409.933 363.899 409.905 363.946 409.849C364.002 409.793 364.03 409.681 364.03 409.513ZM365.304 406.979V407.903H361.762V406.979H365.304ZM367.647 410.927H366.387V404.095H367.647V404.949V405.033V410.927ZM370.279 410.927H369.019V405.523C369.019 405.355 368.991 405.248 368.935 405.201C368.879 405.145 368.767 405.117 368.599 405.117H368.109C367.95 405.117 367.833 405.154 367.759 405.229C367.684 405.304 367.647 405.43 367.647 405.607V406.055H367.591V405.047C367.591 404.711 367.675 404.468 367.843 404.319C368.011 404.17 368.235 404.095 368.515 404.095H369.019C369.448 404.095 369.765 404.202 369.971 404.417C370.176 404.622 370.279 404.93 370.279 405.341V410.927ZM376.631 402.163H377.933L376.351 410.927H374.559L372.977 402.163H374.279L375.455 409.765L376.631 402.163ZM379.799 407.749H378.539V405.341C378.539 404.93 378.642 404.622 378.847 404.417C379.052 404.202 379.37 404.095 379.799 404.095H380.303C380.583 404.095 380.807 404.17 380.975 404.319C381.143 404.468 381.227 404.711 381.227 405.047V405.985H381.171V405.607C381.171 405.43 381.134 405.304 381.059 405.229C380.984 405.154 380.868 405.117 380.709 405.117H380.219C380.051 405.117 379.939 405.145 379.883 405.201C379.827 405.248 379.799 405.355 379.799 405.523V407.749ZM382.431 410.927H381.171V405.075V404.977V404.095H382.431V410.927ZM378.539 407.273H379.799V409.499C379.799 409.658 379.827 409.765 379.883 409.821C379.939 409.877 380.051 409.905 380.219 409.905H380.709C380.868 409.905 380.984 409.872 381.059 409.807C381.134 409.732 381.171 409.602 381.171 409.415V409.051H381.227V409.975C381.227 410.311 381.143 410.554 380.975 410.703C380.807 410.852 380.583 410.927 380.303 410.927H379.799C379.37 410.927 379.052 410.824 378.847 410.619C378.642 410.404 378.539 410.096 378.539 409.695V407.273ZM384.928 410.927H383.668V404.095H384.928V404.949V405.033V410.927ZM387.56 410.927H386.3V405.523C386.3 405.355 386.272 405.248 386.216 405.201C386.16 405.145 386.048 405.117 385.88 405.117H385.39C385.231 405.117 385.114 405.154 385.04 405.229C384.965 405.304 384.928 405.43 384.928 405.607V406.055H384.872V405.047C384.872 404.711 384.956 404.468 385.124 404.319C385.292 404.17 385.516 404.095 385.796 404.095H386.3C386.729 404.095 387.046 404.202 387.252 404.417C387.457 404.622 387.56 404.93 387.56 405.341V410.927ZM390.916 402.163H393.954C394.412 402.163 394.743 402.27 394.948 402.485C395.163 402.69 395.27 402.994 395.27 403.395V405.621C395.27 405.854 395.224 406.046 395.13 406.195C395.037 406.344 394.897 406.442 394.71 406.489C394.897 406.536 395.037 406.624 395.13 406.755C395.224 406.886 395.27 407.068 395.27 407.301V409.695C395.27 410.096 395.163 410.404 394.948 410.619C394.743 410.824 394.412 410.927 393.954 410.927H390.916V402.163ZM393.996 409.527V407.371C393.996 407.203 393.968 407.096 393.912 407.049C393.866 406.993 393.754 406.965 393.576 406.965H392.19V409.933H393.576C393.754 409.933 393.866 409.905 393.912 409.849C393.968 409.793 393.996 409.686 393.996 409.527ZM393.996 405.565V403.563C393.996 403.395 393.968 403.288 393.912 403.241C393.866 403.185 393.754 403.157 393.576 403.157H392.19V405.971H393.576C393.754 405.971 393.866 405.943 393.912 405.887C393.968 405.831 393.996 405.724 393.996 405.565ZM397.709 407.749H396.449V405.341C396.449 404.93 396.552 404.622 396.757 404.417C396.962 404.202 397.28 404.095 397.709 404.095H398.213C398.493 404.095 398.717 404.17 398.885 404.319C399.053 404.468 399.137 404.711 399.137 405.047V405.985H399.081V405.607C399.081 405.43 399.044 405.304 398.969 405.229C398.894 405.154 398.778 405.117 398.619 405.117H398.129C397.961 405.117 397.849 405.145 397.793 405.201C397.737 405.248 397.709 405.355 397.709 405.523V407.749ZM400.341 410.927H399.081V405.075V404.977V404.095H400.341V410.927ZM396.449 407.273H397.709V409.499C397.709 409.658 397.737 409.765 397.793 409.821C397.849 409.877 397.961 409.905 398.129 409.905H398.619C398.778 409.905 398.894 409.872 398.969 409.807C399.044 409.732 399.081 409.602 399.081 409.415V409.051H399.137V409.975C399.137 410.311 399.053 410.554 398.885 410.703C398.717 410.852 398.493 410.927 398.213 410.927H397.709C397.28 410.927 396.962 410.824 396.757 410.619C396.552 410.404 396.449 410.096 396.449 409.695V407.273ZM404.35 408.687V405.509C404.35 405.332 404.322 405.22 404.266 405.173C404.219 405.117 404.107 405.089 403.93 405.089H403.51V404.095H404.294C404.751 404.095 405.083 404.202 405.288 404.417C405.493 404.622 405.596 404.93 405.596 405.341V408.687H404.35ZM404.35 409.513V408.099H405.596V409.695C405.596 410.096 405.493 410.404 405.288 410.619C405.083 410.824 404.751 410.927 404.294 410.927H403.44V409.933H403.93C404.107 409.933 404.219 409.905 404.266 409.849C404.322 409.793 404.35 409.681 404.35 409.513ZM402.754 405.509V408.701H401.508V405.341C401.508 404.93 401.611 404.622 401.816 404.417C402.021 404.202 402.348 404.095 402.796 404.095H403.594V405.089H403.174C403.006 405.089 402.894 405.117 402.838 405.173C402.782 405.22 402.754 405.332 402.754 405.509ZM402.754 408.015V409.513C402.754 409.681 402.782 409.793 402.838 409.849C402.894 409.905 403.006 409.933 403.174 409.933H403.552V410.927H402.796C402.348 410.927 402.021 410.824 401.816 410.619C401.611 410.404 401.508 410.096 401.508 409.695V408.015H402.754ZM412.409 406.055V407.077H409.791V406.055H412.409ZM408.895 402.163H410.169V410.927H408.895V402.163ZM412.017 402.163H413.291V410.927H412.017V402.163ZM417.393 408.687V405.509C417.393 405.332 417.365 405.22 417.309 405.173C417.262 405.117 417.15 405.089 416.973 405.089H416.553V404.095H417.337C417.794 404.095 418.126 404.202 418.331 404.417C418.536 404.622 418.639 404.93 418.639 405.341V408.687H417.393ZM417.393 409.513V408.099H418.639V409.695C418.639 410.096 418.536 410.404 418.331 410.619C418.126 410.824 417.794 410.927 417.337 410.927H416.483V409.933H416.973C417.15 409.933 417.262 409.905 417.309 409.849C417.365 409.793 417.393 409.681 417.393 409.513ZM415.797 405.509V408.701H414.551V405.341C414.551 404.93 414.654 404.622 414.859 404.417C415.064 404.202 415.391 404.095 415.839 404.095H416.637V405.089H416.217C416.049 405.089 415.937 405.117 415.881 405.173C415.825 405.22 415.797 405.332 415.797 405.509ZM415.797 408.015V409.513C415.797 409.681 415.825 409.793 415.881 409.849C415.937 409.905 416.049 409.933 416.217 409.933H416.595V410.927H415.839C415.391 410.927 415.064 410.824 414.859 410.619C414.654 410.404 414.551 410.096 414.551 409.695V408.015H415.797ZM421.119 403.563V409.541C421.119 409.7 421.147 409.807 421.203 409.863C421.259 409.919 421.371 409.947 421.539 409.947H421.931V410.941H421.147C420.699 410.941 420.367 410.838 420.153 410.633C419.947 410.418 419.845 410.106 419.845 409.695V403.395C419.845 402.994 419.947 402.69 420.153 402.485C420.367 402.27 420.699 402.163 421.147 402.163H422.015V403.157H421.539C421.371 403.157 421.259 403.185 421.203 403.241C421.147 403.288 421.119 403.395 421.119 403.563ZM422.659 404.907V403.563C422.659 403.395 422.631 403.288 422.575 403.241C422.528 403.185 422.421 403.157 422.253 403.157H421.791V402.163H422.631C423.088 402.163 423.419 402.27 423.625 402.485C423.839 402.69 423.947 402.994 423.947 403.395V404.907H422.659ZM422.659 409.541V408.211H423.947V409.695C423.947 410.106 423.839 410.418 423.625 410.633C423.419 410.838 423.088 410.941 422.631 410.941H421.791V409.947H422.253C422.421 409.947 422.528 409.919 422.575 409.863C422.631 409.807 422.659 409.7 422.659 409.541ZM428.972 410.927H427.712V405.523C427.712 405.355 427.684 405.248 427.628 405.201C427.572 405.145 427.46 405.117 427.292 405.117H426.802C426.643 405.117 426.527 405.154 426.452 405.229C426.377 405.304 426.34 405.43 426.34 405.607V406.027H426.284V405.047C426.284 404.711 426.368 404.468 426.536 404.319C426.704 404.17 426.928 404.095 427.208 404.095H427.712C428.141 404.095 428.459 404.202 428.664 404.417C428.869 404.622 428.972 404.93 428.972 405.341V410.927ZM426.34 410.927H425.08V401.561H426.34V410.927ZM431.453 410.927H430.193V404.095H431.453V410.927ZM430.165 402.793V401.547H431.481V402.793H430.165ZM436.251 409.023H435.103L433.899 404.529V410.927H432.793V402.163H434.179L435.677 407.595L437.175 402.163H438.561V410.927H437.455V404.515L436.251 409.023ZM441.16 410.927H439.9V404.095H441.16V410.927ZM439.872 402.793V401.547H441.188V402.793H439.872ZM443.648 410.927H442.388V404.095H443.648V404.949V405.033V410.927ZM446.28 410.927H445.02V405.523C445.02 405.355 444.992 405.248 444.936 405.201C444.88 405.145 444.768 405.117 444.6 405.117H444.11C443.952 405.117 443.835 405.154 443.76 405.229C443.686 405.304 443.648 405.43 443.648 405.607V406.055H443.592V405.047C443.592 404.711 443.676 404.468 443.844 404.319C444.012 404.17 444.236 404.095 444.516 404.095H445.02C445.45 404.095 445.767 404.202 445.972 404.417C446.178 404.622 446.28 404.93 446.28 405.341V410.927ZM451.394 410.927H450.134V405.523C450.134 405.355 450.106 405.248 450.05 405.201C449.994 405.145 449.882 405.117 449.714 405.117H449.224C449.065 405.117 448.948 405.154 448.874 405.229C448.799 405.304 448.762 405.43 448.762 405.607V406.027H448.706V405.047C448.706 404.711 448.79 404.468 448.958 404.319C449.126 404.17 449.35 404.095 449.63 404.095H450.134C450.563 404.095 450.88 404.202 451.086 404.417C451.291 404.622 451.394 404.93 451.394 405.341V410.927ZM448.762 410.927H447.502V401.561H448.762V410.927ZM455.954 403.563V409.541C455.954 409.7 455.982 409.807 456.038 409.863C456.094 409.919 456.206 409.947 456.374 409.947H456.766V410.941H455.982C455.534 410.941 455.203 410.838 454.988 410.633C454.783 410.418 454.68 410.106 454.68 409.695V403.395C454.68 402.994 454.783 402.69 454.988 402.485C455.203 402.27 455.534 402.163 455.982 402.163H456.85V403.157H456.374C456.206 403.157 456.094 403.185 456.038 403.241C455.982 403.288 455.954 403.395 455.954 403.563ZM457.494 404.907V403.563C457.494 403.395 457.466 403.288 457.41 403.241C457.364 403.185 457.256 403.157 457.088 403.157H456.626V402.163H457.466C457.924 402.163 458.255 402.27 458.46 402.485C458.675 402.69 458.782 402.994 458.782 403.395V404.907H457.494ZM457.494 409.541V408.211H458.782V409.695C458.782 410.106 458.675 410.418 458.46 410.633C458.255 410.838 457.924 410.941 457.466 410.941H456.626V409.947H457.088C457.256 409.947 457.364 409.919 457.41 409.863C457.466 409.807 457.494 409.7 457.494 409.541ZM461.176 410.927H459.916V404.095H461.176V410.927ZM459.888 402.793V401.547H461.204V402.793H459.888ZM463.776 402.933V409.443C463.776 409.602 463.804 409.709 463.86 409.765C463.916 409.821 464.023 409.849 464.182 409.849H464.714V410.927H463.818C463.361 410.927 463.025 410.824 462.81 410.619C462.605 410.404 462.502 410.096 462.502 409.695V402.933H463.776ZM464.714 404.095V405.117H461.858V404.095H464.714ZM464.963 404.095H466.251L467.287 409.821L468.253 404.095H469.527L468.085 411.585C467.991 411.996 467.814 412.308 467.553 412.523C467.301 412.747 466.941 412.859 466.475 412.859H465.635V411.851H466.209C466.405 411.851 466.563 411.818 466.685 411.753C466.815 411.697 466.899 411.576 466.937 411.389L467.077 410.815H466.391L464.963 404.095Z" fill="#DEDEDE"/>
</svg>
