<svg width="221" height="218" viewBox="0 0 221 218" fill="none" xmlns="http://www.w3.org/2000/svg">
<path d="M131.454 76.4588C132.457 76.4588 133.414 76.6411 134.326 77.0056C135.238 77.3702 136.059 77.9171 136.788 78.6462L144.311 86.1655C145.018 86.8719 145.554 87.6808 145.919 88.5922C146.283 89.5036 146.477 90.472 146.5 91.4974C146.5 92.5 146.318 93.457 145.953 94.3684C145.588 95.2798 145.041 96.1001 144.311 96.8293L143.833 97.3078C142.602 98.5382 141.473 99.6319 140.447 100.589C139.421 101.546 138.35 102.343 137.233 102.981C136.116 103.619 134.873 104.121 133.506 104.485C132.138 104.85 130.508 105.021 128.616 104.998C125.766 104.998 122.836 104.554 119.827 103.665C116.818 102.776 113.831 101.546 110.868 99.9737C107.904 98.4015 104.986 96.5331 102.114 94.3684C99.2412 92.2038 96.5397 89.8454 94.0092 87.2934C91.4787 84.7414 89.1306 82.0299 86.9648 79.1589C84.7991 76.2879 82.9525 73.3713 81.4251 70.4091C79.8977 67.447 78.6894 64.4734 77.8003 61.4885C76.9112 58.5036 76.4781 55.6325 76.5009 52.8755C76.5009 50.9842 76.6604 49.3664 76.9796 48.0221C77.2988 46.6777 77.7889 45.4473 78.45 44.3308C79.1111 43.2143 79.9091 42.1547 80.8437 41.1522C81.7784 40.1496 82.8727 39.0217 84.1266 37.7685L84.6737 37.2216C85.3804 36.5153 86.1897 35.9684 87.1016 35.581C88.0135 35.1937 88.9824 35 90.0083 35C91.0113 35 91.9688 35.1937 92.8807 35.581C93.7926 35.9684 94.6133 36.5153 95.3428 37.2216L102.866 44.7409C103.573 45.4473 104.108 46.2562 104.473 47.1676C104.838 48.0791 105.032 49.0474 105.054 50.0728C105.054 51.0754 104.884 51.964 104.542 52.7387C104.2 53.5135 103.778 54.2312 103.276 54.892C102.775 55.5528 102.228 56.1338 101.635 56.6351C101.042 57.1364 100.484 57.6491 99.9593 58.1732C99.435 58.6972 99.0132 59.1985 98.694 59.677C98.3749 60.1555 98.2039 60.7138 98.1811 61.3518C98.1811 62.2176 98.4889 62.9582 99.1044 63.5734L117.946 82.4059C118.562 83.0211 119.303 83.3287 120.169 83.3287C120.762 83.3287 121.309 83.1578 121.811 82.816C122.312 82.4742 122.825 82.0527 123.349 81.5514C123.874 81.0501 124.387 80.5032 124.888 79.9108C125.39 79.3184 125.971 78.7601 126.632 78.2361C127.293 77.712 128 77.2905 128.752 76.9714C129.505 76.6524 130.405 76.4816 131.454 76.4588ZM128.616 100.623C130.257 100.623 131.625 100.475 132.719 100.179C133.813 99.8826 134.816 99.4382 135.728 98.8458C136.64 98.2534 137.506 97.5242 138.327 96.6584C139.148 95.7925 140.117 94.8127 141.234 93.719C141.849 93.1038 142.157 92.3633 142.157 91.4974C142.157 91.0873 141.998 90.6088 141.678 90.0619C141.359 89.515 140.926 88.9226 140.379 88.2846C139.832 87.6466 139.25 87.02 138.635 86.4048C138.019 85.7896 137.381 85.1743 136.72 84.5591C136.059 83.9439 135.478 83.4084 134.976 82.9527C134.474 82.497 134.053 82.0983 133.711 81.7565C133.095 81.1413 132.343 80.8336 131.454 80.8336C130.861 80.8336 130.314 81.0045 129.812 81.3463C129.311 81.6881 128.809 82.1096 128.308 82.6109C127.806 83.1122 127.293 83.6591 126.769 84.2515C126.245 84.8439 125.652 85.4022 124.991 85.9263C124.33 86.4503 123.623 86.8719 122.871 87.1909C122.118 87.5099 121.218 87.6808 120.169 87.7036C119.166 87.7036 118.209 87.5213 117.297 87.1567C116.385 86.7921 115.564 86.2453 114.835 85.5161L95.9926 66.6837C95.2858 65.9773 94.7501 65.1684 94.3853 64.257C94.0206 63.3455 93.8268 62.3771 93.804 61.3518C93.804 60.3492 93.975 59.4606 94.317 58.6858C94.6589 57.9111 95.0807 57.1934 95.5822 56.5326C96.0837 55.8718 96.6309 55.2908 97.2236 54.7895C97.8163 54.2882 98.3749 53.7641 98.8992 53.2172C99.4236 52.6704 99.8453 52.1691 100.164 51.7134C100.484 51.2577 100.655 50.7108 100.677 50.0728C100.677 49.1842 100.37 48.4322 99.7541 47.817C99.4577 47.5208 99.0702 47.1107 98.5914 46.5866C98.1127 46.0625 97.577 45.4815 96.9842 44.8435C96.3915 44.2055 95.776 43.5675 95.1377 42.9295C94.4993 42.2915 93.861 41.699 93.2227 41.1522C92.5844 40.6053 92.003 40.1838 91.4787 39.8876C90.9544 39.5913 90.4642 39.4204 90.0083 39.3749C89.142 39.3749 88.4011 39.6825 87.7855 40.2977L84.8789 43.2029C84.0354 44.046 83.3059 44.9118 82.6903 45.8005C82.0748 46.6891 81.6189 47.6803 81.3225 48.774C81.0261 49.8677 80.8665 51.2349 80.8437 52.8755C80.8437 55.4275 81.2541 58.0592 82.0748 60.7707C82.8955 63.4823 84.0468 66.1938 85.5286 68.9053C87.0104 71.6168 88.7544 74.2827 90.7606 76.9031C92.7667 79.5235 94.9553 82.0185 97.3262 84.3882C99.6971 86.7579 102.193 88.9226 104.815 90.8822C107.437 92.8418 110.104 94.5507 112.817 96.009C115.53 97.4673 118.22 98.5952 120.887 99.3927C123.555 100.19 126.131 100.6 128.616 100.623Z" fill="#DEDEDE"/>
<path d="M89.6004 142.12V138.52C89.6004 138.28 89.5604 138.127 89.4804 138.06C89.4137 137.98 89.2537 137.94 89.0004 137.94H85.6804V136.48H89.5404C90.1937 136.48 90.6671 136.633 90.9604 136.94C91.2671 137.233 91.4204 137.667 91.4204 138.24V142.4C91.4204 142.973 91.2671 143.413 90.9604 143.72C90.6671 144.013 90.1937 144.16 89.5404 144.16H86.3204V142.72H89.0004C89.2537 142.72 89.4137 142.68 89.4804 142.6C89.5604 142.52 89.6004 142.36 89.6004 142.12ZM85.4404 136.48H87.2404V149H85.4404V136.48ZM98.4185 149H96.6185V141.28C96.6185 141.04 96.5785 140.887 96.4985 140.82C96.4185 140.74 96.2585 140.7 96.0185 140.7H95.3185C95.0918 140.7 94.9252 140.753 94.8185 140.86C94.7118 140.967 94.6585 141.147 94.6585 141.4V142H94.5785V140.6C94.5785 140.12 94.6985 139.773 94.9385 139.56C95.1785 139.347 95.4985 139.24 95.8985 139.24H96.6185C97.2318 139.24 97.6852 139.393 97.9785 139.7C98.2718 139.993 98.4185 140.433 98.4185 141.02V149ZM94.6585 149H92.8585V135.62H94.6585V149ZM104.123 145.8V141.26C104.123 141.007 104.083 140.847 104.003 140.78C103.937 140.7 103.777 140.66 103.523 140.66H102.923V139.24H104.043C104.697 139.24 105.17 139.393 105.463 139.7C105.757 139.993 105.903 140.433 105.903 141.02V145.8H104.123ZM104.123 146.98V144.96H105.903V147.24C105.903 147.813 105.757 148.253 105.463 148.56C105.17 148.853 104.697 149 104.043 149H102.823V147.58H103.523C103.777 147.58 103.937 147.54 104.003 147.46C104.083 147.38 104.123 147.22 104.123 146.98ZM101.843 141.26V145.82H100.063V141.02C100.063 140.433 100.21 139.993 100.503 139.7C100.797 139.393 101.263 139.24 101.903 139.24H103.043V140.66H102.443C102.203 140.66 102.043 140.7 101.963 140.78C101.883 140.847 101.843 141.007 101.843 141.26ZM101.843 144.84V146.98C101.843 147.22 101.883 147.38 101.963 147.46C102.043 147.54 102.203 147.58 102.443 147.58H102.983V149H101.903C101.263 149 100.797 148.853 100.503 148.56C100.21 148.253 100.063 147.813 100.063 147.24V144.84H101.843ZM109.366 149H107.566V139.24H109.366V140.46V140.58V149ZM113.126 149H111.326V141.28C111.326 141.04 111.286 140.887 111.206 140.82C111.126 140.74 110.966 140.7 110.726 140.7H110.026C109.799 140.7 109.632 140.753 109.526 140.86C109.419 140.967 109.366 141.147 109.366 141.4V142.04H109.286V140.6C109.286 140.12 109.406 139.773 109.646 139.56C109.886 139.347 110.206 139.24 110.606 139.24H111.326C111.939 139.24 112.392 139.393 112.686 139.7C112.979 139.993 113.126 140.433 113.126 141.02V149ZM116.59 141.24V147C116.59 147.227 116.63 147.38 116.71 147.46C116.79 147.54 116.95 147.58 117.19 147.58H117.69V149H116.69C116.05 149 115.577 148.853 115.27 148.56C114.977 148.253 114.83 147.813 114.83 147.24V141.02C114.83 140.433 114.977 139.993 115.27 139.7C115.577 139.393 116.05 139.24 116.69 139.24H117.79V140.66H117.19C116.95 140.66 116.79 140.7 116.71 140.78C116.63 140.847 116.59 141 116.59 141.24ZM118.75 144.42V141.24C118.75 141 118.71 140.847 118.63 140.78C118.564 140.7 118.41 140.66 118.17 140.66H117.53V139.24H118.65C119.304 139.24 119.777 139.393 120.07 139.7C120.377 139.993 120.53 140.433 120.53 141.02V144.42H118.75ZM118.71 146.98V146.18H120.47V147.24C120.47 147.813 120.324 148.253 120.03 148.56C119.737 148.853 119.264 149 118.61 149H117.53V147.58H118.11C118.364 147.58 118.524 147.54 118.59 147.46C118.67 147.38 118.71 147.22 118.71 146.98ZM120.53 143.36V144.68H115.47V143.36H120.53ZM129.228 146.96V136.48H131.048V147.24C131.048 147.813 130.895 148.253 130.588 148.56C130.295 148.853 129.821 149 129.168 149H127.848V147.54H128.648C128.888 147.54 129.041 147.5 129.108 147.42C129.188 147.34 129.228 147.187 129.228 146.96ZM126.888 136.48V146.96C126.888 147.187 126.928 147.34 127.008 147.42C127.088 147.5 127.248 147.54 127.488 147.54H128.108V149H126.948C126.295 149 125.815 148.853 125.508 148.56C125.215 148.253 125.068 147.813 125.068 147.24V136.48H126.888ZM136.177 147.04V145.42C136.177 145.18 136.137 145.027 136.057 144.96C135.99 144.88 135.83 144.84 135.577 144.84H134.557C133.904 144.84 133.43 144.693 133.137 144.4C132.844 144.093 132.697 143.653 132.697 143.08V141.02C132.697 140.433 132.844 139.993 133.137 139.7C133.444 139.393 133.917 139.24 134.557 139.24H136.017C136.67 139.24 137.144 139.393 137.437 139.7C137.744 139.993 137.897 140.433 137.897 141.02V141.96H136.137V141.2C136.137 140.96 136.097 140.807 136.017 140.74C135.95 140.66 135.79 140.62 135.537 140.62H135.057C134.817 140.62 134.657 140.66 134.577 140.74C134.497 140.807 134.457 140.96 134.457 141.2V142.88C134.457 143.12 134.497 143.28 134.577 143.36C134.657 143.427 134.817 143.46 135.057 143.46H136.097C136.737 143.46 137.204 143.613 137.497 143.92C137.79 144.213 137.937 144.653 137.937 145.24V147.24C137.937 147.813 137.784 148.253 137.477 148.56C137.184 148.853 136.717 149 136.077 149H134.597C133.957 149 133.484 148.853 133.177 148.56C132.884 148.253 132.737 147.813 132.737 147.24V146.28H134.517V147.04C134.517 147.267 134.557 147.42 134.637 147.5C134.717 147.58 134.87 147.62 135.097 147.62H135.577C135.83 147.62 135.99 147.58 136.057 147.5C136.137 147.42 136.177 147.267 136.177 147.04Z" fill="#DEDEDE"/>
<path d="M89.0745 169.468V175.768C89.0745 176.169 88.9671 176.477 88.7525 176.692C88.5471 176.897 88.2205 177 87.7725 177H86.2465C85.7891 177 85.4531 176.897 85.2385 176.692C85.0331 176.477 84.9305 176.169 84.9305 175.768V169.468C84.9305 169.067 85.0331 168.763 85.2385 168.558C85.4531 168.343 85.7891 168.236 86.2465 168.236H87.7725C88.2205 168.236 88.5471 168.343 88.7525 168.558C88.9671 168.763 89.0745 169.067 89.0745 169.468ZM87.8005 175.572V169.664C87.8005 169.496 87.7725 169.389 87.7165 169.342C87.6698 169.286 87.5578 169.258 87.3805 169.258H86.6245C86.4658 169.258 86.3585 169.286 86.3025 169.342C86.2465 169.389 86.2185 169.496 86.2185 169.664V175.572C86.2185 175.731 86.2465 175.838 86.3025 175.894C86.3585 175.95 86.4658 175.978 86.6245 175.978H87.3805C87.5578 175.978 87.6698 175.95 87.7165 175.894C87.7725 175.838 87.8005 175.731 87.8005 175.572ZM93.3255 168.236V169.286H89.8115V168.236H93.3255ZM93.7315 168.236V169.02L91.3795 177H90.0915L92.6815 168.236H93.7315ZM97.3018 175.572V173.374C97.3018 173.206 97.2738 173.099 97.2178 173.052C97.1711 172.996 97.0591 172.968 96.8818 172.968H95.3278V171.96H97.2598C97.7078 171.96 98.0344 172.067 98.2398 172.282C98.4544 172.487 98.5618 172.795 98.5618 173.206V175.768C98.5618 176.169 98.4544 176.477 98.2398 176.692C98.0344 176.897 97.7078 177 97.2598 177H96.4478V175.978H96.8818C97.0591 175.978 97.1711 175.95 97.2178 175.894C97.2738 175.838 97.3018 175.731 97.3018 175.572ZM95.7338 169.664V175.572C95.7338 175.731 95.7618 175.838 95.8178 175.894C95.8738 175.95 95.9811 175.978 96.1398 175.978H96.5738V177H95.7758C95.3184 177 94.9824 176.897 94.7678 176.692C94.5624 176.477 94.4598 176.169 94.4598 175.768V169.468C94.4598 169.067 94.5624 168.763 94.7678 168.558C94.9824 168.343 95.3184 168.236 95.7758 168.236H96.5598V169.258H96.1398C95.9811 169.258 95.8738 169.286 95.8178 169.342C95.7618 169.389 95.7338 169.496 95.7338 169.664ZM97.2738 170.98V169.664C97.2738 169.496 97.2458 169.389 97.1898 169.342C97.1338 169.286 97.0218 169.258 96.8538 169.258H96.4058V168.236H97.2178C97.6658 168.236 97.9924 168.343 98.1978 168.558C98.4124 168.763 98.5198 169.067 98.5198 169.468V170.98H97.2738ZM100.939 169.664V172.016C100.939 172.175 100.967 172.282 101.023 172.338C101.079 172.394 101.191 172.422 101.359 172.422H102.913V173.416H100.981C100.533 173.416 100.202 173.309 99.9875 173.094C99.7821 172.879 99.6795 172.571 99.6795 172.17V169.468C99.6795 169.067 99.7821 168.763 99.9875 168.558C100.202 168.343 100.533 168.236 100.981 168.236H101.793V169.258H101.359C101.191 169.258 101.079 169.286 101.023 169.342C100.967 169.389 100.939 169.496 100.939 169.664ZM102.507 175.572V169.664C102.507 169.496 102.479 169.389 102.423 169.342C102.377 169.286 102.269 169.258 102.101 169.258H101.667V168.236H102.465C102.923 168.236 103.254 168.343 103.459 168.558C103.674 168.763 103.781 169.067 103.781 169.468V175.768C103.781 176.169 103.674 176.477 103.459 176.692C103.254 176.897 102.923 177 102.465 177H101.681V175.978H102.101C102.269 175.978 102.377 175.95 102.423 175.894C102.479 175.838 102.507 175.731 102.507 175.572ZM100.967 174.27V175.572C100.967 175.731 100.995 175.838 101.051 175.894C101.107 175.95 101.219 175.978 101.387 175.978H101.835V177H101.023C100.566 177 100.23 176.897 100.015 176.692C99.8101 176.477 99.7075 176.169 99.7075 175.768V174.27H100.967ZM109.962 175.572V173.374C109.962 173.206 109.934 173.099 109.878 173.052C109.831 172.996 109.719 172.968 109.542 172.968H107.988V171.96H109.92C110.368 171.96 110.695 172.067 110.9 172.282C111.115 172.487 111.222 172.795 111.222 173.206V175.768C111.222 176.169 111.115 176.477 110.9 176.692C110.695 176.897 110.368 177 109.92 177H109.108V175.978H109.542C109.719 175.978 109.831 175.95 109.878 175.894C109.934 175.838 109.962 175.731 109.962 175.572ZM108.394 169.664V175.572C108.394 175.731 108.422 175.838 108.478 175.894C108.534 175.95 108.641 175.978 108.8 175.978H109.234V177H108.436C107.979 177 107.643 176.897 107.428 176.692C107.223 176.477 107.12 176.169 107.12 175.768V169.468C107.12 169.067 107.223 168.763 107.428 168.558C107.643 168.343 107.979 168.236 108.436 168.236H109.22V169.258H108.8C108.641 169.258 108.534 169.286 108.478 169.342C108.422 169.389 108.394 169.496 108.394 169.664ZM109.934 170.98V169.664C109.934 169.496 109.906 169.389 109.85 169.342C109.794 169.286 109.682 169.258 109.514 169.258H109.066V168.236H109.878C110.326 168.236 110.653 168.343 110.858 168.558C111.073 168.763 111.18 169.067 111.18 169.468V170.98H109.934ZM113.474 169.664V170.98H112.214V169.468C112.214 169.067 112.316 168.763 112.522 168.558C112.736 168.343 113.068 168.236 113.516 168.236H114.804C115.261 168.236 115.592 168.343 115.798 168.558C116.012 168.763 116.12 169.067 116.12 169.468V171.68C116.12 171.923 116.073 172.119 115.98 172.268C115.886 172.408 115.751 172.501 115.574 172.548C115.751 172.595 115.886 172.683 115.98 172.814C116.073 172.945 116.12 173.127 116.12 173.36V175.768C116.12 176.169 116.012 176.477 115.798 176.692C115.592 176.897 115.261 177 114.804 177H113.516C113.068 177 112.736 176.897 112.522 176.692C112.316 176.477 112.214 176.169 112.214 175.768V174.27H113.474V175.572C113.474 175.731 113.502 175.838 113.558 175.894C113.614 175.95 113.726 175.978 113.894 175.978H114.44C114.617 175.978 114.729 175.95 114.776 175.894C114.832 175.838 114.86 175.731 114.86 175.572V173.472C114.86 173.304 114.832 173.197 114.776 173.15C114.729 173.094 114.617 173.066 114.44 173.066H113.39V172.058H114.44C114.617 172.058 114.729 172.03 114.776 171.974C114.832 171.918 114.86 171.811 114.86 171.652V169.664C114.86 169.496 114.832 169.389 114.776 169.342C114.729 169.286 114.617 169.258 114.44 169.258H113.894C113.726 169.258 113.614 169.286 113.558 169.342C113.502 169.389 113.474 169.496 113.474 169.664ZM118.394 169.664V171.092H117.134V169.468C117.134 169.067 117.237 168.763 117.442 168.558C117.648 168.343 117.979 168.236 118.436 168.236H119.64C120.098 168.236 120.429 168.343 120.634 168.558C120.849 168.763 120.956 169.067 120.956 169.468V170.35C120.956 170.723 120.919 171.055 120.844 171.344C120.77 171.624 120.644 171.932 120.466 172.268L118.576 175.978H121.012V177H117.148V176.02L119.29 171.988C119.449 171.689 119.552 171.419 119.598 171.176C119.654 170.924 119.682 170.635 119.682 170.308V169.664C119.682 169.496 119.654 169.389 119.598 169.342C119.552 169.286 119.44 169.258 119.262 169.258H118.814C118.646 169.258 118.534 169.286 118.478 169.342C118.422 169.389 118.394 169.496 118.394 169.664ZM125.011 169.664V171.092H123.751V169.468C123.751 169.067 123.854 168.763 124.059 168.558C124.265 168.343 124.596 168.236 125.053 168.236H126.257C126.715 168.236 127.046 168.343 127.251 168.558C127.466 168.763 127.573 169.067 127.573 169.468V170.35C127.573 170.723 127.536 171.055 127.461 171.344C127.387 171.624 127.261 171.932 127.083 172.268L125.193 175.978H127.629V177H123.765V176.02L125.907 171.988C126.066 171.689 126.169 171.419 126.215 171.176C126.271 170.924 126.299 170.635 126.299 170.308V169.664C126.299 169.496 126.271 169.389 126.215 169.342C126.169 169.286 126.057 169.258 125.879 169.258H125.431C125.263 169.258 125.151 169.286 125.095 169.342C125.039 169.389 125.011 169.496 125.011 169.664ZM129.899 173.472V175.572C129.899 175.74 129.927 175.852 129.983 175.908C130.039 175.964 130.146 175.992 130.305 175.992H130.739V177H129.955C129.507 177 129.176 176.897 128.961 176.692C128.756 176.477 128.653 176.169 128.653 175.768V173.416C128.653 173.173 128.7 172.987 128.793 172.856C128.886 172.725 129.022 172.637 129.199 172.59C129.022 172.543 128.886 172.45 128.793 172.31C128.7 172.161 128.653 171.965 128.653 171.722V169.468C128.653 169.067 128.756 168.763 128.961 168.558C129.176 168.343 129.507 168.236 129.955 168.236H130.767V169.244H130.305C130.146 169.244 130.039 169.272 129.983 169.328C129.927 169.375 129.899 169.482 129.899 169.65V171.694C129.899 171.853 129.927 171.96 129.983 172.016C130.039 172.072 130.146 172.1 130.305 172.1H130.795V173.066H130.305C130.146 173.066 130.039 173.094 129.983 173.15C129.927 173.197 129.899 173.304 129.899 173.472ZM131.537 171.694V169.65C131.537 169.482 131.509 169.375 131.453 169.328C131.406 169.272 131.299 169.244 131.131 169.244H130.683V168.236H131.481C131.929 168.236 132.256 168.343 132.461 168.558C132.676 168.763 132.783 169.067 132.783 169.468V171.722C132.783 171.965 132.736 172.161 132.643 172.31C132.55 172.45 132.414 172.543 132.237 172.59C132.414 172.637 132.55 172.725 132.643 172.856C132.736 172.987 132.783 173.173 132.783 173.416V175.768C132.783 176.169 132.676 176.477 132.461 176.692C132.256 176.897 131.929 177 131.481 177H130.613V175.992H131.131C131.299 175.992 131.406 175.964 131.453 175.908C131.509 175.852 131.537 175.74 131.537 175.572V173.472C131.537 173.304 131.509 173.197 131.453 173.15C131.406 173.094 131.299 173.066 131.131 173.066H130.641V172.1H131.131C131.299 172.1 131.406 172.072 131.453 172.016C131.509 171.96 131.537 171.853 131.537 171.694ZM135.229 169.664V172.016C135.229 172.175 135.257 172.282 135.313 172.338C135.369 172.394 135.481 172.422 135.649 172.422H137.203V173.416H135.271C134.823 173.416 134.491 173.309 134.277 173.094C134.071 172.879 133.969 172.571 133.969 172.17V169.468C133.969 169.067 134.071 168.763 134.277 168.558C134.491 168.343 134.823 168.236 135.271 168.236H136.083V169.258H135.649C135.481 169.258 135.369 169.286 135.313 169.342C135.257 169.389 135.229 169.496 135.229 169.664ZM136.797 175.572V169.664C136.797 169.496 136.769 169.389 136.713 169.342C136.666 169.286 136.559 169.258 136.391 169.258H135.957V168.236H136.755C137.212 168.236 137.543 168.343 137.749 168.558C137.963 168.763 138.071 169.067 138.071 169.468V175.768C138.071 176.169 137.963 176.477 137.749 176.692C137.543 176.897 137.212 177 136.755 177H135.971V175.978H136.391C136.559 175.978 136.666 175.95 136.713 175.894C136.769 175.838 136.797 175.731 136.797 175.572ZM135.257 174.27V175.572C135.257 175.731 135.285 175.838 135.341 175.894C135.397 175.95 135.509 175.978 135.677 175.978H136.125V177H135.313C134.855 177 134.519 176.897 134.305 176.692C134.099 176.477 133.997 176.169 133.997 175.768V174.27H135.257Z" fill="#DEDEDE"/>
</svg>
