<svg width="221" height="218" viewBox="0 0 221 218" fill="none" xmlns="http://www.w3.org/2000/svg">
<path fill-rule="evenodd" clip-rule="evenodd" d="M89.2273 34.5C85.8518 34.5 82.6146 35.8409 80.2277 38.2277C77.8409 40.6146 76.5 43.8518 76.5 47.2273V91.7727C76.5 95.1482 77.8409 98.3854 80.2277 100.772C82.6146 103.159 85.8518 104.5 89.2273 104.5H133.773C137.148 104.5 140.385 103.159 142.772 100.772C145.159 98.3854 146.5 95.1482 146.5 91.7727V47.2273C146.5 43.8518 145.159 40.6146 142.772 38.2277C140.385 35.8409 137.148 34.5 133.773 34.5H89.2273ZM111.258 43.3041C105.098 43.3041 99.4091 45.5791 95.3045 50.3677C91.2318 55.1245 88.9632 62.0545 88.9632 70.9636C88.9632 80.0764 92.1227 86.3955 96.9177 90.3886C101.617 94.3023 107.555 95.6959 112.722 95.6959C123.165 95.6959 131.673 89.2686 132.083 80.0286C132.29 75.3895 130.238 71.5332 126.83 68.9336C125.896 68.2243 124.889 67.6164 123.826 67.12L123.788 66.525C123.422 61.6727 121.348 58.6182 118.729 56.8777C116.832 55.648 114.62 54.9908 112.359 54.9845C108.719 54.9845 105.54 56.4959 102.976 59.4391C102.736 59.7149 102.552 60.0352 102.436 60.3819C102.32 60.7285 102.273 61.0947 102.298 61.4594C102.324 61.8242 102.421 62.1804 102.583 62.5077C102.746 62.835 102.972 63.127 103.248 63.367C103.524 63.6071 103.844 63.7905 104.191 63.9067C104.537 64.023 104.904 64.0698 105.268 64.0445C105.633 64.0193 105.989 63.9224 106.317 63.7595C106.644 63.5966 106.936 63.3708 107.176 63.095C108.767 61.2686 110.453 60.5527 112.362 60.5527C113.04 60.5527 114.437 60.7118 115.649 61.5168C116.53 62.1023 117.552 63.1777 118.02 65.3891C116.697 65.1845 115.361 65.0845 114.023 65.09C109.282 65.09 105.951 66.2959 103.883 68.5105C101.821 70.7155 101.522 73.3818 101.627 75.1827C101.696 76.3601 102.012 77.5097 102.555 78.5568C103.097 79.6039 103.855 80.5249 104.777 81.26C106.765 82.8636 109.486 83.64 112.722 83.4014C116.235 83.1436 119.299 81.3555 121.313 78.2977C122.261 76.8595 122.951 75.1795 123.375 73.3023L123.451 73.3595C125.525 74.9441 126.642 77.1045 126.521 79.7805C126.283 85.1736 121.144 90.1277 112.722 90.1277C108.455 90.1277 103.908 88.9632 100.478 86.1091C97.1436 83.3314 94.5314 78.6795 94.5314 70.9636C94.5314 62.955 96.5709 57.4505 99.5332 53.9918C102.46 50.5777 106.527 48.8723 111.258 48.8723C116.276 48.8723 120.253 50.075 123.101 52.1177C125.907 54.1286 127.81 57.0909 128.513 61.0459C128.643 61.7729 129.056 62.4187 129.661 62.8411C130.267 63.2636 131.016 63.4282 131.743 63.2986C132.47 63.1691 133.115 62.7561 133.538 62.1504C133.96 61.5448 134.125 60.7961 133.995 60.0691C133.05 54.7745 130.4 50.5014 126.346 47.5932C122.331 44.7136 117.132 43.3041 111.258 43.3041ZM114.023 70.6582C115.504 70.6624 116.872 70.7982 118.128 71.0655C117.867 72.8409 117.332 74.2218 116.664 75.2336C115.585 76.8691 114.077 77.7186 112.311 77.8491C110.192 78.005 108.948 77.4736 108.267 76.9264C107.952 76.6769 107.692 76.3638 107.506 76.0075C107.32 75.6512 107.21 75.2595 107.185 74.8582C107.128 73.8909 107.322 72.9841 107.952 72.3127C108.576 71.6445 110.135 70.6582 114.023 70.6582Z" fill="#DEDEDE"/>
<path d="M93.7586 136.22H95.5586V148.5H93.7586V136.22ZM97.6586 135.98V137.44H91.6586V135.98H97.6586ZM104.19 148.5H102.39V140.78C102.39 140.54 102.35 140.387 102.27 140.32C102.19 140.24 102.03 140.2 101.79 140.2H101.09C100.863 140.2 100.697 140.253 100.59 140.36C100.483 140.467 100.43 140.647 100.43 140.9V141.5H100.35V140.1C100.35 139.62 100.47 139.273 100.71 139.06C100.95 138.847 101.27 138.74 101.67 138.74H102.39C103.003 138.74 103.457 138.893 103.75 139.2C104.043 139.493 104.19 139.933 104.19 140.52V148.5ZM100.43 148.5H98.63V135.12H100.43V148.5ZM109.715 138.72V140.3H108.995C108.155 140.3 107.735 140.787 107.735 141.76V142.18H107.655V140.48C107.655 140.2 107.715 139.927 107.835 139.66C107.968 139.38 108.155 139.153 108.395 138.98C108.648 138.807 108.955 138.72 109.315 138.72H109.715ZM107.735 148.5H105.935V138.74H107.735V140.56V148.5ZM112.42 140.74V146.5C112.42 146.727 112.46 146.88 112.54 146.96C112.62 147.04 112.78 147.08 113.02 147.08H113.52V148.5H112.52C111.88 148.5 111.407 148.353 111.1 148.06C110.807 147.753 110.66 147.313 110.66 146.74V140.52C110.66 139.933 110.807 139.493 111.1 139.2C111.407 138.893 111.88 138.74 112.52 138.74H113.62V140.16H113.02C112.78 140.16 112.62 140.2 112.54 140.28C112.46 140.347 112.42 140.5 112.42 140.74ZM114.58 143.92V140.74C114.58 140.5 114.54 140.347 114.46 140.28C114.394 140.2 114.24 140.16 114 140.16H113.36V138.74H114.48C115.134 138.74 115.607 138.893 115.9 139.2C116.207 139.493 116.36 139.933 116.36 140.52V143.92H114.58ZM114.54 146.48V145.68H116.3V146.74C116.3 147.313 116.154 147.753 115.86 148.06C115.567 148.353 115.094 148.5 114.44 148.5H113.36V147.08H113.94C114.194 147.08 114.354 147.04 114.42 146.96C114.5 146.88 114.54 146.72 114.54 146.48ZM116.36 142.86V144.18H111.3V142.86H116.36ZM119.587 143.96H117.787V140.52C117.787 139.933 117.934 139.493 118.227 139.2C118.521 138.893 118.974 138.74 119.587 138.74H120.307C120.707 138.74 121.027 138.847 121.267 139.06C121.507 139.273 121.627 139.62 121.627 140.1V141.44H121.547V140.9C121.547 140.647 121.494 140.467 121.387 140.36C121.281 140.253 121.114 140.2 120.887 140.2H120.187C119.947 140.2 119.787 140.24 119.707 140.32C119.627 140.387 119.587 140.54 119.587 140.78V143.96ZM123.347 148.5H121.547V140.14V140V138.74H123.347V148.5ZM117.787 143.28H119.587V146.46C119.587 146.687 119.627 146.84 119.707 146.92C119.787 147 119.947 147.04 120.187 147.04H120.887C121.114 147.04 121.281 146.993 121.387 146.9C121.494 146.793 121.547 146.607 121.547 146.34V145.82H121.627V147.14C121.627 147.62 121.507 147.967 121.267 148.18C121.027 148.393 120.707 148.5 120.307 148.5H119.587C118.974 148.5 118.521 148.353 118.227 148.06C117.934 147.753 117.787 147.313 117.787 146.74V143.28ZM126.794 143.94H124.994V140.5C124.994 139.913 125.141 139.473 125.434 139.18C125.728 138.873 126.181 138.72 126.794 138.72H127.514C127.914 138.72 128.234 138.827 128.474 139.04C128.714 139.253 128.834 139.6 128.834 140.08V141.52H128.754V140.88C128.754 140.627 128.701 140.447 128.594 140.34C128.488 140.233 128.321 140.18 128.094 140.18H127.394C127.154 140.18 126.994 140.22 126.914 140.3C126.834 140.367 126.794 140.52 126.794 140.76V143.94ZM128.754 135.12H130.554V148.5H128.754V147.26V147.16V135.12ZM124.994 143.28H126.794V146.46C126.794 146.687 126.834 146.84 126.914 146.92C126.994 147 127.154 147.04 127.394 147.04H128.094C128.321 147.04 128.488 146.993 128.594 146.9C128.701 146.793 128.754 146.607 128.754 146.34V145.88H128.834V147.14C128.834 147.62 128.714 147.967 128.474 148.18C128.234 148.393 127.914 148.5 127.514 148.5H126.794C126.181 148.5 125.728 148.353 125.434 148.06C125.141 147.753 124.994 147.313 124.994 146.74V143.28Z" fill="#DEDEDE"/>
<path d="M38.6524 167.736H39.9124L38.5124 176.5H36.7764L35.7824 169.92L34.8164 176.5H33.0664L31.6664 167.736H32.9684L33.9484 175.352L35.0824 167.736H36.4964L37.6164 175.352L38.6524 167.736ZM41.8776 171.068V175.1C41.8776 175.259 41.9056 175.366 41.9616 175.422C42.0176 175.478 42.1296 175.506 42.2976 175.506H42.6476V176.5H41.9476C41.4996 176.5 41.1683 176.397 40.9536 176.192C40.7483 175.977 40.6456 175.669 40.6456 175.268V170.914C40.6456 170.503 40.7483 170.195 40.9536 169.99C41.1683 169.775 41.4996 169.668 41.9476 169.668H42.7176V170.662H42.2976C42.1296 170.662 42.0176 170.69 41.9616 170.746C41.9056 170.793 41.8776 170.9 41.8776 171.068ZM43.3896 173.294V171.068C43.3896 170.9 43.3616 170.793 43.3056 170.746C43.259 170.69 43.1516 170.662 42.9836 170.662H42.5356V169.668H43.3196C43.777 169.668 44.1083 169.775 44.3136 169.99C44.5283 170.195 44.6356 170.503 44.6356 170.914V173.294H43.3896ZM43.3616 175.086V174.526H44.5936V175.268C44.5936 175.669 44.491 175.977 44.2856 176.192C44.0803 176.397 43.749 176.5 43.2916 176.5H42.5356V175.506H42.9416C43.119 175.506 43.231 175.478 43.2776 175.422C43.3336 175.366 43.3616 175.254 43.3616 175.086ZM44.6356 172.552V173.476H41.0936V172.552H44.6356ZM48.918 173.322H47.658V170.914C47.658 170.503 47.7606 170.195 47.966 169.99C48.1713 169.775 48.4886 169.668 48.918 169.668H49.422C49.702 169.668 49.926 169.743 50.094 169.892C50.262 170.041 50.346 170.284 50.346 170.62V171.558H50.29V171.18C50.29 171.003 50.2526 170.877 50.178 170.802C50.1033 170.727 49.9866 170.69 49.828 170.69H49.338C49.17 170.69 49.058 170.718 49.002 170.774C48.946 170.821 48.918 170.928 48.918 171.096V173.322ZM51.55 176.5H50.29V170.648V170.55V169.668H51.55V176.5ZM47.658 172.846H48.918V175.072C48.918 175.231 48.946 175.338 49.002 175.394C49.058 175.45 49.17 175.478 49.338 175.478H49.828C49.9866 175.478 50.1033 175.445 50.178 175.38C50.2526 175.305 50.29 175.175 50.29 174.988V174.624H50.346V175.548C50.346 175.884 50.262 176.127 50.094 176.276C49.926 176.425 49.702 176.5 49.422 176.5H48.918C48.4886 176.5 48.1713 176.397 47.966 176.192C47.7606 175.977 47.658 175.669 47.658 175.268V172.846ZM55.4329 169.654V170.76H54.9289C54.3409 170.76 54.0469 171.101 54.0469 171.782V172.076H53.9909V170.886C53.9909 170.69 54.0329 170.499 54.1169 170.312C54.2102 170.116 54.3409 169.957 54.5089 169.836C54.6862 169.715 54.9009 169.654 55.1529 169.654H55.4329ZM54.0469 176.5H52.7869V169.668H54.0469V170.942V176.5ZM57.3268 171.068V175.1C57.3268 175.259 57.3548 175.366 57.4108 175.422C57.4668 175.478 57.5788 175.506 57.7468 175.506H58.0968V176.5H57.3968C56.9488 176.5 56.6175 176.397 56.4028 176.192C56.1975 175.977 56.0948 175.669 56.0948 175.268V170.914C56.0948 170.503 56.1975 170.195 56.4028 169.99C56.6175 169.775 56.9488 169.668 57.3968 169.668H58.1668V170.662H57.7468C57.5788 170.662 57.4668 170.69 57.4108 170.746C57.3548 170.793 57.3268 170.9 57.3268 171.068ZM58.8388 173.294V171.068C58.8388 170.9 58.8108 170.793 58.7548 170.746C58.7082 170.69 58.6008 170.662 58.4328 170.662H57.9848V169.668H58.7688C59.2262 169.668 59.5575 169.775 59.7628 169.99C59.9775 170.195 60.0848 170.503 60.0848 170.914V173.294H58.8388ZM58.8108 175.086V174.526H60.0428V175.268C60.0428 175.669 59.9402 175.977 59.7348 176.192C59.5295 176.397 59.1982 176.5 58.7408 176.5H57.9848V175.506H58.3908C58.5682 175.506 58.6802 175.478 58.7268 175.422C58.7828 175.366 58.8108 175.254 58.8108 175.086ZM60.0848 172.552V173.476H56.5428V172.552H60.0848ZM64.3672 173.322H63.1072V170.914C63.1072 170.503 63.2099 170.195 63.4152 169.99C63.6205 169.775 63.9379 169.668 64.3672 169.668H64.8712C65.1512 169.668 65.3752 169.743 65.5432 169.892C65.7112 170.041 65.7952 170.284 65.7952 170.62V171.558H65.7392V171.18C65.7392 171.003 65.7019 170.877 65.6272 170.802C65.5525 170.727 65.4359 170.69 65.2772 170.69H64.7872C64.6192 170.69 64.5072 170.718 64.4512 170.774C64.3952 170.821 64.3672 170.928 64.3672 171.096V173.322ZM66.9992 176.5H65.7392V170.648V170.55V169.668H66.9992V176.5ZM63.1072 172.846H64.3672V175.072C64.3672 175.231 64.3952 175.338 64.4512 175.394C64.5072 175.45 64.6192 175.478 64.7872 175.478H65.2772C65.4359 175.478 65.5525 175.445 65.6272 175.38C65.7019 175.305 65.7392 175.175 65.7392 174.988V174.624H65.7952V175.548C65.7952 175.884 65.7112 176.127 65.5432 176.276C65.3752 176.425 65.1512 176.5 64.8712 176.5H64.3672C63.9379 176.5 63.6205 176.397 63.4152 176.192C63.2099 175.977 63.1072 175.669 63.1072 175.268V172.846ZM69.4961 176.5H68.2361V167.134H69.4961V176.5ZM76.4504 169.668H77.6404L76.3804 176.5H74.7144L73.9024 171.334L73.0904 176.5H71.4244L70.1784 169.668H71.3684L72.2784 175.422L73.1604 169.668H74.6584L75.5124 175.422L76.4504 169.668ZM79.502 173.322H78.242V170.914C78.242 170.503 78.3446 170.195 78.55 169.99C78.7553 169.775 79.0726 169.668 79.502 169.668H80.006C80.286 169.668 80.51 169.743 80.678 169.892C80.846 170.041 80.93 170.284 80.93 170.62V171.558H80.874V171.18C80.874 171.003 80.8366 170.877 80.762 170.802C80.6873 170.727 80.5706 170.69 80.412 170.69H79.922C79.754 170.69 79.642 170.718 79.586 170.774C79.53 170.821 79.502 170.928 79.502 171.096V173.322ZM82.134 176.5H80.874V170.648V170.55V169.668H82.134V176.5ZM78.242 172.846H79.502V175.072C79.502 175.231 79.53 175.338 79.586 175.394C79.642 175.45 79.754 175.478 79.922 175.478H80.412C80.5706 175.478 80.6873 175.445 80.762 175.38C80.8366 175.305 80.874 175.175 80.874 174.988V174.624H80.93V175.548C80.93 175.884 80.846 176.127 80.678 176.276C80.51 176.425 80.286 176.5 80.006 176.5H79.502C79.0726 176.5 78.7553 176.397 78.55 176.192C78.3446 175.977 78.242 175.669 78.242 175.268V172.846ZM82.8669 169.668H84.1549L85.1909 175.394L86.1569 169.668H87.4309L85.9889 177.158C85.8955 177.569 85.7182 177.881 85.4569 178.096C85.2049 178.32 84.8455 178.432 84.3789 178.432H83.5389V177.424H84.1129C84.3089 177.424 84.4675 177.391 84.5889 177.326C84.7195 177.27 84.8035 177.149 84.8409 176.962L84.9809 176.388H84.2949L82.8669 169.668ZM90.438 175.128V173.994C90.438 173.826 90.41 173.719 90.354 173.672C90.3074 173.616 90.1954 173.588 90.018 173.588H89.304C88.8467 173.588 88.5154 173.485 88.31 173.28C88.1047 173.065 88.002 172.757 88.002 172.356V170.914C88.002 170.503 88.1047 170.195 88.31 169.99C88.5247 169.775 88.856 169.668 89.304 169.668H90.326C90.7834 169.668 91.1147 169.775 91.32 169.99C91.5347 170.195 91.642 170.503 91.642 170.914V171.572H90.41V171.04C90.41 170.872 90.382 170.765 90.326 170.718C90.2794 170.662 90.1674 170.634 89.99 170.634H89.654C89.486 170.634 89.374 170.662 89.318 170.718C89.262 170.765 89.234 170.872 89.234 171.04V172.216C89.234 172.384 89.262 172.496 89.318 172.552C89.374 172.599 89.486 172.622 89.654 172.622H90.382C90.83 172.622 91.1567 172.729 91.362 172.944C91.5674 173.149 91.67 173.457 91.67 173.868V175.268C91.67 175.669 91.5627 175.977 91.348 176.192C91.1427 176.397 90.816 176.5 90.368 176.5H89.332C88.884 176.5 88.5527 176.397 88.338 176.192C88.1327 175.977 88.03 175.669 88.03 175.268V174.596H89.276V175.128C89.276 175.287 89.304 175.394 89.36 175.45C89.416 175.506 89.5234 175.534 89.682 175.534H90.018C90.1954 175.534 90.3074 175.506 90.354 175.45C90.41 175.394 90.438 175.287 90.438 175.128ZM97.4192 169.654V170.76H96.9152C96.3272 170.76 96.0332 171.101 96.0332 171.782V172.076H95.9772V170.886C95.9772 170.69 96.0192 170.499 96.1032 170.312C96.1966 170.116 96.3272 169.957 96.4952 169.836C96.6726 169.715 96.8872 169.654 97.1392 169.654H97.4192ZM96.0332 176.5H94.7732V169.668H96.0332V170.942V176.5ZM99.3132 171.068V175.1C99.3132 175.259 99.3412 175.366 99.3972 175.422C99.4532 175.478 99.5652 175.506 99.7332 175.506H100.083V176.5H99.3832C98.9352 176.5 98.6038 176.397 98.3892 176.192C98.1838 175.977 98.0812 175.669 98.0812 175.268V170.914C98.0812 170.503 98.1838 170.195 98.3892 169.99C98.6038 169.775 98.9352 169.668 99.3832 169.668H100.153V170.662H99.7332C99.5652 170.662 99.4532 170.69 99.3972 170.746C99.3412 170.793 99.3132 170.9 99.3132 171.068ZM100.825 173.294V171.068C100.825 170.9 100.797 170.793 100.741 170.746C100.694 170.69 100.587 170.662 100.419 170.662H99.9712V169.668H100.755C101.212 169.668 101.544 169.775 101.749 169.99C101.964 170.195 102.071 170.503 102.071 170.914V173.294H100.825ZM100.797 175.086V174.526H102.029V175.268C102.029 175.669 101.926 175.977 101.721 176.192C101.516 176.397 101.184 176.5 100.727 176.5H99.9712V175.506H100.377C100.554 175.506 100.666 175.478 100.713 175.422C100.769 175.366 100.797 175.254 100.797 175.086ZM102.071 172.552V173.476H98.5292V172.552H102.071ZM104.33 173.322H103.07V170.914C103.07 170.503 103.173 170.195 103.378 169.99C103.583 169.775 103.901 169.668 104.33 169.668H104.834C105.114 169.668 105.338 169.743 105.506 169.892C105.674 170.041 105.758 170.284 105.758 170.62V171.558H105.702V171.18C105.702 171.003 105.665 170.877 105.59 170.802C105.515 170.727 105.399 170.69 105.24 170.69H104.75C104.582 170.69 104.47 170.718 104.414 170.774C104.358 170.821 104.33 170.928 104.33 171.096V173.322ZM106.962 176.5H105.702V170.648V170.55V169.668H106.962V176.5ZM103.07 172.846H104.33V175.072C104.33 175.231 104.358 175.338 104.414 175.394C104.47 175.45 104.582 175.478 104.75 175.478H105.24C105.399 175.478 105.515 175.445 105.59 175.38C105.665 175.305 105.702 175.175 105.702 174.988V174.624H105.758V175.548C105.758 175.884 105.674 176.127 105.506 176.276C105.338 176.425 105.114 176.5 104.834 176.5H104.33C103.901 176.5 103.583 176.397 103.378 176.192C103.173 175.977 103.07 175.669 103.07 175.268V172.846ZM109.375 173.308H108.115V170.9C108.115 170.489 108.218 170.181 108.423 169.976C108.628 169.761 108.946 169.654 109.375 169.654H109.879C110.159 169.654 110.383 169.729 110.551 169.878C110.719 170.027 110.803 170.27 110.803 170.606V171.614H110.747V171.166C110.747 170.989 110.71 170.863 110.635 170.788C110.56 170.713 110.444 170.676 110.285 170.676H109.795C109.627 170.676 109.515 170.704 109.459 170.76C109.403 170.807 109.375 170.914 109.375 171.082V173.308ZM110.747 167.134H112.007V176.5H110.747V175.632V175.562V167.134ZM108.115 172.846H109.375V175.072C109.375 175.231 109.403 175.338 109.459 175.394C109.515 175.45 109.627 175.478 109.795 175.478H110.285C110.444 175.478 110.56 175.445 110.635 175.38C110.71 175.305 110.747 175.175 110.747 174.988V174.666H110.803V175.548C110.803 175.884 110.719 176.127 110.551 176.276C110.383 176.425 110.159 176.5 109.879 176.5H109.375C108.946 176.5 108.628 176.397 108.423 176.192C108.218 175.977 108.115 175.669 108.115 175.268V172.846ZM112.74 169.668H114.028L115.064 175.394L116.03 169.668H117.304L115.862 177.158C115.769 177.569 115.591 177.881 115.33 178.096C115.078 178.32 114.719 178.432 114.252 178.432H113.412V177.424H113.986C114.182 177.424 114.341 177.391 114.462 177.326C114.593 177.27 114.677 177.149 114.714 176.962L114.854 176.388H114.168L112.74 169.668ZM121.467 168.604V176.5H120.207V168.366C120.207 167.965 120.309 167.661 120.515 167.456C120.729 167.241 121.061 167.134 121.509 167.134H122.475V168.198H121.887C121.719 168.198 121.607 168.226 121.551 168.282C121.495 168.329 121.467 168.436 121.467 168.604ZM122.475 169.668V170.69H119.521V169.668H122.475ZM125.928 174.26V171.082C125.928 170.905 125.9 170.793 125.844 170.746C125.797 170.69 125.685 170.662 125.508 170.662H125.088V169.668H125.872C126.329 169.668 126.661 169.775 126.866 169.99C127.071 170.195 127.174 170.503 127.174 170.914V174.26H125.928ZM125.928 175.086V173.672H127.174V175.268C127.174 175.669 127.071 175.977 126.866 176.192C126.661 176.397 126.329 176.5 125.872 176.5H125.018V175.506H125.508C125.685 175.506 125.797 175.478 125.844 175.422C125.9 175.366 125.928 175.254 125.928 175.086ZM124.332 171.082V174.274H123.086V170.914C123.086 170.503 123.189 170.195 123.394 169.99C123.599 169.775 123.926 169.668 124.374 169.668H125.172V170.662H124.752C124.584 170.662 124.472 170.69 124.416 170.746C124.36 170.793 124.332 170.905 124.332 171.082ZM124.332 173.588V175.086C124.332 175.254 124.36 175.366 124.416 175.422C124.472 175.478 124.584 175.506 124.752 175.506H125.13V176.5H124.374C123.926 176.5 123.599 176.397 123.394 176.192C123.189 175.977 123.086 175.669 123.086 175.268V173.588H124.332ZM130.984 169.654V170.76H130.48C129.892 170.76 129.598 171.101 129.598 171.782V172.076H129.542V170.886C129.542 170.69 129.584 170.499 129.668 170.312C129.761 170.116 129.892 169.957 130.06 169.836C130.237 169.715 130.452 169.654 130.704 169.654H130.984ZM129.598 176.5H128.338V169.668H129.598V170.942V176.5ZM133.193 169.668H134.481L135.517 175.394L136.483 169.668H137.757L136.315 177.158C136.222 177.569 136.044 177.881 135.783 178.096C135.531 178.32 135.172 178.432 134.705 178.432H133.865V177.424H134.439C134.635 177.424 134.794 177.391 134.915 177.326C135.046 177.27 135.13 177.149 135.167 176.962L135.307 176.388H134.621L133.193 169.668ZM141.254 174.26V171.082C141.254 170.905 141.226 170.793 141.17 170.746C141.124 170.69 141.012 170.662 140.834 170.662H140.414V169.668H141.198C141.656 169.668 141.987 169.775 142.192 169.99C142.398 170.195 142.5 170.503 142.5 170.914V174.26H141.254ZM141.254 175.086V173.672H142.5V175.268C142.5 175.669 142.398 175.977 142.192 176.192C141.987 176.397 141.656 176.5 141.198 176.5H140.344V175.506H140.834C141.012 175.506 141.124 175.478 141.17 175.422C141.226 175.366 141.254 175.254 141.254 175.086ZM139.658 171.082V174.274H138.412V170.914C138.412 170.503 138.515 170.195 138.72 169.99C138.926 169.775 139.252 169.668 139.7 169.668H140.498V170.662H140.078C139.91 170.662 139.798 170.69 139.742 170.746C139.686 170.793 139.658 170.905 139.658 171.082ZM139.658 173.588V175.086C139.658 175.254 139.686 175.366 139.742 175.422C139.798 175.478 139.91 175.506 140.078 175.506H140.456V176.5H139.7C139.252 176.5 138.926 176.397 138.72 176.192C138.515 175.977 138.412 175.669 138.412 175.268V173.588H139.658ZM143.65 169.668H144.91V175.072C144.91 175.231 144.938 175.338 144.994 175.394C145.05 175.45 145.162 175.478 145.33 175.478H145.82C145.979 175.478 146.095 175.445 146.17 175.38C146.245 175.305 146.282 175.175 146.282 174.988V174.54H146.338V175.548C146.338 175.884 146.254 176.127 146.086 176.276C145.918 176.425 145.694 176.5 145.414 176.5H144.91C144.481 176.5 144.163 176.397 143.958 176.192C143.753 175.977 143.65 175.669 143.65 175.268V169.668ZM146.282 169.668H147.542V176.5H146.282V175.646V175.562V169.668ZM151.423 169.654V170.76H150.919C150.331 170.76 150.037 171.101 150.037 171.782V172.076H149.981V170.886C149.981 170.69 150.023 170.499 150.107 170.312C150.2 170.116 150.331 169.957 150.499 169.836C150.676 169.715 150.891 169.654 151.143 169.654H151.423ZM150.037 176.5H148.777V169.668H150.037V170.942V176.5ZM156.783 169.654V170.76H156.279C155.691 170.76 155.397 171.101 155.397 171.782V172.076H155.341V170.886C155.341 170.69 155.383 170.499 155.467 170.312C155.56 170.116 155.691 169.957 155.859 169.836C156.036 169.715 156.251 169.654 156.503 169.654H156.783ZM155.397 176.5H154.137V169.668H155.397V170.942V176.5ZM158.676 171.068V175.1C158.676 175.259 158.704 175.366 158.76 175.422C158.816 175.478 158.928 175.506 159.096 175.506H159.446V176.5H158.746C158.298 176.5 157.967 176.397 157.752 176.192C157.547 175.977 157.444 175.669 157.444 175.268V170.914C157.444 170.503 157.547 170.195 157.752 169.99C157.967 169.775 158.298 169.668 158.746 169.668H159.516V170.662H159.096C158.928 170.662 158.816 170.69 158.76 170.746C158.704 170.793 158.676 170.9 158.676 171.068ZM160.188 173.294V171.068C160.188 170.9 160.16 170.793 160.104 170.746C160.058 170.69 159.95 170.662 159.782 170.662H159.334V169.668H160.118C160.576 169.668 160.907 169.775 161.112 169.99C161.327 170.195 161.434 170.503 161.434 170.914V173.294H160.188ZM160.16 175.086V174.526H161.392V175.268C161.392 175.669 161.29 175.977 161.084 176.192C160.879 176.397 160.548 176.5 160.09 176.5H159.334V175.506H159.74C159.918 175.506 160.03 175.478 160.076 175.422C160.132 175.366 160.16 175.254 160.16 175.086ZM161.434 172.552V173.476H157.892V172.552H161.434ZM164.799 175.128V173.994C164.799 173.826 164.771 173.719 164.715 173.672C164.669 173.616 164.557 173.588 164.379 173.588H163.665C163.208 173.588 162.877 173.485 162.671 173.28C162.466 173.065 162.363 172.757 162.363 172.356V170.914C162.363 170.503 162.466 170.195 162.671 169.99C162.886 169.775 163.217 169.668 163.665 169.668H164.687C165.145 169.668 165.476 169.775 165.681 169.99C165.896 170.195 166.003 170.503 166.003 170.914V171.572H164.771V171.04C164.771 170.872 164.743 170.765 164.687 170.718C164.641 170.662 164.529 170.634 164.351 170.634H164.015C163.847 170.634 163.735 170.662 163.679 170.718C163.623 170.765 163.595 170.872 163.595 171.04V172.216C163.595 172.384 163.623 172.496 163.679 172.552C163.735 172.599 163.847 172.622 164.015 172.622H164.743C165.191 172.622 165.518 172.729 165.723 172.944C165.929 173.149 166.031 173.457 166.031 173.868V175.268C166.031 175.669 165.924 175.977 165.709 176.192C165.504 176.397 165.177 176.5 164.729 176.5H163.693C163.245 176.5 162.914 176.397 162.699 176.192C162.494 175.977 162.391 175.669 162.391 175.268V174.596H163.637V175.128C163.637 175.287 163.665 175.394 163.721 175.45C163.777 175.506 163.885 175.534 164.043 175.534H164.379C164.557 175.534 164.669 175.506 164.715 175.45C164.771 175.394 164.799 175.287 164.799 175.128ZM171.003 173.322H169.743V171.096C169.743 170.928 169.715 170.821 169.659 170.774C169.603 170.718 169.491 170.69 169.323 170.69H168.833C168.674 170.69 168.558 170.727 168.483 170.802C168.408 170.877 168.371 171.003 168.371 171.18V171.628H168.315V170.62C168.315 170.284 168.399 170.041 168.567 169.892C168.735 169.743 168.959 169.668 169.239 169.668H169.743C170.172 169.668 170.49 169.775 170.695 169.99C170.9 170.195 171.003 170.503 171.003 170.914V173.322ZM168.371 178.432H167.111V169.668H168.371V170.48V170.62V178.432ZM169.743 172.846H171.003V175.268C171.003 175.669 170.9 175.977 170.695 176.192C170.49 176.397 170.172 176.5 169.743 176.5H169.239C168.959 176.5 168.735 176.425 168.567 176.276C168.399 176.127 168.315 175.884 168.315 175.548V174.666H168.371V174.988C168.371 175.175 168.408 175.305 168.483 175.38C168.558 175.445 168.674 175.478 168.833 175.478H169.323C169.491 175.478 169.603 175.45 169.659 175.394C169.715 175.338 169.743 175.231 169.743 175.072V172.846ZM174.928 174.26V171.082C174.928 170.905 174.9 170.793 174.844 170.746C174.797 170.69 174.685 170.662 174.508 170.662H174.088V169.668H174.872C175.329 169.668 175.661 169.775 175.866 169.99C176.071 170.195 176.174 170.503 176.174 170.914V174.26H174.928ZM174.928 175.086V173.672H176.174V175.268C176.174 175.669 176.071 175.977 175.866 176.192C175.661 176.397 175.329 176.5 174.872 176.5H174.018V175.506H174.508C174.685 175.506 174.797 175.478 174.844 175.422C174.9 175.366 174.928 175.254 174.928 175.086ZM173.332 171.082V174.274H172.086V170.914C172.086 170.503 172.189 170.195 172.394 169.99C172.599 169.775 172.926 169.668 173.374 169.668H174.172V170.662H173.752C173.584 170.662 173.472 170.69 173.416 170.746C173.36 170.793 173.332 170.905 173.332 171.082ZM173.332 173.588V175.086C173.332 175.254 173.36 175.366 173.416 175.422C173.472 175.478 173.584 175.506 173.752 175.506H174.13V176.5H173.374C172.926 176.5 172.599 176.397 172.394 176.192C172.189 175.977 172.086 175.669 172.086 175.268V173.588H173.332ZM178.598 176.5H177.338V169.668H178.598V170.522V170.606V176.5ZM181.23 176.5H179.97V171.096C179.97 170.928 179.942 170.821 179.886 170.774C179.83 170.718 179.718 170.69 179.55 170.69H179.06C178.901 170.69 178.784 170.727 178.71 170.802C178.635 170.877 178.598 171.003 178.598 171.18V171.628H178.542V170.62C178.542 170.284 178.626 170.041 178.794 169.892C178.962 169.743 179.186 169.668 179.466 169.668H179.97C180.399 169.668 180.716 169.775 180.922 169.99C181.127 170.195 181.23 170.503 181.23 170.914V176.5ZM184.733 175.128V173.994C184.733 173.826 184.705 173.719 184.649 173.672C184.602 173.616 184.49 173.588 184.313 173.588H183.599C183.142 173.588 182.81 173.485 182.605 173.28C182.4 173.065 182.297 172.757 182.297 172.356V170.914C182.297 170.503 182.4 170.195 182.605 169.99C182.82 169.775 183.151 169.668 183.599 169.668H184.621C185.078 169.668 185.41 169.775 185.615 169.99C185.83 170.195 185.937 170.503 185.937 170.914V171.572H184.705V171.04C184.705 170.872 184.677 170.765 184.621 170.718C184.574 170.662 184.462 170.634 184.285 170.634H183.949C183.781 170.634 183.669 170.662 183.613 170.718C183.557 170.765 183.529 170.872 183.529 171.04V172.216C183.529 172.384 183.557 172.496 183.613 172.552C183.669 172.599 183.781 172.622 183.949 172.622H184.677C185.125 172.622 185.452 172.729 185.657 172.944C185.862 173.149 185.965 173.457 185.965 173.868V175.268C185.965 175.669 185.858 175.977 185.643 176.192C185.438 176.397 185.111 176.5 184.663 176.5H183.627C183.179 176.5 182.848 176.397 182.633 176.192C182.428 175.977 182.325 175.669 182.325 175.268V174.596H183.571V175.128C183.571 175.287 183.599 175.394 183.655 175.45C183.711 175.506 183.818 175.534 183.977 175.534H184.313C184.49 175.534 184.602 175.506 184.649 175.45C184.705 175.394 184.733 175.287 184.733 175.128ZM188.249 171.068V175.1C188.249 175.259 188.277 175.366 188.333 175.422C188.389 175.478 188.501 175.506 188.669 175.506H189.019V176.5H188.319C187.871 176.5 187.539 176.397 187.325 176.192C187.119 175.977 187.017 175.669 187.017 175.268V170.914C187.017 170.503 187.119 170.195 187.325 169.99C187.539 169.775 187.871 169.668 188.319 169.668H189.089V170.662H188.669C188.501 170.662 188.389 170.69 188.333 170.746C188.277 170.793 188.249 170.9 188.249 171.068ZM189.761 173.294V171.068C189.761 170.9 189.733 170.793 189.677 170.746C189.63 170.69 189.523 170.662 189.355 170.662H188.907V169.668H189.691C190.148 169.668 190.479 169.775 190.685 169.99C190.899 170.195 191.007 170.503 191.007 170.914V173.294H189.761ZM189.733 175.086V174.526H190.965V175.268C190.965 175.669 190.862 175.977 190.657 176.192C190.451 176.397 190.12 176.5 189.663 176.5H188.907V175.506H189.313C189.49 175.506 189.602 175.478 189.649 175.422C189.705 175.366 189.733 175.254 189.733 175.086ZM191.007 172.552V173.476H187.465V172.552H191.007Z" fill="#DEDEDE"/>
</svg>
