<svg width="221" height="218" viewBox="0 0 221 218" fill="none" xmlns="http://www.w3.org/2000/svg">
<path d="M83.5 98C81.575 98 79.9277 97.3152 78.558 95.9455C77.1883 94.5758 76.5023 92.9273 76.5 91V49C76.5 47.075 77.186 45.4277 78.558 44.058C79.93 42.6883 81.5773 42.0023 83.5 42H139.5C141.425 42 143.073 42.686 144.445 44.058C145.817 45.43 146.502 47.0773 146.5 49V91C146.5 92.925 145.815 94.5735 144.445 95.9455C143.076 97.3175 141.427 98.0023 139.5 98H83.5ZM111.5 73.5L83.5 56V91H139.5V56L111.5 73.5ZM111.5 66.5L139.5 49H83.5L111.5 66.5ZM83.5 56V49V91V56Z" fill="#DEDEDE"/>
<path d="M96.4644 139.28H94.8244L93.1044 132.86V142H91.5244V129.48H93.5044L95.6444 137.24L97.7844 129.48H99.7644V142H98.1844V132.84L96.4644 139.28ZM103.357 137.46H101.557V134.02C101.557 133.433 101.704 132.993 101.997 132.7C102.29 132.393 102.744 132.24 103.357 132.24H104.077C104.477 132.24 104.797 132.347 105.037 132.56C105.277 132.773 105.397 133.12 105.397 133.6V134.94H105.317V134.4C105.317 134.147 105.264 133.967 105.157 133.86C105.05 133.753 104.884 133.7 104.657 133.7H103.957C103.717 133.7 103.557 133.74 103.477 133.82C103.397 133.887 103.357 134.04 103.357 134.28V137.46ZM107.117 142H105.317V133.64V133.5V132.24H107.117V142ZM101.557 136.78H103.357V139.96C103.357 140.187 103.397 140.34 103.477 140.42C103.557 140.5 103.717 140.54 103.957 140.54H104.657C104.884 140.54 105.05 140.493 105.157 140.4C105.264 140.293 105.317 140.107 105.317 139.84V139.32H105.397V140.64C105.397 141.12 105.277 141.467 105.037 141.68C104.797 141.893 104.477 142 104.077 142H103.357C102.744 142 102.29 141.853 101.997 141.56C101.704 141.253 101.557 140.813 101.557 140.24V136.78ZM110.684 142H108.884V132.24H110.684V142ZM108.844 130.38V128.6H110.724V130.38H108.844ZM114.239 142H112.439V128.62H114.239V142ZM123.144 139.96V129.48H124.964V140.24C124.964 140.813 124.811 141.253 124.504 141.56C124.211 141.853 123.737 142 123.084 142H121.764V140.54H122.564C122.804 140.54 122.957 140.5 123.024 140.42C123.104 140.34 123.144 140.187 123.144 139.96ZM120.804 129.48V139.96C120.804 140.187 120.844 140.34 120.924 140.42C121.004 140.5 121.164 140.54 121.404 140.54H122.024V142H120.864C120.211 142 119.731 141.853 119.424 141.56C119.131 141.253 118.984 140.813 118.984 140.24V129.48H120.804ZM130.093 140.04V138.42C130.093 138.18 130.053 138.027 129.973 137.96C129.906 137.88 129.746 137.84 129.493 137.84H128.473C127.82 137.84 127.346 137.693 127.053 137.4C126.76 137.093 126.613 136.653 126.613 136.08V134.02C126.613 133.433 126.76 132.993 127.053 132.7C127.36 132.393 127.833 132.24 128.473 132.24H129.933C130.586 132.24 131.06 132.393 131.353 132.7C131.66 132.993 131.813 133.433 131.813 134.02V134.96H130.053V134.2C130.053 133.96 130.013 133.807 129.933 133.74C129.866 133.66 129.706 133.62 129.453 133.62H128.973C128.733 133.62 128.573 133.66 128.493 133.74C128.413 133.807 128.373 133.96 128.373 134.2V135.88C128.373 136.12 128.413 136.28 128.493 136.36C128.573 136.427 128.733 136.46 128.973 136.46H130.013C130.653 136.46 131.12 136.613 131.413 136.92C131.706 137.213 131.853 137.653 131.853 138.24V140.24C131.853 140.813 131.7 141.253 131.393 141.56C131.1 141.853 130.633 142 129.993 142H128.513C127.873 142 127.4 141.853 127.093 141.56C126.8 141.253 126.653 140.813 126.653 140.24V139.28H128.433V140.04C128.433 140.267 128.473 140.42 128.553 140.5C128.633 140.58 128.786 140.62 129.013 140.62H129.493C129.746 140.62 129.906 140.58 129.973 140.5C130.053 140.42 130.093 140.267 130.093 140.04Z" fill="#DEDEDE"/>
<path d="M62.1126 168.572V161.236H63.3866V168.768C63.3866 169.169 63.2793 169.477 63.0646 169.692C62.8593 169.897 62.528 170 62.0706 170H61.1466V168.978H61.7066C61.8746 168.978 61.982 168.95 62.0286 168.894C62.0846 168.838 62.1126 168.731 62.1126 168.572ZM60.4746 161.236V168.572C60.4746 168.731 60.5026 168.838 60.5586 168.894C60.6146 168.95 60.7266 168.978 60.8946 168.978H61.3286V170H60.5166C60.0593 170 59.7233 169.897 59.5086 169.692C59.3033 169.477 59.2006 169.169 59.2006 168.768V161.236H60.4746ZM67.3411 163.154V164.26H66.8371C66.2491 164.26 65.9551 164.601 65.9551 165.282V165.576H65.8991V164.386C65.8991 164.19 65.9411 163.999 66.0251 163.812C66.1184 163.616 66.2491 163.457 66.4171 163.336C66.5944 163.215 66.8091 163.154 67.0611 163.154H67.3411ZM65.9551 170H64.6951V163.168H65.9551V164.442V170ZM70.663 166.346H71.923V168.768C71.923 169.169 71.8204 169.477 71.615 169.692C71.4097 169.897 71.0924 170 70.663 170H70.159C69.879 170 69.655 169.925 69.487 169.776C69.319 169.627 69.235 169.384 69.235 169.048V168.166H69.291V168.488C69.291 168.675 69.3284 168.805 69.403 168.88C69.4777 168.945 69.5944 168.978 69.753 168.978H70.243C70.411 168.978 70.523 168.95 70.579 168.894C70.635 168.838 70.663 168.731 70.663 168.572V166.346ZM71.923 166.808H70.663V164.582C70.663 164.414 70.635 164.307 70.579 164.26C70.523 164.204 70.411 164.176 70.243 164.176H69.753C69.5944 164.176 69.4777 164.213 69.403 164.288C69.3284 164.363 69.291 164.489 69.291 164.666V165.114H69.235V164.106C69.235 163.77 69.319 163.527 69.487 163.378C69.655 163.229 69.879 163.154 70.159 163.154H70.663C71.0924 163.154 71.4097 163.261 71.615 163.476C71.8204 163.681 71.923 163.989 71.923 164.4V166.808ZM68.031 160.634H69.291V169.062V169.132V170H68.031V160.634ZM74.252 166.822H72.992V164.414C72.992 164.003 73.0946 163.695 73.3 163.49C73.5053 163.275 73.8226 163.168 74.252 163.168H74.756C75.036 163.168 75.26 163.243 75.428 163.392C75.596 163.541 75.68 163.784 75.68 164.12V165.058H75.624V164.68C75.624 164.503 75.5866 164.377 75.512 164.302C75.4373 164.227 75.3206 164.19 75.162 164.19H74.672C74.504 164.19 74.392 164.218 74.336 164.274C74.28 164.321 74.252 164.428 74.252 164.596V166.822ZM76.884 170H75.624V164.148V164.05V163.168H76.884V170ZM72.992 166.346H74.252V168.572C74.252 168.731 74.28 168.838 74.336 168.894C74.392 168.95 74.504 168.978 74.672 168.978H75.162C75.3206 168.978 75.4373 168.945 75.512 168.88C75.5866 168.805 75.624 168.675 75.624 168.488V168.124H75.68V169.048C75.68 169.384 75.596 169.627 75.428 169.776C75.26 169.925 75.036 170 74.756 170H74.252C73.8226 170 73.5053 169.897 73.3 169.692C73.0946 169.477 72.992 169.169 72.992 168.768V166.346ZM79.3809 170H78.1209V163.168H79.3809V164.022V164.106V170ZM82.0129 170H80.7529V164.596C80.7529 164.428 80.7249 164.321 80.6689 164.274C80.6129 164.218 80.5009 164.19 80.3329 164.19H79.8429C79.6842 164.19 79.5675 164.227 79.4929 164.302C79.4182 164.377 79.3809 164.503 79.3809 164.68V165.128H79.3249V164.12C79.3249 163.784 79.4089 163.541 79.5769 163.392C79.7449 163.243 79.9689 163.168 80.2489 163.168H80.7529C81.1822 163.168 81.4995 163.275 81.7049 163.49C81.9102 163.695 82.0129 164.003 82.0129 164.414V170ZM86.2582 165.044V162.664C86.2582 162.496 86.2302 162.389 86.1742 162.342C86.1275 162.286 86.0155 162.258 85.8382 162.258H83.5142V161.236H86.2162C86.6735 161.236 87.0048 161.343 87.2102 161.558C87.4248 161.763 87.5322 162.067 87.5322 162.468V165.212C87.5322 165.623 87.4248 165.935 87.2102 166.15C87.0048 166.355 86.6735 166.458 86.2162 166.458H83.9622V165.45H85.8382C86.0155 165.45 86.1275 165.422 86.1742 165.366C86.2302 165.31 86.2582 165.203 86.2582 165.044ZM83.3462 161.236H84.6062V170H83.3462V161.236ZM85.1102 165.954H86.3982L87.9802 170H86.6082L85.1102 165.954ZM88.7709 163.168H90.0309V168.572C90.0309 168.731 90.0589 168.838 90.1149 168.894C90.1709 168.95 90.2829 168.978 90.4509 168.978H90.9409C91.0996 168.978 91.2163 168.945 91.2909 168.88C91.3656 168.805 91.4029 168.675 91.4029 168.488V168.04H91.4589V169.048C91.4589 169.384 91.3749 169.627 91.2069 169.776C91.0389 169.925 90.8149 170 90.5349 170H90.0309C89.6016 170 89.2843 169.897 89.0789 169.692C88.8736 169.477 88.7709 169.169 88.7709 168.768V163.168ZM91.4029 163.168H92.6629V170H91.4029V169.146V169.062V163.168ZM95.1582 170H93.8982V163.168H95.1582V164.022V164.106V170ZM97.7902 170H96.5302V164.596C96.5302 164.428 96.5022 164.321 96.4462 164.274C96.3902 164.218 96.2782 164.19 96.1102 164.19H95.6202C95.4616 164.19 95.3449 164.227 95.2702 164.302C95.1956 164.377 95.1582 164.503 95.1582 164.68V165.128H95.1022V164.12C95.1022 163.784 95.1862 163.541 95.3542 163.392C95.5222 163.243 95.7462 163.168 96.0262 163.168H96.5302C96.9596 163.168 97.2769 163.275 97.4822 163.49C97.6876 163.695 97.7902 164.003 97.7902 164.414V170ZM100.272 170H99.0115V163.168H100.272V164.022V164.106V170ZM102.904 170H101.644V164.596C101.644 164.428 101.616 164.321 101.56 164.274C101.504 164.218 101.392 164.19 101.224 164.19H100.734C100.575 164.19 100.458 164.227 100.384 164.302C100.309 164.377 100.272 164.503 100.272 164.68V165.128H100.216V164.12C100.216 163.784 100.3 163.541 100.468 163.392C100.636 163.243 100.86 163.168 101.14 163.168H101.644C102.073 163.168 102.39 163.275 102.596 163.49C102.801 163.695 102.904 164.003 102.904 164.414V170ZM105.329 164.568V168.6C105.329 168.759 105.357 168.866 105.413 168.922C105.469 168.978 105.581 169.006 105.749 169.006H106.099V170H105.399C104.951 170 104.619 169.897 104.405 169.692C104.199 169.477 104.097 169.169 104.097 168.768V164.414C104.097 164.003 104.199 163.695 104.405 163.49C104.619 163.275 104.951 163.168 105.399 163.168H106.169V164.162H105.749C105.581 164.162 105.469 164.19 105.413 164.246C105.357 164.293 105.329 164.4 105.329 164.568ZM106.841 166.794V164.568C106.841 164.4 106.813 164.293 106.757 164.246C106.71 164.19 106.603 164.162 106.435 164.162H105.987V163.168H106.771C107.228 163.168 107.559 163.275 107.765 163.49C107.979 163.695 108.087 164.003 108.087 164.414V166.794H106.841ZM106.813 168.586V168.026H108.045V168.768C108.045 169.169 107.942 169.477 107.737 169.692C107.531 169.897 107.2 170 106.743 170H105.987V169.006H106.393C106.57 169.006 106.682 168.978 106.729 168.922C106.785 168.866 106.813 168.754 106.813 168.586ZM108.087 166.052V166.976H104.545V166.052H108.087ZM111.816 163.154V164.26H111.312C110.724 164.26 110.43 164.601 110.43 165.282V165.576H110.374V164.386C110.374 164.19 110.416 163.999 110.5 163.812C110.593 163.616 110.724 163.457 110.892 163.336C111.069 163.215 111.284 163.154 111.536 163.154H111.816ZM110.43 170H109.17V163.168H110.43V164.442V170ZM115.152 165.198C115.152 164.806 115.25 164.507 115.446 164.302C115.651 164.097 115.964 163.994 116.384 163.994H116.762C116.976 163.994 117.154 164.041 117.294 164.134C117.443 164.218 117.55 164.353 117.616 164.54V163.994H118.764V167.914H119.38C119.557 167.914 119.669 167.886 119.716 167.83C119.772 167.774 119.8 167.667 119.8 167.508V163.378C119.8 163.21 119.772 163.098 119.716 163.042C119.669 162.986 119.557 162.958 119.38 162.958H114.564C114.405 162.958 114.298 162.986 114.242 163.042C114.186 163.098 114.158 163.21 114.158 163.378V169.566C114.158 169.725 114.186 169.832 114.242 169.888C114.298 169.944 114.405 169.972 114.564 169.972H118.778V170.98H114.214C113.775 170.98 113.453 170.873 113.248 170.658C113.052 170.453 112.954 170.149 112.954 169.748V163.182C112.954 162.781 113.052 162.477 113.248 162.272C113.453 162.057 113.775 161.95 114.214 161.95H119.73C120.159 161.95 120.476 162.057 120.682 162.272C120.887 162.477 120.99 162.781 120.99 163.182V167.634C120.99 168.035 120.887 168.343 120.682 168.558C120.476 168.763 120.154 168.866 119.716 168.866H117.686V168.152C117.658 168.404 117.555 168.586 117.378 168.698C117.21 168.81 117.004 168.866 116.762 168.866H116.384C115.964 168.866 115.651 168.763 115.446 168.558C115.25 168.353 115.152 168.054 115.152 167.662V165.198ZM116.342 165.352V167.508C116.342 167.667 116.37 167.774 116.426 167.83C116.482 167.886 116.589 167.914 116.748 167.914H117.154C117.312 167.914 117.424 167.877 117.49 167.802C117.564 167.727 117.602 167.601 117.602 167.424V165.436C117.602 165.259 117.564 165.137 117.49 165.072C117.424 164.997 117.312 164.96 117.154 164.96H116.748C116.589 164.96 116.482 164.983 116.426 165.03C116.37 165.077 116.342 165.184 116.342 165.352ZM122.17 166.346H123.43V168.488C123.43 168.647 123.458 168.754 123.514 168.81C123.57 168.866 123.682 168.894 123.85 168.894H124.34C124.498 168.894 124.615 168.857 124.69 168.782C124.764 168.707 124.802 168.581 124.802 168.404V168.068L124.858 168.082V168.964C124.858 169.3 124.774 169.543 124.606 169.692C124.438 169.841 124.214 169.916 123.934 169.916H123.43C123 169.916 122.683 169.813 122.478 169.608C122.272 169.393 122.17 169.081 122.17 168.67V166.346ZM123.43 166.822H122.17V164.414C122.17 164.003 122.272 163.695 122.478 163.49C122.683 163.275 123 163.168 123.43 163.168H123.934C124.214 163.168 124.438 163.243 124.606 163.392C124.774 163.541 124.858 163.784 124.858 164.12V165.128H124.802V164.68C124.802 164.503 124.764 164.377 124.69 164.302C124.615 164.227 124.498 164.19 124.34 164.19H123.85C123.682 164.19 123.57 164.218 123.514 164.274C123.458 164.321 123.43 164.428 123.43 164.596V166.822ZM124.802 170.532V169.762H126.062V170.7C126.062 171.101 125.954 171.405 125.74 171.61C125.534 171.825 125.208 171.932 124.76 171.932H122.408V170.938H124.382C124.55 170.938 124.662 170.91 124.718 170.854C124.774 170.798 124.802 170.691 124.802 170.532ZM126.062 169.93H124.802V164.036V164.008V163.168H126.062V169.93ZM131.191 170H129.931V164.596C129.931 164.428 129.903 164.321 129.847 164.274C129.791 164.218 129.679 164.19 129.511 164.19H129.021C128.862 164.19 128.745 164.227 128.671 164.302C128.596 164.377 128.559 164.503 128.559 164.68V165.128H128.503V164.12C128.503 163.784 128.587 163.541 128.755 163.392C128.923 163.243 129.147 163.168 129.427 163.168H129.931C130.36 163.168 130.677 163.275 130.883 163.49C131.088 163.695 131.191 164.003 131.191 164.414V170ZM128.559 170H127.299V163.168H128.559V164.022V164.106V170ZM133.823 170H132.549V164.596C132.549 164.428 132.521 164.321 132.465 164.274C132.418 164.218 132.311 164.19 132.143 164.19H131.639C131.489 164.19 131.377 164.227 131.303 164.302C131.228 164.377 131.191 164.503 131.191 164.68V165.128H131.079L131.051 164.134C131.041 163.798 131.13 163.555 131.317 163.406C131.513 163.247 131.76 163.168 132.059 163.168H132.549C132.987 163.168 133.309 163.275 133.515 163.49C133.72 163.695 133.823 164.003 133.823 164.414V170ZM136.158 166.822H134.898V164.414C134.898 164.003 135.001 163.695 135.206 163.49C135.412 163.275 135.729 163.168 136.158 163.168H136.662C136.942 163.168 137.166 163.243 137.334 163.392C137.502 163.541 137.586 163.784 137.586 164.12V165.058H137.53V164.68C137.53 164.503 137.493 164.377 137.418 164.302C137.344 164.227 137.227 164.19 137.068 164.19H136.578C136.41 164.19 136.298 164.218 136.242 164.274C136.186 164.321 136.158 164.428 136.158 164.596V166.822ZM138.79 170H137.53V164.148V164.05V163.168H138.79V170ZM134.898 166.346H136.158V168.572C136.158 168.731 136.186 168.838 136.242 168.894C136.298 168.95 136.41 168.978 136.578 168.978H137.068C137.227 168.978 137.344 168.945 137.418 168.88C137.493 168.805 137.53 168.675 137.53 168.488V168.124H137.586V169.048C137.586 169.384 137.502 169.627 137.334 169.776C137.166 169.925 136.942 170 136.662 170H136.158C135.729 170 135.412 169.897 135.206 169.692C135.001 169.477 134.898 169.169 134.898 168.768V166.346ZM141.287 170H140.027V163.168H141.287V170ZM139.999 161.866V160.62H141.315V161.866H139.999ZM143.775 170H142.515V160.634H143.775V170ZM144.836 170V168.278H146.25V170H144.836ZM148.49 164.596V168.572C148.49 168.731 148.518 168.838 148.574 168.894C148.63 168.95 148.742 168.978 148.91 168.978H149.232V170H148.532C148.084 170 147.753 169.897 147.538 169.692C147.333 169.477 147.23 169.169 147.23 168.768V164.414C147.23 164.003 147.333 163.695 147.538 163.49C147.753 163.275 148.084 163.168 148.532 163.168H149.302V164.19H148.91C148.742 164.19 148.63 164.218 148.574 164.274C148.518 164.321 148.49 164.428 148.49 164.596ZM149.932 165.324V164.596C149.932 164.428 149.904 164.321 149.848 164.274C149.792 164.218 149.68 164.19 149.512 164.19H149.106V163.168H149.862C150.32 163.168 150.651 163.275 150.856 163.49C151.071 163.695 151.178 164.003 151.178 164.414V165.324H149.932ZM149.932 168.572V167.844H151.178V168.768C151.178 169.169 151.071 169.477 150.856 169.692C150.651 169.897 150.32 170 149.862 170H149.106V168.978H149.512C149.68 168.978 149.792 168.95 149.848 168.894C149.904 168.838 149.932 168.731 149.932 168.572ZM155.008 167.76V164.582C155.008 164.405 154.98 164.293 154.924 164.246C154.877 164.19 154.765 164.162 154.588 164.162H154.168V163.168H154.952C155.409 163.168 155.741 163.275 155.946 163.49C156.151 163.695 156.254 164.003 156.254 164.414V167.76H155.008ZM155.008 168.586V167.172H156.254V168.768C156.254 169.169 156.151 169.477 155.946 169.692C155.741 169.897 155.409 170 154.952 170H154.098V169.006H154.588C154.765 169.006 154.877 168.978 154.924 168.922C154.98 168.866 155.008 168.754 155.008 168.586ZM153.412 164.582V167.774H152.166V164.414C152.166 164.003 152.269 163.695 152.474 163.49C152.679 163.275 153.006 163.168 153.454 163.168H154.252V164.162H153.832C153.664 164.162 153.552 164.19 153.496 164.246C153.44 164.293 153.412 164.405 153.412 164.582ZM153.412 167.088V168.586C153.412 168.754 153.44 168.866 153.496 168.922C153.552 168.978 153.664 169.006 153.832 169.006H154.21V170H153.454C153.006 170 152.679 169.897 152.474 169.692C152.269 169.477 152.166 169.169 152.166 168.768V167.088H153.412ZM161.31 170H160.05V164.596C160.05 164.428 160.022 164.321 159.966 164.274C159.91 164.218 159.798 164.19 159.63 164.19H159.14C158.981 164.19 158.864 164.227 158.79 164.302C158.715 164.377 158.678 164.503 158.678 164.68V165.128H158.622V164.12C158.622 163.784 158.706 163.541 158.874 163.392C159.042 163.243 159.266 163.168 159.546 163.168H160.05C160.479 163.168 160.796 163.275 161.002 163.49C161.207 163.695 161.31 164.003 161.31 164.414V170ZM158.678 170H157.418V163.168H158.678V164.022V164.106V170ZM163.942 170H162.668V164.596C162.668 164.428 162.64 164.321 162.584 164.274C162.537 164.218 162.43 164.19 162.262 164.19H161.758C161.608 164.19 161.496 164.227 161.422 164.302C161.347 164.377 161.31 164.503 161.31 164.68V165.128H161.198L161.17 164.134C161.16 163.798 161.249 163.555 161.436 163.406C161.632 163.247 161.879 163.168 162.178 163.168H162.668C163.106 163.168 163.428 163.275 163.634 163.49C163.839 163.695 163.942 164.003 163.942 164.414V170Z" fill="#DEDEDE"/>
</svg>
