<svg width="221" height="218" viewBox="0 0 221 218" fill="none" xmlns="http://www.w3.org/2000/svg">
<path d="M111.5 30.5C120.783 30.5 129.685 34.1875 136.249 40.7513C142.813 47.315 146.5 56.2174 146.5 65.5C146.5 77.4544 139.982 87.2389 133.114 94.2583C129.683 97.7275 125.939 100.873 121.93 103.654L120.273 104.782L119.496 105.299L118.029 106.232L116.723 107.029L115.105 107.971C114.007 108.597 112.764 108.927 111.5 108.927C110.236 108.927 108.993 108.597 107.895 107.971L106.277 107.029L104.255 105.785L103.508 105.299L101.914 104.237C97.5888 101.311 93.5602 97.9687 89.8856 94.2583C83.0178 87.235 76.5 77.4544 76.5 65.5C76.5 56.2174 80.1875 47.315 86.7513 40.7513C93.315 34.1875 102.217 30.5 111.5 30.5ZM111.5 53.8333C109.968 53.8333 108.451 54.1351 107.035 54.7214C105.62 55.3077 104.334 56.1671 103.25 57.2504C102.167 58.3338 101.308 59.6199 100.721 61.0354C100.135 62.4508 99.8333 63.9679 99.8333 65.5C99.8333 67.0321 100.135 68.5492 100.721 69.9646C101.308 71.3801 102.167 72.6662 103.25 73.7496C104.334 74.8329 105.62 75.6923 107.035 76.2786C108.451 76.8649 109.968 77.1667 111.5 77.1667C114.594 77.1667 117.562 75.9375 119.75 73.7496C121.938 71.5617 123.167 68.5942 123.167 65.5C123.167 62.4058 121.938 59.4383 119.75 57.2504C117.562 55.0625 114.594 53.8333 111.5 53.8333Z" fill="#DEDEDE"/>
<path d="M88.1625 149.127V142.447C88.1625 142.207 88.1225 142.054 88.0425 141.987C87.9758 141.907 87.8158 141.867 87.5625 141.867H86.9025V140.407H88.1025C88.7558 140.407 89.2292 140.56 89.5225 140.867C89.8292 141.16 89.9825 141.594 89.9825 142.167V149.127H88.1625ZM88.1625 150.887V148.287H89.9825V151.167C89.9825 151.74 89.8292 152.18 89.5225 152.487C89.2292 152.78 88.7558 152.927 88.1025 152.927H86.7825V151.467H87.5625C87.8158 151.467 87.9758 151.427 88.0425 151.347C88.1225 151.267 88.1625 151.114 88.1625 150.887ZM85.8225 142.447V149.147H84.0025V142.167C84.0025 141.594 84.1492 141.16 84.4425 140.867C84.7492 140.56 85.2292 140.407 85.8825 140.407H87.0825V141.867H86.4225C86.1825 141.867 86.0225 141.907 85.9425 141.987C85.8625 142.054 85.8225 142.207 85.8225 142.447ZM85.8225 148.147V150.887C85.8225 151.114 85.8625 151.267 85.9425 151.347C86.0225 151.427 86.1825 151.467 86.4225 151.467H87.0425V152.927H85.8825C85.2292 152.927 84.7492 152.78 84.4425 152.487C84.1492 152.18 84.0025 151.74 84.0025 151.167V148.147H85.8225ZM91.7741 143.167H93.5741V150.887C93.5741 151.114 93.6141 151.267 93.6941 151.347C93.7741 151.427 93.9341 151.467 94.1741 151.467H94.8741C95.1007 151.467 95.2674 151.42 95.3741 151.327C95.4807 151.22 95.5341 151.034 95.5341 150.767V150.127H95.6141V151.567C95.6141 152.047 95.4941 152.394 95.2541 152.607C95.0141 152.82 94.6941 152.927 94.2941 152.927H93.5741C92.9607 152.927 92.5074 152.78 92.2141 152.487C91.9207 152.18 91.7741 151.74 91.7741 151.167V143.167ZM95.5341 143.167H97.3341V152.927H95.5341V151.707V151.587V143.167ZM102.879 143.147V144.727H102.159C101.319 144.727 100.899 145.214 100.899 146.187V146.607H100.819V144.907C100.819 144.627 100.879 144.354 100.999 144.087C101.132 143.807 101.319 143.58 101.559 143.407C101.812 143.234 102.119 143.147 102.479 143.147H102.879ZM100.899 152.927H99.0988V143.167H100.899V144.987V152.927ZM110.975 149.127V142.447C110.975 142.207 110.935 142.054 110.855 141.987C110.788 141.907 110.628 141.867 110.375 141.867H109.715V140.407H110.915C111.568 140.407 112.042 140.56 112.335 140.867C112.642 141.16 112.795 141.594 112.795 142.167V149.127H110.975ZM110.975 150.887V148.287H112.795V151.167C112.795 151.74 112.642 152.18 112.335 152.487C112.042 152.78 111.568 152.927 110.915 152.927H109.595V151.467H110.375C110.628 151.467 110.788 151.427 110.855 151.347C110.935 151.267 110.975 151.114 110.975 150.887ZM108.635 142.447V149.147H106.815V142.167C106.815 141.594 106.962 141.16 107.255 140.867C107.562 140.56 108.042 140.407 108.695 140.407H109.895V141.867H109.235C108.995 141.867 108.835 141.907 108.755 141.987C108.675 142.054 108.635 142.207 108.635 142.447ZM108.635 148.147V150.887C108.635 151.114 108.675 151.267 108.755 151.347C108.835 151.427 108.995 151.467 109.235 151.467H109.855V152.927H108.695C108.042 152.927 107.562 152.78 107.255 152.487C106.962 152.18 106.815 151.74 106.815 151.167V148.147H108.635ZM116.627 141.647V152.927H114.827V141.307C114.827 140.734 114.973 140.3 115.267 140.007C115.573 139.7 116.047 139.547 116.687 139.547H118.067V141.067H117.227C116.987 141.067 116.827 141.107 116.747 141.187C116.667 141.254 116.627 141.407 116.627 141.647ZM118.067 143.167V144.627H113.847V143.167H118.067ZM124.82 152.927H123.02V143.167H124.82V152.927ZM121.04 141.627V152.927H119.26V141.307C119.26 140.734 119.407 140.3 119.7 140.007C120.007 139.7 120.48 139.547 121.12 139.547H122.04V141.047H121.64C121.4 141.047 121.24 141.087 121.16 141.167C121.08 141.234 121.04 141.387 121.04 141.627ZM124.4 143.167V144.627H118.28V143.167H124.4ZM123.02 141.047V139.547H124.82V141.047H123.02ZM128.259 145.207V150.887C128.259 151.114 128.299 151.267 128.379 151.347C128.459 151.427 128.619 151.467 128.859 151.467H129.319V152.927H128.319C127.679 152.927 127.206 152.78 126.899 152.487C126.606 152.18 126.459 151.74 126.459 151.167V144.947C126.459 144.36 126.606 143.92 126.899 143.627C127.206 143.32 127.679 143.167 128.319 143.167H129.419V144.627H128.859C128.619 144.627 128.459 144.667 128.379 144.747C128.299 144.814 128.259 144.967 128.259 145.207ZM130.319 146.247V145.207C130.319 144.967 130.279 144.814 130.199 144.747C130.119 144.667 129.959 144.627 129.719 144.627H129.139V143.167H130.219C130.873 143.167 131.346 143.32 131.639 143.627C131.946 143.92 132.099 144.36 132.099 144.947V146.247H130.319ZM130.319 150.887V149.847H132.099V151.167C132.099 151.74 131.946 152.18 131.639 152.487C131.346 152.78 130.873 152.927 130.219 152.927H129.139V151.467H129.719C129.959 151.467 130.119 151.427 130.199 151.347C130.279 151.267 130.319 151.114 130.319 150.887ZM135.33 145.167V150.927C135.33 151.154 135.37 151.307 135.45 151.387C135.53 151.467 135.69 151.507 135.93 151.507H136.43V152.927H135.43C134.79 152.927 134.317 152.78 134.01 152.487C133.717 152.18 133.57 151.74 133.57 151.167V144.947C133.57 144.36 133.717 143.92 134.01 143.627C134.317 143.32 134.79 143.167 135.43 143.167H136.53V144.587H135.93C135.69 144.587 135.53 144.627 135.45 144.707C135.37 144.774 135.33 144.927 135.33 145.167ZM137.49 148.347V145.167C137.49 144.927 137.45 144.774 137.37 144.707C137.304 144.627 137.15 144.587 136.91 144.587H136.27V143.167H137.39C138.044 143.167 138.517 143.32 138.81 143.627C139.117 143.92 139.27 144.36 139.27 144.947V148.347H137.49ZM137.45 150.907V150.107H139.21V151.167C139.21 151.74 139.064 152.18 138.77 152.487C138.477 152.78 138.004 152.927 137.35 152.927H136.27V151.507H136.85C137.104 151.507 137.264 151.467 137.33 151.387C137.41 151.307 137.45 151.147 137.45 150.907ZM139.27 147.287V148.607H134.21V147.287H139.27Z" fill="#DEDEDE"/>
<path d="M38.2043 172.163H39.4643V180.927H38.2043V172.163ZM43.9017 179.499V172.163H45.1757V179.695C45.1757 180.096 45.0684 180.404 44.8537 180.619C44.6484 180.824 44.317 180.927 43.8597 180.927H42.9357V179.905H43.4957C43.6637 179.905 43.771 179.877 43.8177 179.821C43.8737 179.765 43.9017 179.658 43.9017 179.499ZM42.2637 172.163V179.499C42.2637 179.658 42.2917 179.765 42.3477 179.821C42.4037 179.877 42.5157 179.905 42.6837 179.905H43.1177V180.927H42.3057C41.8484 180.927 41.5124 180.824 41.2977 180.619C41.0924 180.404 40.9897 180.096 40.9897 179.695V172.163H42.2637ZM50.1102 176.055V177.077H47.4922V176.055H50.1102ZM46.5962 172.163H47.8702V180.927H46.5962V172.163ZM49.7182 172.163H50.9922V180.927H49.7182V172.163ZM52.1541 179.205H53.5681V180.115L52.6021 182.887H52.1541V179.205ZM59.89 172.163H61.052V180.927H59.778L57.93 174.613V180.927H56.768V172.163H58.098L59.89 178.309V172.163ZM62.3142 177.273H63.5742V179.415C63.5742 179.574 63.6022 179.681 63.6582 179.737C63.7142 179.793 63.8262 179.821 63.9942 179.821H64.4842C64.6429 179.821 64.7596 179.784 64.8342 179.709C64.9089 179.634 64.9462 179.508 64.9462 179.331V178.995L65.0022 179.009V179.891C65.0022 180.227 64.9182 180.47 64.7502 180.619C64.5822 180.768 64.3582 180.843 64.0782 180.843H63.5742C63.1449 180.843 62.8276 180.74 62.6222 180.535C62.4169 180.32 62.3142 180.008 62.3142 179.597V177.273ZM63.5742 177.749H62.3142V175.341C62.3142 174.93 62.4169 174.622 62.6222 174.417C62.8276 174.202 63.1449 174.095 63.5742 174.095H64.0782C64.3582 174.095 64.5822 174.17 64.7502 174.319C64.9182 174.468 65.0022 174.711 65.0022 175.047V176.055H64.9462V175.607C64.9462 175.43 64.9089 175.304 64.8342 175.229C64.7596 175.154 64.6429 175.117 64.4842 175.117H63.9942C63.8262 175.117 63.7142 175.145 63.6582 175.201C63.6022 175.248 63.5742 175.355 63.5742 175.523V177.749ZM64.9462 181.459V180.689H66.2062V181.627C66.2062 182.028 66.0989 182.332 65.8842 182.537C65.6789 182.752 65.3522 182.859 64.9042 182.859H62.5522V181.865H64.5262C64.6942 181.865 64.8062 181.837 64.8622 181.781C64.9182 181.725 64.9462 181.618 64.9462 181.459ZM66.2062 180.857H64.9462V174.963V174.935V174.095H66.2062V180.857ZM67.4291 174.095H68.6891V179.499C68.6891 179.658 68.7171 179.765 68.7731 179.821C68.8291 179.877 68.9411 179.905 69.1091 179.905H69.5991C69.7578 179.905 69.8745 179.872 69.9491 179.807C70.0238 179.732 70.0611 179.602 70.0611 179.415V178.967H70.1171V179.975C70.1171 180.311 70.0331 180.554 69.8651 180.703C69.6971 180.852 69.4731 180.927 69.1931 180.927H68.6891C68.2598 180.927 67.9425 180.824 67.7371 180.619C67.5318 180.404 67.4291 180.096 67.4291 179.695V174.095ZM70.0611 174.095H71.3211V180.927H70.0611V180.073V179.989V174.095ZM72.0524 174.095H73.3404L74.3764 179.821L75.3424 174.095H76.6164L75.1744 181.585C75.0811 181.996 74.9038 182.308 74.6424 182.523C74.3904 182.747 74.0311 182.859 73.5644 182.859H72.7244V181.851H73.2984C73.4944 181.851 73.6531 181.818 73.7744 181.753C73.9051 181.697 73.9891 181.576 74.0264 181.389L74.1664 180.815H73.4804L72.0524 174.095ZM78.5456 175.495V179.527C78.5456 179.686 78.5736 179.793 78.6296 179.849C78.6856 179.905 78.7976 179.933 78.9656 179.933H79.3156V180.927H78.6156C78.1676 180.927 77.8363 180.824 77.6216 180.619C77.4163 180.404 77.3136 180.096 77.3136 179.695V175.341C77.3136 174.93 77.4163 174.622 77.6216 174.417C77.8363 174.202 78.1676 174.095 78.6156 174.095H79.3856V175.089H78.9656C78.7976 175.089 78.6856 175.117 78.6296 175.173C78.5736 175.22 78.5456 175.327 78.5456 175.495ZM80.0576 177.721V175.495C80.0576 175.327 80.0296 175.22 79.9736 175.173C79.9269 175.117 79.8196 175.089 79.6516 175.089H79.2036V174.095H79.9876C80.4449 174.095 80.7763 174.202 80.9816 174.417C81.1963 174.622 81.3036 174.93 81.3036 175.341V177.721H80.0576ZM80.0296 179.513V178.953H81.2616V179.695C81.2616 180.096 81.1589 180.404 80.9536 180.619C80.7483 180.824 80.4169 180.927 79.9596 180.927H79.2036V179.933H79.6096C79.7869 179.933 79.8989 179.905 79.9456 179.849C80.0016 179.793 80.0296 179.681 80.0296 179.513ZM81.3036 176.979V177.903H77.7616V176.979H81.3036ZM83.6465 180.927H82.3865V174.095H83.6465V174.949V175.033V180.927ZM86.2785 180.927H85.0185V175.523C85.0185 175.355 84.9905 175.248 84.9345 175.201C84.8785 175.145 84.7665 175.117 84.5985 175.117H84.1085C83.9498 175.117 83.8332 175.154 83.7585 175.229C83.6838 175.304 83.6465 175.43 83.6465 175.607V176.055H83.5905V175.047C83.5905 174.711 83.6745 174.468 83.8425 174.319C84.0105 174.17 84.2345 174.095 84.5145 174.095H85.0185C85.4478 174.095 85.7652 174.202 85.9705 174.417C86.1758 174.622 86.2785 174.93 86.2785 175.341V180.927ZM92.6312 172.163H93.9332L92.3512 180.927H90.5592L88.9772 172.163H90.2792L91.4552 179.765L92.6312 172.163ZM95.7988 177.749H94.5388V175.341C94.5388 174.93 94.6415 174.622 94.8468 174.417C95.0522 174.202 95.3695 174.095 95.7988 174.095H96.3028C96.5828 174.095 96.8068 174.17 96.9748 174.319C97.1428 174.468 97.2268 174.711 97.2268 175.047V175.985H97.1708V175.607C97.1708 175.43 97.1335 175.304 97.0588 175.229C96.9842 175.154 96.8675 175.117 96.7088 175.117H96.2188C96.0508 175.117 95.9388 175.145 95.8828 175.201C95.8268 175.248 95.7988 175.355 95.7988 175.523V177.749ZM98.4308 180.927H97.1708V175.075V174.977V174.095H98.4308V180.927ZM94.5388 177.273H95.7988V179.499C95.7988 179.658 95.8268 179.765 95.8828 179.821C95.9388 179.877 96.0508 179.905 96.2188 179.905H96.7088C96.8675 179.905 96.9842 179.872 97.0588 179.807C97.1335 179.732 97.1708 179.602 97.1708 179.415V179.051H97.2268V179.975C97.2268 180.311 97.1428 180.554 96.9748 180.703C96.8068 180.852 96.5828 180.927 96.3028 180.927H95.7988C95.3695 180.927 95.0522 180.824 94.8468 180.619C94.6415 180.404 94.5388 180.096 94.5388 179.695V177.273ZM100.928 180.927H99.6678V174.095H100.928V174.949V175.033V180.927ZM103.56 180.927H102.3V175.523C102.3 175.355 102.272 175.248 102.216 175.201C102.16 175.145 102.048 175.117 101.88 175.117H101.39C101.231 175.117 101.114 175.154 101.04 175.229C100.965 175.304 100.928 175.43 100.928 175.607V176.055H100.872V175.047C100.872 174.711 100.956 174.468 101.124 174.319C101.292 174.17 101.516 174.095 101.796 174.095H102.3C102.729 174.095 103.046 174.202 103.252 174.417C103.457 174.622 103.56 174.93 103.56 175.341V180.927ZM106.916 172.163H109.954C110.412 172.163 110.743 172.27 110.948 172.485C111.163 172.69 111.27 172.994 111.27 173.395V175.621C111.27 175.854 111.224 176.046 111.13 176.195C111.037 176.344 110.897 176.442 110.71 176.489C110.897 176.536 111.037 176.624 111.13 176.755C111.224 176.886 111.27 177.068 111.27 177.301V179.695C111.27 180.096 111.163 180.404 110.948 180.619C110.743 180.824 110.412 180.927 109.954 180.927H106.916V172.163ZM109.996 179.527V177.371C109.996 177.203 109.968 177.096 109.912 177.049C109.866 176.993 109.754 176.965 109.576 176.965H108.19V179.933H109.576C109.754 179.933 109.866 179.905 109.912 179.849C109.968 179.793 109.996 179.686 109.996 179.527ZM109.996 175.565V173.563C109.996 173.395 109.968 173.288 109.912 173.241C109.866 173.185 109.754 173.157 109.576 173.157H108.19V175.971H109.576C109.754 175.971 109.866 175.943 109.912 175.887C109.968 175.831 109.996 175.724 109.996 175.565ZM113.709 177.749H112.449V175.341C112.449 174.93 112.552 174.622 112.757 174.417C112.962 174.202 113.28 174.095 113.709 174.095H114.213C114.493 174.095 114.717 174.17 114.885 174.319C115.053 174.468 115.137 174.711 115.137 175.047V175.985H115.081V175.607C115.081 175.43 115.044 175.304 114.969 175.229C114.894 175.154 114.778 175.117 114.619 175.117H114.129C113.961 175.117 113.849 175.145 113.793 175.201C113.737 175.248 113.709 175.355 113.709 175.523V177.749ZM116.341 180.927H115.081V175.075V174.977V174.095H116.341V180.927ZM112.449 177.273H113.709V179.499C113.709 179.658 113.737 179.765 113.793 179.821C113.849 179.877 113.961 179.905 114.129 179.905H114.619C114.778 179.905 114.894 179.872 114.969 179.807C115.044 179.732 115.081 179.602 115.081 179.415V179.051H115.137V179.975C115.137 180.311 115.053 180.554 114.885 180.703C114.717 180.852 114.493 180.927 114.213 180.927H113.709C113.28 180.927 112.962 180.824 112.757 180.619C112.552 180.404 112.449 180.096 112.449 179.695V177.273ZM120.35 178.687V175.509C120.35 175.332 120.322 175.22 120.266 175.173C120.219 175.117 120.107 175.089 119.93 175.089H119.51V174.095H120.294C120.751 174.095 121.083 174.202 121.288 174.417C121.493 174.622 121.596 174.93 121.596 175.341V178.687H120.35ZM120.35 179.513V178.099H121.596V179.695C121.596 180.096 121.493 180.404 121.288 180.619C121.083 180.824 120.751 180.927 120.294 180.927H119.44V179.933H119.93C120.107 179.933 120.219 179.905 120.266 179.849C120.322 179.793 120.35 179.681 120.35 179.513ZM118.754 175.509V178.701H117.508V175.341C117.508 174.93 117.611 174.622 117.816 174.417C118.021 174.202 118.348 174.095 118.796 174.095H119.594V175.089H119.174C119.006 175.089 118.894 175.117 118.838 175.173C118.782 175.22 118.754 175.332 118.754 175.509ZM118.754 178.015V179.513C118.754 179.681 118.782 179.793 118.838 179.849C118.894 179.905 119.006 179.933 119.174 179.933H119.552V180.927H118.796C118.348 180.927 118.021 180.824 117.816 180.619C117.611 180.404 117.508 180.096 117.508 179.695V178.015H118.754ZM128.409 176.055V177.077H125.791V176.055H128.409ZM124.895 172.163H126.169V180.927H124.895V172.163ZM128.017 172.163H129.291V180.927H128.017V172.163ZM133.393 178.687V175.509C133.393 175.332 133.365 175.22 133.309 175.173C133.262 175.117 133.15 175.089 132.973 175.089H132.553V174.095H133.337C133.794 174.095 134.126 174.202 134.331 174.417C134.536 174.622 134.639 174.93 134.639 175.341V178.687H133.393ZM133.393 179.513V178.099H134.639V179.695C134.639 180.096 134.536 180.404 134.331 180.619C134.126 180.824 133.794 180.927 133.337 180.927H132.483V179.933H132.973C133.15 179.933 133.262 179.905 133.309 179.849C133.365 179.793 133.393 179.681 133.393 179.513ZM131.797 175.509V178.701H130.551V175.341C130.551 174.93 130.654 174.622 130.859 174.417C131.064 174.202 131.391 174.095 131.839 174.095H132.637V175.089H132.217C132.049 175.089 131.937 175.117 131.881 175.173C131.825 175.22 131.797 175.332 131.797 175.509ZM131.797 178.015V179.513C131.797 179.681 131.825 179.793 131.881 179.849C131.937 179.905 132.049 179.933 132.217 179.933H132.595V180.927H131.839C131.391 180.927 131.064 180.824 130.859 180.619C130.654 180.404 130.551 180.096 130.551 179.695V178.015H131.797ZM137.119 173.563V179.541C137.119 179.7 137.147 179.807 137.203 179.863C137.259 179.919 137.371 179.947 137.539 179.947H137.931V180.941H137.147C136.699 180.941 136.367 180.838 136.153 180.633C135.947 180.418 135.845 180.106 135.845 179.695V173.395C135.845 172.994 135.947 172.69 136.153 172.485C136.367 172.27 136.699 172.163 137.147 172.163H138.015V173.157H137.539C137.371 173.157 137.259 173.185 137.203 173.241C137.147 173.288 137.119 173.395 137.119 173.563ZM138.659 174.907V173.563C138.659 173.395 138.631 173.288 138.575 173.241C138.528 173.185 138.421 173.157 138.253 173.157H137.791V172.163H138.631C139.088 172.163 139.419 172.27 139.625 172.485C139.839 172.69 139.947 172.994 139.947 173.395V174.907H138.659ZM138.659 179.541V178.211H139.947V179.695C139.947 180.106 139.839 180.418 139.625 180.633C139.419 180.838 139.088 180.941 138.631 180.941H137.791V179.947H138.253C138.421 179.947 138.528 179.919 138.575 179.863C138.631 179.807 138.659 179.7 138.659 179.541ZM144.972 180.927H143.712V175.523C143.712 175.355 143.684 175.248 143.628 175.201C143.572 175.145 143.46 175.117 143.292 175.117H142.802C142.643 175.117 142.527 175.154 142.452 175.229C142.377 175.304 142.34 175.43 142.34 175.607V176.027H142.284V175.047C142.284 174.711 142.368 174.468 142.536 174.319C142.704 174.17 142.928 174.095 143.208 174.095H143.712C144.141 174.095 144.459 174.202 144.664 174.417C144.869 174.622 144.972 174.93 144.972 175.341V180.927ZM142.34 180.927H141.08V171.561H142.34V180.927ZM147.453 180.927H146.193V174.095H147.453V180.927ZM146.165 172.793V171.547H147.481V172.793H146.165ZM152.251 179.023H151.103L149.899 174.529V180.927H148.793V172.163H150.179L151.677 177.595L153.175 172.163H154.561V180.927H153.455V174.515L152.251 179.023ZM157.16 180.927H155.9V174.095H157.16V180.927ZM155.872 172.793V171.547H157.188V172.793H155.872ZM159.648 180.927H158.388V174.095H159.648V174.949V175.033V180.927ZM162.28 180.927H161.02V175.523C161.02 175.355 160.992 175.248 160.936 175.201C160.88 175.145 160.768 175.117 160.6 175.117H160.11C159.952 175.117 159.835 175.154 159.76 175.229C159.686 175.304 159.648 175.43 159.648 175.607V176.055H159.592V175.047C159.592 174.711 159.676 174.468 159.844 174.319C160.012 174.17 160.236 174.095 160.516 174.095H161.02C161.45 174.095 161.767 174.202 161.972 174.417C162.178 174.622 162.28 174.93 162.28 175.341V180.927ZM167.394 180.927H166.134V175.523C166.134 175.355 166.106 175.248 166.05 175.201C165.994 175.145 165.882 175.117 165.714 175.117H165.224C165.065 175.117 164.948 175.154 164.874 175.229C164.799 175.304 164.762 175.43 164.762 175.607V176.027H164.706V175.047C164.706 174.711 164.79 174.468 164.958 174.319C165.126 174.17 165.35 174.095 165.63 174.095H166.134C166.563 174.095 166.88 174.202 167.086 174.417C167.291 174.622 167.394 174.93 167.394 175.341V180.927ZM164.762 180.927H163.502V171.561H164.762V180.927ZM171.954 173.563V179.541C171.954 179.7 171.982 179.807 172.038 179.863C172.094 179.919 172.206 179.947 172.374 179.947H172.766V180.941H171.982C171.534 180.941 171.203 180.838 170.988 180.633C170.783 180.418 170.68 180.106 170.68 179.695V173.395C170.68 172.994 170.783 172.69 170.988 172.485C171.203 172.27 171.534 172.163 171.982 172.163H172.85V173.157H172.374C172.206 173.157 172.094 173.185 172.038 173.241C171.982 173.288 171.954 173.395 171.954 173.563ZM173.494 174.907V173.563C173.494 173.395 173.466 173.288 173.41 173.241C173.364 173.185 173.256 173.157 173.088 173.157H172.626V172.163H173.466C173.924 172.163 174.255 172.27 174.46 172.485C174.675 172.69 174.782 172.994 174.782 173.395V174.907H173.494ZM173.494 179.541V178.211H174.782V179.695C174.782 180.106 174.675 180.418 174.46 180.633C174.255 180.838 173.924 180.941 173.466 180.941H172.626V179.947H173.088C173.256 179.947 173.364 179.919 173.41 179.863C173.466 179.807 173.494 179.7 173.494 179.541ZM177.176 180.927H175.916V174.095H177.176V180.927ZM175.888 172.793V171.547H177.204V172.793H175.888ZM179.776 172.933V179.443C179.776 179.602 179.804 179.709 179.86 179.765C179.916 179.821 180.023 179.849 180.182 179.849H180.714V180.927H179.818C179.361 180.927 179.025 180.824 178.81 180.619C178.605 180.404 178.502 180.096 178.502 179.695V172.933H179.776ZM180.714 174.095V175.117H177.858V174.095H180.714ZM180.963 174.095H182.251L183.287 179.821L184.253 174.095H185.527L184.085 181.585C183.991 181.996 183.814 182.308 183.553 182.523C183.301 182.747 182.941 182.859 182.475 182.859H181.635V181.851H182.209C182.405 181.851 182.563 181.818 182.685 181.753C182.815 181.697 182.899 181.576 182.937 181.389L183.077 180.815H182.391L180.963 174.095Z" fill="#DEDEDE"/>
</svg>
