<svg width="26" height="26" viewBox="0 0 26 26" fill="none" xmlns="http://www.w3.org/2000/svg">
<path opacity="0.987" fill-rule="evenodd" clip-rule="evenodd" d="M11.0718 0.112869C12.4188 -0.037623 13.2158 -0.037623 14.6632 0.112869C17.2251 0.492062 19.6001 1.67629 21.4446 3.49429C20.1981 4.67247 18.9681 5.86785 17.7547 7.08009C15.4311 5.11069 12.8374 4.65612 9.97375 5.71637C7.87306 6.68249 6.41025 8.24811 5.58533 10.4132C4.2373 9.40961 2.90682 8.38264 1.59451 7.33277C1.50331 7.28476 1.39914 7.26718 1.29724 7.2826C3.38183 3.26329 6.6394 0.87276 11.0699 0.111011" fill="#F44336"/>
<path opacity="0.997" fill-rule="evenodd" clip-rule="evenodd" d="M1.29358 7.28229C1.39887 7.26619 1.49858 7.28291 1.59271 7.33246C2.90502 8.38233 4.2355 9.4093 5.58353 10.4129C5.37141 11.2565 5.23769 12.1179 5.18408 12.9861C5.22991 13.8259 5.36306 14.6502 5.58353 15.459L1.39391 18.794C-0.43057 14.9815 -0.464013 11.1443 1.29358 7.28229Z" fill="#FFC107"/>
<path opacity="0.999" fill-rule="evenodd" clip-rule="evenodd" d="M21.2459 22.8336C19.9414 21.6831 18.5757 20.6039 17.1548 19.6008C18.5792 18.595 19.4437 17.2152 19.7484 15.4613H12.7682V10.614C16.7937 10.5805 20.8173 10.6146 24.8391 10.7162C25.6021 14.8593 24.7208 18.595 22.1953 21.9232C21.895 22.2424 21.5769 22.5463 21.2459 22.8336Z" fill="#448AFF"/>
<path opacity="0.993" fill-rule="evenodd" clip-rule="evenodd" d="M5.58354 15.4614C7.10704 19.2479 9.90012 21.0154 13.9628 20.7639C15.1032 20.6319 16.1967 20.2335 17.1547 19.6009C18.5766 20.6066 19.9404 21.6842 21.2459 22.8337C19.1773 24.6924 16.5399 25.7953 13.764 25.9624C13.1333 26.0128 12.4996 26.0128 11.8689 25.9624C7.13986 25.405 3.6482 23.0158 1.39392 18.7945L5.58354 15.4614Z" fill="#43A047"/>
</svg>
