<svg width="40" height="40" viewBox="0 0 40 40" fill="none" xmlns="http://www.w3.org/2000/svg">
<rect width="40" height="40" rx="20" fill="#D9D9D9"/>
<path d="M27.5758 13.8073L31.6558 9.72728C31.749 9.63404 31.823 9.52335 31.8735 9.40152C31.9239 9.2797 31.9499 9.14913 31.9499 9.01728C31.9499 8.88542 31.9239 8.75485 31.8735 8.63303C31.823 8.5112 31.749 8.40051 31.6558 8.30728C31.5626 8.21404 31.4519 8.14008 31.33 8.08962C31.2082 8.03916 31.0777 8.01318 30.9458 8.01318C30.8139 8.01318 30.6834 8.03916 30.5615 8.08962C30.4397 8.14008 30.329 8.21404 30.2358 8.30728L29.2358 9.30728L8.4258 30.1173L8.2958 30.2473C8.20207 30.3402 8.12768 30.4508 8.07691 30.5727C8.02614 30.6946 8 30.8253 8 30.9573C8 31.0893 8.02614 31.22 8.07691 31.3419C8.12768 31.4637 8.20207 31.5743 8.2958 31.6673C8.47467 31.8607 8.72263 31.9757 8.9858 31.9873C9.1174 31.988 9.24787 31.9628 9.3697 31.913C9.49154 31.8633 9.60236 31.79 9.6958 31.6973L15.0158 26.3773C16.5014 27.2494 18.1837 27.731 19.9058 27.7773H20.0658C24.3858 27.8773 28.6958 24.2873 31.2958 20.8973C31.6388 20.4268 31.8236 19.8595 31.8236 19.2773C31.8236 18.695 31.6388 18.1278 31.2958 17.6573C30.2156 16.2286 28.9666 14.9358 27.5758 13.8073ZM23.7058 17.6673C23.9614 18.187 24.0947 18.7582 24.0958 19.3373C24.0932 20.3752 23.679 21.3697 22.9441 22.1027C22.2093 22.8357 21.2137 23.2473 20.1758 23.2473C19.5982 23.2427 19.0285 23.113 18.5058 22.8673L23.7058 17.6673ZM11.6058 23.8473C11.7758 24.0073 11.9758 24.1773 12.1658 24.3373L24.6158 11.8873C23.2235 11.1579 21.6775 10.7706 20.1058 10.7573C15.7858 10.6673 11.4658 14.2473 8.8758 17.6273C8.52983 18.0965 8.34318 18.6643 8.34318 19.2473C8.34318 19.8303 8.52983 20.398 8.8758 20.8673C9.69244 21.9423 10.6063 22.9398 11.6058 23.8473ZM18.4658 13.8473C18.6636 13.8473 18.8569 13.9059 19.0214 14.0158C19.1858 14.1257 19.314 14.2819 19.3897 14.4646C19.4654 14.6473 19.4852 14.8484 19.4466 15.0424C19.408 15.2363 19.3128 15.4145 19.1729 15.5544C19.0331 15.6942 18.8549 15.7895 18.6609 15.8281C18.4669 15.8666 18.2658 15.8468 18.0831 15.7712C17.9004 15.6955 17.7442 15.5673 17.6343 15.4028C17.5244 15.2384 17.4658 15.0451 17.4658 14.8473C17.4645 14.7151 17.4894 14.584 17.539 14.4615C17.5887 14.339 17.6621 14.2276 17.7551 14.1337C17.8481 14.0398 17.9588 13.9652 18.0808 13.9143C18.2028 13.8635 18.3336 13.8373 18.4658 13.8373V13.8473ZM15.1758 16.8473C15.3736 16.8473 15.5669 16.9059 15.7314 17.0158C15.8958 17.1257 16.024 17.2819 16.0997 17.4646C16.1754 17.6473 16.1952 17.8484 16.1566 18.0424C16.118 18.2363 16.0228 18.4145 15.8829 18.5544C15.7431 18.6942 15.5649 18.7895 15.3709 18.8281C15.1769 18.8666 14.9758 18.8468 14.7931 18.7712C14.6104 18.6955 14.4542 18.5673 14.3443 18.4028C14.2344 18.2384 14.1758 18.0451 14.1758 17.8473C14.1758 17.5821 14.2812 17.3277 14.4687 17.1402C14.6562 16.9526 14.9106 16.8473 15.1758 16.8473Z" fill="black"/>
</svg>
