<svg width="95" height="70" viewBox="0 0 95 70" fill="none" xmlns="http://www.w3.org/2000/svg">
<path d="M28.6267 49.4575C28.8346 51.9187 28.2471 54.3817 26.9609 56.4408C25.6747 58.5 23.7665 60.0325 21.5507 60.7859C19.3349 61.5393 16.9436 61.4687 14.7706 60.5857C12.5976 59.7028 10.7725 58.0601 9.59604 55.9282C8.41954 53.7963 7.96174 51.3025 8.29805 48.8573C8.63437 46.4122 9.74474 44.1616 11.4463 42.4763C13.1478 40.791 15.339 39.7715 17.659 39.5857C19.979 39.3998 22.2895 40.0587 24.2097 41.4539L29.4396 34.7292C26.0871 32.0765 21.985 30.7132 17.8068 30.8632C13.6286 31.0132 9.62257 32.6676 6.44636 35.5547C3.27016 38.4418 1.11253 42.39 0.327699 46.7513C-0.457135 51.1126 0.177463 55.6277 2.12731 59.5554C4.07716 63.4831 7.22639 66.59 11.058 68.366C14.8896 70.142 19.1759 70.4816 23.2132 69.329C27.2505 68.1765 30.7989 65.6002 33.2758 62.0233C35.7527 58.4463 37.011 54.0812 36.8441 49.6445C34.1037 49.7313 31.3609 49.6703 28.6267 49.4575Z" fill="#2859C5"/>
<path fill-rule="evenodd" clip-rule="evenodd" d="M75.7653 39.149C78.4808 39.149 81.085 40.2947 83.0051 42.334C84.9252 44.3734 86.0039 47.1393 86.0039 50.0234C86.0039 52.9075 84.9252 55.6734 83.0051 57.7128C81.085 59.7521 78.4808 60.8978 75.7653 60.8978C73.0499 60.8978 70.4457 59.7521 68.5256 57.7128C66.6055 55.6734 65.5268 52.9075 65.5268 50.0234C65.5268 47.1393 66.6055 44.3734 68.5256 42.334C70.4457 40.2947 73.0499 39.149 75.7653 39.149ZM94.1947 50.0234C94.1947 44.8321 92.2531 39.8534 88.7969 36.1825C85.3407 32.5117 80.6531 30.4495 75.7653 30.4495C70.8776 30.4495 66.19 32.5117 62.7338 36.1825C59.2776 39.8534 57.3359 44.8321 57.3359 50.0234C57.3359 55.2147 59.2776 60.1934 62.7338 63.8643C66.19 67.5351 70.8776 69.5973 75.7653 69.5973C80.6531 69.5973 85.3407 67.5351 88.7969 63.8643C92.2531 60.1934 94.1947 55.2147 94.1947 50.0234Z" fill="#2859C5"/>
<path fill-rule="evenodd" clip-rule="evenodd" d="M76.2727 8.66784C76.8065 8.59701 77.3219 8.41521 77.7896 8.13281C78.2572 7.85042 78.6679 7.47296 78.9981 7.02199C79.3284 6.57102 79.5719 6.05537 79.7145 5.50449C79.8572 4.9536 79.8963 4.37827 79.8296 3.81133C79.7629 3.2444 79.5917 2.69697 79.3258 2.20029C79.06 1.70362 78.7046 1.26743 78.28 0.916632C77.8554 0.565834 77.3699 0.307295 76.8512 0.155777C76.3325 0.00426031 75.7908 -0.0372676 75.257 0.0335636C71.5929 0.513138 67.9981 1.46928 64.5537 2.88048C63.2738 3.40898 62.2602 3.90703 61.5517 4.28328C61.1432 4.49652 60.7423 4.72577 60.3497 4.97054C59.5406 5.48558 58.9236 6.28149 58.6031 7.22381C58.2826 8.16613 58.2783 9.19706 58.5907 10.1424L61.1524 17.885C59.1825 21.4649 55.3369 27.585 51.6531 33.2919C50.2668 35.4406 48.9296 37.4937 47.7583 39.2793C46.8737 37.3893 45.9256 35.3971 44.9673 33.3832L43.4233 30.1252C41.4903 26.043 39.6351 22.0629 38.1976 18.7136C39.1559 18.6201 39.9791 18.5657 40.6098 18.5331C41.0671 18.5099 41.5237 18.494 41.9797 18.4853C44.2404 18.4418 46.0751 16.5387 46.0751 14.1355C46.0751 11.7323 44.2404 9.75094 41.9797 9.78573C41.3913 9.79443 40.8023 9.81328 40.2125 9.84228C38.764 9.91816 37.3182 10.0451 35.8775 10.2229C32.3759 10.6535 27.6621 11.5235 23.1346 13.3264C22.1257 13.7379 21.3109 14.5562 20.8676 15.603C20.4243 16.6499 20.3886 17.8404 20.7682 18.915C21.1478 19.9897 21.912 20.8615 22.8942 21.3403C23.8764 21.8192 24.9969 21.8663 26.0117 21.4714C27.271 20.9712 28.5672 20.5514 29.8552 20.2034C30.3262 21.3583 30.8565 22.5958 31.4238 23.8855L15.2468 45.1124C14.8136 45.6805 14.5222 46.3555 14.3995 47.075C14.2769 47.7944 14.3269 48.5351 14.5451 49.2286C14.7633 49.922 15.1425 50.5459 15.6478 51.0425C16.1531 51.5391 16.768 51.8924 17.4358 52.0698C24.1994 53.8641 31.8702 53.8314 37.6488 53.4117C40.0764 53.2345 42.4975 52.969 44.9079 52.6157C45.8551 52.4755 46.7999 52.3182 47.742 52.1437C48.304 52.0485 48.8413 51.83 49.3193 51.5019C49.7974 51.1739 50.2059 50.7436 50.5187 50.2385L50.6088 50.1081L51.0941 49.3773C53.5556 45.672 55.9938 41.9492 58.4085 38.2093C60.5158 34.958 62.5875 31.681 64.6233 28.3788L71.9008 50.3777C72.0791 50.9167 72.3556 51.4131 72.7145 51.8385C73.0734 52.264 73.5077 52.6102 73.9926 52.8574C74.4775 53.1046 75.0034 53.2479 75.5405 53.2792C76.0775 53.3105 76.6151 53.2292 77.1225 53.0398C77.6299 52.8504 78.0973 52.5568 78.4979 52.1756C78.8984 51.7944 79.2244 51.3331 79.4572 50.8181C79.6899 50.3032 79.8248 49.7445 79.8543 49.1741C79.8838 48.6038 79.8072 48.0328 79.6289 47.4938L67.5474 10.9776C70.3562 9.83232 73.2864 9.05665 76.2727 8.66784ZM40.9907 44.3664C39.9873 42.2045 38.861 39.8383 37.6938 37.385V37.3785L35.3861 32.5133L26.0731 44.7361C29.8306 45.0602 33.6885 44.9797 37.0918 44.7317C38.3936 44.6374 39.6935 44.5156 40.9907 44.3664Z" fill="#8FBFFA"/>
</svg>
