<svg width="70" height="70" viewBox="0 0 70 70" fill="none" xmlns="http://www.w3.org/2000/svg">
<path opacity="0.5" d="M20.4167 17.5C19.6431 17.5 18.9013 17.1927 18.3543 16.6458C17.8073 16.0988 17.5 15.3569 17.5 14.5834V8.75004C17.5 7.97649 17.8073 7.23463 18.3543 6.68765C18.9013 6.14066 19.6431 5.83337 20.4167 5.83337C21.1902 5.83337 21.9321 6.14066 22.4791 6.68765C23.026 7.23463 23.3333 7.97649 23.3333 8.75004V14.5834C23.3333 15.3564 23.0264 16.0978 22.4801 16.6447C21.9337 17.1916 21.1897 17.4993 20.4167 17.5ZM49.5833 17.5C48.8098 17.5 48.0679 17.1927 47.5209 16.6458C46.974 16.0988 46.6667 15.3569 46.6667 14.5834V8.75004C46.6667 7.97649 46.974 7.23463 47.5209 6.68765C48.0679 6.14066 48.8098 5.83337 49.5833 5.83337C50.3569 5.83337 51.0988 6.14066 51.6457 6.68765C52.1927 7.23463 52.5 7.97649 52.5 8.75004V14.5834C52.5 15.3564 52.1931 16.0978 51.6468 16.6447C51.1004 17.1916 50.3564 17.4993 49.5833 17.5Z" fill="black"/>
<path d="M55.4166 11.6666H52.5V14.5833C52.5 15.3568 52.1927 16.0987 51.6457 16.6457C51.0987 17.1927 50.3569 17.5 49.5833 17.5C48.8098 17.5 48.0679 17.1927 47.5209 16.6457C46.9739 16.0987 46.6666 15.3568 46.6666 14.5833V11.6666H23.3333V14.5833C23.3333 15.3568 23.026 16.0987 22.479 16.6457C21.9321 17.1927 21.1902 17.5 20.4166 17.5C19.6431 17.5 18.9012 17.1927 18.3543 16.6457C17.8073 16.0987 17.5 15.3568 17.5 14.5833V11.6666H14.5833C12.2627 11.6666 10.0371 12.5885 8.39613 14.2294C6.75519 15.8704 5.83331 18.096 5.83331 20.4166V26.25H64.1666V20.4166C64.1666 18.096 63.2448 15.8704 61.6038 14.2294C59.9629 12.5885 57.7373 11.6666 55.4166 11.6666Z" fill="black"/>
<path d="M20.4167 40.8333C22.0275 40.8333 23.3333 39.5275 23.3333 37.9167C23.3333 36.3058 22.0275 35 20.4167 35C18.8058 35 17.5 36.3058 17.5 37.9167C17.5 39.5275 18.8058 40.8333 20.4167 40.8333Z" fill="black"/>
<path d="M20.4167 52.5001C22.0275 52.5001 23.3333 51.1942 23.3333 49.5834C23.3333 47.9726 22.0275 46.6667 20.4167 46.6667C18.8058 46.6667 17.5 47.9726 17.5 49.5834C17.5 51.1942 18.8058 52.5001 20.4167 52.5001Z" fill="black"/>
<path d="M35 40.8333C36.6109 40.8333 37.9167 39.5275 37.9167 37.9167C37.9167 36.3058 36.6109 35 35 35C33.3892 35 32.0834 36.3058 32.0834 37.9167C32.0834 39.5275 33.3892 40.8333 35 40.8333Z" fill="black"/>
<path d="M35 52.5001C36.6109 52.5001 37.9167 51.1942 37.9167 49.5834C37.9167 47.9726 36.6109 46.6667 35 46.6667C33.3892 46.6667 32.0834 47.9726 32.0834 49.5834C32.0834 51.1942 33.3892 52.5001 35 52.5001Z" fill="black"/>
<path d="M49.5833 40.8333C51.1941 40.8333 52.5 39.5275 52.5 37.9167C52.5 36.3058 51.1941 35 49.5833 35C47.9725 35 46.6666 36.3058 46.6666 37.9167C46.6666 39.5275 47.9725 40.8333 49.5833 40.8333Z" fill="black"/>
<path d="M49.5833 52.5001C51.1941 52.5001 52.5 51.1942 52.5 49.5834C52.5 47.9726 51.1941 46.6667 49.5833 46.6667C47.9725 46.6667 46.6666 47.9726 46.6666 49.5834C46.6666 51.1942 47.9725 52.5001 49.5833 52.5001Z" fill="black"/>
<path opacity="0.5" d="M5.83331 26.25V55.4167C5.83331 57.7373 6.75519 59.9629 8.39613 61.6039C10.0371 63.2448 12.2627 64.1667 14.5833 64.1667H55.4166C57.7373 64.1667 59.9629 63.2448 61.6038 61.6039C63.2448 59.9629 64.1666 57.7373 64.1666 55.4167V26.25H5.83331ZM20.4166 52.5C19.6431 52.5 18.9012 52.1927 18.3543 51.6457C17.8073 51.0987 17.5 50.3569 17.5 49.5833C17.5 48.8098 17.8073 48.0679 18.3543 47.5209C18.9012 46.974 19.6431 46.6667 20.4166 46.6667C21.1902 46.6667 21.9321 46.974 22.479 47.5209C23.026 48.0679 23.3333 48.8098 23.3333 49.5833C23.3333 50.3569 23.026 51.0987 22.479 51.6457C21.9321 52.1927 21.1902 52.5 20.4166 52.5ZM20.4166 40.8333C19.6431 40.8333 18.9012 40.526 18.3543 39.9791C17.8073 39.4321 17.5 38.6902 17.5 37.9167C17.5 37.1431 17.8073 36.4013 18.3543 35.8543C18.9012 35.3073 19.6431 35 20.4166 35C21.1902 35 21.9321 35.3073 22.479 35.8543C23.026 36.4013 23.3333 37.1431 23.3333 37.9167C23.3333 38.6902 23.026 39.4321 22.479 39.9791C21.9321 40.526 21.1902 40.8333 20.4166 40.8333ZM35 52.5C34.2264 52.5 33.4846 52.1927 32.9376 51.6457C32.3906 51.0987 32.0833 50.3569 32.0833 49.5833C32.0833 48.8098 32.3906 48.0679 32.9376 47.5209C33.4846 46.974 34.2264 46.6667 35 46.6667C35.7735 46.6667 36.5154 46.974 37.0624 47.5209C37.6094 48.0679 37.9166 48.8098 37.9166 49.5833C37.9166 50.3569 37.6094 51.0987 37.0624 51.6457C36.5154 52.1927 35.7735 52.5 35 52.5ZM35 40.8333C34.2264 40.8333 33.4846 40.526 32.9376 39.9791C32.3906 39.4321 32.0833 38.6902 32.0833 37.9167C32.0833 37.1431 32.3906 36.4013 32.9376 35.8543C33.4846 35.3073 34.2264 35 35 35C35.7735 35 36.5154 35.3073 37.0624 35.8543C37.6094 36.4013 37.9166 37.1431 37.9166 37.9167C37.9166 38.6902 37.6094 39.4321 37.0624 39.9791C36.5154 40.526 35.7735 40.8333 35 40.8333ZM49.5833 52.5C48.8098 52.5 48.0679 52.1927 47.5209 51.6457C46.9739 51.0987 46.6666 50.3569 46.6666 49.5833C46.6666 48.8098 46.9739 48.0679 47.5209 47.5209C48.0679 46.974 48.8098 46.6667 49.5833 46.6667C50.3569 46.6667 51.0987 46.974 51.6457 47.5209C52.1927 48.0679 52.5 48.8098 52.5 49.5833C52.5 50.3569 52.1927 51.0987 51.6457 51.6457C51.0987 52.1927 50.3569 52.5 49.5833 52.5ZM49.5833 40.8333C48.8098 40.8333 48.0679 40.526 47.5209 39.9791C46.9739 39.4321 46.6666 38.6902 46.6666 37.9167C46.6666 37.1431 46.9739 36.4013 47.5209 35.8543C48.0679 35.3073 48.8098 35 49.5833 35C50.3569 35 51.0987 35.3073 51.6457 35.8543C52.1927 36.4013 52.5 37.1431 52.5 37.9167C52.5 38.6902 52.1927 39.4321 51.6457 39.9791C51.0987 40.526 50.3569 40.8333 49.5833 40.8333Z" fill="black"/>
</svg>
